<svg width="42" height="21" viewBox="0 0 42 21" fill="none" xmlns="http://www.w3.org/2000/svg">
<path d="M0.176758 3.71339C0.176758 1.89774 1.64863 0.425865 3.46428 0.425865H37.3892C39.2049 0.425865 40.6768 1.89774 40.6768 3.71339C40.6768 5.52904 39.2049 7.00091 37.3892 7.00091H3.46428C1.64864 7.00091 0.176758 5.52904 0.176758 3.71339Z" fill="#00BE8A"/>
<path d="M32.0664 7.31102C30.1128 7.24453 28.575 7.53841 26.1939 7.49687C23.8129 7.45533 23.4563 7.29944 20.7293 7.33452C18.0026 7.36959 15.2742 7.26296 14.0601 7.32701C12.846 7.39108 12.7178 7.19738 10.9937 7.2404C9.26964 7.28342 8.22472 7.25813 6.71689 7.19518C6.05917 7.16771 4.807 7.14201 3.46428 7.12816C1.54518 7.18535 0.178501 5.30047 0.0769444 4.32991C0.0318257 4.13091 0.00677125 3.92332 0.00304255 3.71339C-0.0770675 2.01812 1.46324 0.707125 2.46464 0.511181C2.81861 0.411871 3.10978 0.395204 3.32849 0.399983C3.42123 0.402443 3.46433 0.415947 3.46428 0.428119C3.46428 0.428127 3.46428 0.428135 3.46428 0.428143C3.46416 0.443795 3.39828 0.457474 3.28206 0.465625C2.7247 0.497445 1.84261 0.757986 1.19633 1.50916C0.497803 2.39228 0.385137 2.92477 0.334919 3.71339C0.334919 3.71339 0.334919 3.71339 0.334919 3.71339C0.335214 4.19273 0.403938 4.8439 0.965637 5.58234C1.65162 6.43993 2.58249 6.77167 3.46428 6.74973C4.64012 6.71944 5.84654 6.70422 7.49716 6.74223C10.4988 6.81136 11.1883 6.52208 15.4255 6.68602C19.6625 6.84995 20.1085 6.54742 24.3309 6.50719C28.5533 6.46696 33.8833 6.63388 36.4286 6.62004C36.7364 6.61837 37.0571 6.61638 37.3892 6.61425C38.7284 6.66418 40.2939 5.4228 40.2683 3.71339C40.2683 3.71339 40.2683 3.71339 40.2683 3.71339C40.2802 2.73591 39.7362 1.72861 38.8345 1.20143C38.415 0.951417 37.9124 0.806057 37.3892 0.806323C34.1412 0.802859 30.4319 0.865817 27.0604 0.805517C23.0774 0.734282 17.4463 0.64431 14.8448 0.58402C12.2434 0.523732 11.6094 0.510134 9.10541 0.546972C7.6661 0.568148 5.68331 0.548188 4.0085 0.470312C3.16563 0.431119 3.35663 0.376549 4.20501 0.350439C5.44561 0.312259 6.46402 0.337766 7.10325 0.269567C8.38056 0.13327 8.92344 0.0809842 10.536 0.160314C12.1484 0.239635 12.9082 0.059366 13.8481 0.0801143C14.7881 0.100873 14.7727 0.207203 19.5521 0.12528C24.3316 0.0433545 26.9518 0.0224505 28.7617 0.00278279C30.5717 -0.0168851 34.351 0.0753988 37.3008 0.0420894C37.33 0.0417599 37.3595 0.0414366 37.3892 0.0411195C38.8631 -0.0989518 41.1374 1.43193 41.0803 3.71339C41.0803 3.71339 41.0803 3.71339 41.0803 3.71339C41.1446 5.95348 38.9283 7.53131 37.3892 7.42656C37.0342 7.43076 36.7153 7.43584 36.4421 7.442C34.0248 7.49653 34.0198 7.37751 32.0664 7.31102Z" fill="white"/>
<path d="M0.176758 16.8636C0.176758 15.048 1.64863 13.5761 3.46428 13.5761H37.3892C39.2049 13.5761 40.6768 15.048 40.6768 16.8636C40.6768 18.6793 39.2049 20.1512 37.3892 20.1512H3.46428C1.64864 20.1512 0.176758 18.6793 0.176758 16.8636Z" fill="#00BE8A"/>
<path d="M32.0664 20.4613C30.1128 20.3948 28.575 20.6886 26.1939 20.6471C23.8129 20.6056 23.4563 20.4497 20.7293 20.4848C18.0026 20.5198 15.2742 20.4132 14.0601 20.4773C12.846 20.5413 12.7178 20.3476 10.9937 20.3906C9.26964 20.4337 8.22472 20.4084 6.71689 20.3454C6.05917 20.318 4.807 20.2922 3.46428 20.2784C1.54518 20.3356 0.178501 18.4507 0.0769444 17.4802C0.0318257 17.2812 0.00677125 17.0736 0.00304255 16.8636C-0.0770675 15.1684 1.46324 13.8574 2.46464 13.6614C2.81861 13.5621 3.10978 13.5454 3.32849 13.5502C3.42123 13.5527 3.46433 13.5662 3.46428 13.5784C3.46428 13.5784 3.46428 13.5784 3.46428 13.5784C3.46416 13.594 3.39828 13.6077 3.28206 13.6159C2.7247 13.6477 1.84261 13.9082 1.19633 14.6594C0.497803 15.5425 0.385137 16.075 0.334919 16.8636C0.334919 16.8636 0.334919 16.8636 0.334919 16.8636C0.335214 17.343 0.403938 17.9941 0.965637 18.7326C1.65162 19.5902 2.58249 19.9219 3.46428 19.9C4.64012 19.8697 5.84654 19.8545 7.49716 19.8925C10.4988 19.9616 11.1883 19.6723 15.4255 19.8363C19.6625 20.0002 20.1085 19.6977 24.3309 19.6574C28.5533 19.6172 33.8833 19.7841 36.4286 19.7703C36.7364 19.7686 37.0571 19.7666 37.3892 19.7645C38.7284 19.8144 40.2939 18.573 40.2683 16.8636C40.2683 16.8636 40.2683 16.8636 40.2683 16.8636C40.2802 15.8861 39.7362 14.8788 38.8345 14.3517C38.415 14.1017 37.9124 13.9563 37.3892 13.9566C34.1412 13.9531 30.4319 14.0161 27.0604 13.9558C23.0774 13.8845 17.4463 13.7945 14.8448 13.7343C12.2434 13.674 11.6094 13.6604 9.10541 13.6972C7.6661 13.7184 5.68331 13.6984 4.0085 13.6205C3.16563 13.5814 3.35663 13.5268 4.20501 13.5007C5.44561 13.4625 6.46402 13.488 7.10325 13.4198C8.38056 13.2835 8.92344 13.2312 10.536 13.3106C12.1484 13.3899 12.9082 13.2096 13.8481 13.2304C14.7881 13.2511 14.7727 13.3574 19.5521 13.2755C24.3316 13.1936 26.9518 13.1727 28.7617 13.153C30.5717 13.1334 34.351 13.2256 37.3008 13.1923C37.33 13.192 37.3595 13.1917 37.3892 13.1914C38.8631 13.0513 41.1374 14.5822 41.0803 16.8636C41.0803 16.8636 41.0803 16.8636 41.0803 16.8636C41.1446 19.1037 38.9283 20.6816 37.3892 20.5768C37.0342 20.581 36.7153 20.5861 36.4421 20.5922C34.0248 20.6468 34.0198 20.5278 32.0664 20.4613Z" fill="white"/>
</svg>
