<svg width="30" height="30" viewBox="0 0 30 30" fill="none" xmlns="http://www.w3.org/2000/svg">
<path d="M20.3028 1.2501C21.2886 0.449303 22.5201 0.012187 23.7902 0.012187C25.0604 0.012187 26.2918 0.449303 27.2777 1.2501C27.5177 1.44696 27.7614 1.69257 28.0408 1.97193C28.3202 2.25129 28.5658 2.49502 28.7627 2.73688C29.6166 3.78851 30.055 5.11696 29.9945 6.47027C29.934 7.82358 29.3789 9.10764 28.4346 10.0789L28.0464 10.4708L23.509 15.008L28.0464 19.5452L28.4158 19.9183L28.4346 19.937C29.3784 20.9082 29.9332 22.1919 29.9936 23.5448C30.0541 24.8976 29.6161 26.2257 28.7627 27.2772C28.5658 27.519 28.3202 27.7609 28.0408 28.0403C27.7614 28.3196 27.5158 28.5652 27.2777 28.7621C26.2918 29.5629 25.0604 30 23.7902 30C22.5201 30 21.2886 29.5629 20.3028 28.7621C20.059 28.5671 19.819 28.3196 19.5396 28.0403L15.0022 23.503L10.4648 28.0403C10.1779 28.3271 9.93976 28.5652 9.69976 28.7621C8.71389 29.5629 7.48244 30 6.2123 30C4.94215 30 3.7107 29.5629 2.72484 28.7621C2.48109 28.5671 2.23922 28.3196 1.95984 28.0403C1.6786 27.759 1.43485 27.5153 1.23798 27.2772C0.437139 26.2914 0 25.06 0 23.7899C0 22.5198 0.437139 21.2884 1.23798 20.3026C1.43298 20.0589 1.68047 19.8189 1.95984 19.5396L6.49729 15.0023L1.95984 10.4651C1.67297 10.1783 1.43298 9.94017 1.23798 9.70018C0.437139 8.71437 0 7.48299 0 6.21291C0 4.94283 0.437139 3.71144 1.23798 2.72563C1.43485 2.4819 1.68047 2.23816 1.95984 1.96068C2.23922 1.67945 2.48296 1.43571 2.72484 1.23885C3.71049 0.437789 4.94182 0.000341619 6.21197 2.00004e-07C7.48211 -0.000341219 8.71368 0.436444 9.69976 1.23697C9.93976 1.43196 10.1798 1.67382 10.4648 1.96068L15.0022 6.49789L19.5396 1.96068L19.9334 1.56695C20.0529 1.45419 20.1761 1.34539 20.3028 1.24072V1.2501ZM26.0965 2.70313C25.4446 2.17331 24.6302 1.88408 23.7902 1.88408C22.9502 1.88408 22.1358 2.17331 21.484 2.70313C21.2682 2.89104 21.0611 3.08874 20.8634 3.29559L15.0135 9.14522L9.16352 3.29559C8.96518 3.08869 8.75747 2.891 8.54102 2.70313C7.8892 2.17331 7.07481 1.88408 6.2348 1.88408C5.39479 1.88408 4.5804 2.17331 3.92857 2.70313C3.71277 2.89104 3.50568 3.08874 3.30795 3.29559C2.99296 3.61057 2.83358 3.76994 2.71546 3.91618C2.18561 4.56797 1.89636 5.38231 1.89636 6.22228C1.89636 7.06225 2.18561 7.8766 2.71546 8.52838C2.83546 8.67462 2.99296 8.83586 3.30795 9.15084L9.15789 15.0005L3.30795 20.8501C2.99296 21.1651 2.83358 21.3244 2.71546 21.4707L2.52421 21.7294C2.08406 22.3786 1.86495 23.1524 1.8994 23.9359C1.93385 24.7195 2.22003 25.4711 2.71546 26.0791C2.83546 26.2254 2.99296 26.3847 3.30795 26.6997C3.62295 27.0147 3.78232 27.1741 3.92857 27.2922C5.18856 28.3159 6.96604 28.3777 8.27853 27.4834L8.53727 27.2922C8.61227 27.2322 8.68727 27.1628 8.78664 27.0691L9.15977 26.6997L15.0097 20.8501L20.8596 26.6997C21.1746 27.0147 21.334 27.1741 21.4803 27.2922C22.7402 28.3159 24.5177 28.3796 25.8302 27.4834L26.089 27.2922C26.164 27.2322 26.239 27.1628 26.3364 27.0691L26.7096 26.6997C26.8671 26.5422 26.9852 26.4241 27.0789 26.3266L27.3021 26.0791C28.3258 24.8192 28.3896 23.0418 27.4933 21.7294L27.3021 21.4707L27.0789 21.2232L26.7096 20.8501L20.8596 15.0005L26.7096 9.15084L27.0789 8.77774L27.3021 8.52838C28.3258 7.26846 28.3877 5.49108 27.4933 4.17866L27.3021 3.91993C27.2314 3.83417 27.1569 3.75159 27.0789 3.67244L26.7096 3.29934L26.3364 2.92999L26.089 2.70688L26.0965 2.70313Z" fill="#00BE8A"/>
</svg>
