<svg width="208" height="207" viewBox="0 0 208 207" fill="none" xmlns="http://www.w3.org/2000/svg" xmlns:xlink="http://www.w3.org/1999/xlink">
<circle cx="103.696" cy="103.349" r="100" fill="#00BE8A"/>
<use xlink:href="#stroke0_2737_339" transform="translate(206.349 100.005) scale(0.018254) rotate(82.7093)"/>
<use xlink:href="#stroke0_2737_339" transform="translate(208.688 107.901) scale(0.0213712) rotate(148.639)"/>
<use xlink:href="#stroke0_2737_339" transform="translate(199.943 107.755) scale(0.0190032) rotate(-14.9113)"/>
<use xlink:href="#stroke0_2737_339" transform="translate(200.58 115.946) scale(0.0171934) rotate(-92.3335)"/>
<use xlink:href="#stroke0_2737_339" transform="translate(202.868 119.255) scale(0.015322) rotate(-138.661)"/>
<use xlink:href="#stroke0_2737_339" transform="translate(200.163 116.382) scale(0.011658) rotate(-11.8587)"/>
<use xlink:href="#stroke0_2737_339" transform="translate(202.035 121.843) scale(0.00941702) rotate(-125.843)"/>
<use xlink:href="#stroke0_2737_339" transform="translate(204.218 123.083) scale(0.0108522) rotate(176.501)"/>
<use xlink:href="#stroke0_2737_339" transform="translate(199.458 121.948) scale(0.0105374) rotate(-18.8963)"/>
<use xlink:href="#stroke0_2737_339" transform="translate(200.674 122.316) scale(0.0118386) rotate(25.9292)"/>
<use xlink:href="#stroke0_2737_339" transform="translate(196.191 125.497) scale(0.0214597) rotate(-20.8742)"/>
<use xlink:href="#stroke0_2737_339" transform="translate(201.85 128.726) scale(0.00936986) rotate(95.2857)"/>
<use xlink:href="#stroke0_2737_339" transform="translate(197.077 131.189) scale(0.0111727) rotate(-33.6079)"/>
<use xlink:href="#stroke0_2737_339" transform="translate(196.588 132.054) scale(0.011626) rotate(-13.7564)"/>
<use xlink:href="#stroke0_2737_339" transform="translate(197.088 133.761) scale(0.00923147) rotate(-2.29816)"/>
<use xlink:href="#stroke0_2737_339" transform="translate(195.921 137.907) scale(0.00996769) rotate(-77.6706)"/>
<use xlink:href="#stroke0_2737_339" transform="translate(196.161 135.398) scale(0.0144412) rotate(25.5658)"/>
<use xlink:href="#stroke0_2737_339" transform="translate(192.177 137.265) scale(0.0244839) rotate(3.00331)"/>
<use xlink:href="#stroke0_2737_339" transform="translate(197.073 144.06) scale(0.00977169) rotate(131.602)"/>
<use xlink:href="#stroke0_2737_339" transform="translate(198.291 144.226) scale(0.0221312) rotate(107.338)"/>
<use xlink:href="#stroke0_2737_339" transform="translate(196.105 146.694) scale(0.0211502) rotate(92.9521)"/>
<use xlink:href="#stroke0_2737_339" transform="translate(192.843 152.967) scale(0.00966308) rotate(159.302)"/>
<use xlink:href="#stroke0_2737_339" transform="translate(188.694 151.426) scale(0.0123809) rotate(10.7419)"/>
<use xlink:href="#stroke0_2737_339" transform="translate(188.052 153.43) scale(0.00919148) rotate(12.8494)"/>
<use xlink:href="#stroke0_2737_339" transform="translate(189.816 158.356) scale(0.00935594) rotate(-174.059)"/>
<use xlink:href="#stroke0_2737_339" transform="translate(185.816 159.987) scale(0.0109741) rotate(-96.5619)"/>
<use xlink:href="#stroke0_2737_339" transform="translate(188.868 158.811) scale(0.0108587) rotate(118.378)"/>
<use xlink:href="#stroke0_2737_339" transform="translate(183.575 159.888) scale(0.0102731) rotate(-15.1621)"/>
<use xlink:href="#stroke0_2737_339" transform="translate(186.547 167.894) scale(0.0238029) rotate(-167.311)"/>
<use xlink:href="#stroke0_2737_339" transform="translate(180.606 168.927) scale(0.0144221) rotate(-114.33)"/>
<use xlink:href="#stroke0_2737_339" transform="translate(181.924 165.475) scale(0.0101579) rotate(74.5582)"/>
<use xlink:href="#stroke0_2737_339" transform="translate(177.522 166.214) scale(0.0136696) rotate(11.2311)"/>
<use xlink:href="#stroke0_2737_339" transform="translate(174.923 170.27) scale(0.0131251) rotate(-37.2673)"/>
<use xlink:href="#stroke0_2737_339" transform="translate(174.62 167.265) scale(0.0236239) rotate(34.1314)"/>
<use xlink:href="#stroke0_2737_339" transform="translate(171.542 172.798) scale(0.0130936) rotate(1.61126)"/>
<use xlink:href="#stroke0_2737_339" transform="translate(169.314 175.542) scale(0.0121422) rotate(-27.7506)"/>
<use xlink:href="#stroke0_2737_339" transform="translate(170.369 183.097) scale(0.0205518) rotate(-139.558)"/>
<use xlink:href="#stroke0_2737_339" transform="translate(167.905 177.53) scale(0.0106638) rotate(40.0469)"/>
<use xlink:href="#stroke0_2737_339" transform="translate(165.085 185.644) scale(0.0181422) rotate(-119.716)"/>
<use xlink:href="#stroke0_2737_339" transform="translate(160.923 185.155) scale(0.0154734) rotate(-79.7553)"/>
<use xlink:href="#stroke0_2737_339" transform="translate(160.907 179.338) scale(0.024553) rotate(41.2104)"/>
<use xlink:href="#stroke0_2737_339" transform="translate(159.661 190.995) scale(0.0173659) rotate(-153.826)"/>
<use xlink:href="#stroke0_2737_339" transform="translate(158.775 189.765) scale(0.0115869) rotate(162.671)"/>
<use xlink:href="#stroke0_2737_339" transform="translate(156.294 185.654) scale(0.0207785) rotate(70.1778)"/>
<use xlink:href="#stroke0_2737_339" transform="translate(151.842 187.934) scale(0.0147405) rotate(49.5856)"/>
<use xlink:href="#stroke0_2737_339" transform="translate(144.249 194.336) scale(0.0209323) rotate(-65.6346)"/>
<use xlink:href="#stroke0_2737_339" transform="translate(143.771 198.927) scale(0.0217547) rotate(-114.172)"/>
<use xlink:href="#stroke0_2737_339" transform="translate(138.038 191.932) scale(0.0243012) rotate(-2.30548)"/>
<use xlink:href="#stroke0_2737_339" transform="translate(142.527 196.468) scale(0.0150219) rotate(128.636)"/>
<use xlink:href="#stroke0_2737_339" transform="translate(137.856 195.297) scale(0.00937591) rotate(65.4112)"/>
<use xlink:href="#stroke0_2737_339" transform="translate(137.341 200.605) scale(0.0143175) rotate(-175.085)"/>
<use xlink:href="#stroke0_2737_339" transform="translate(127.526 199.837) scale(0.0212999) rotate(-54.3392)"/>
<use xlink:href="#stroke0_2737_339" transform="translate(129.302 196.381) scale(0.0163582) rotate(41.273)"/>
<use xlink:href="#stroke0_2737_339" transform="translate(124.249 203.644) scale(0.0172859) rotate(-98.9189)"/>
<use xlink:href="#stroke0_2737_339" transform="translate(121.642 203.114) scale(0.013685) rotate(-82.5139)"/>
<use xlink:href="#stroke0_2737_339" transform="translate(124.528 199.833) scale(0.0139832) rotate(95.0123)"/>
<use xlink:href="#stroke0_2737_339" transform="translate(121.497 197.105) scale(0.023952) rotate(72.9788)"/>
<use xlink:href="#stroke0_2737_339" transform="translate(115.7 207.189) scale(0.01977) rotate(-141.664)"/>
<use xlink:href="#stroke0_2737_339" transform="translate(113.268 205.224) scale(0.00978641) rotate(-147.826)"/>
<use xlink:href="#stroke0_2737_339" transform="translate(112.577 201.178) scale(0.0105763) rotate(80.8982)"/>
<use xlink:href="#stroke0_2737_339" transform="translate(112.231 202.703) scale(0.0137472) rotate(123.465)"/>
<use xlink:href="#stroke0_2737_339" transform="translate(104.781 199.677) scale(0.0171039) rotate(18.7219)"/>
<use xlink:href="#stroke0_2737_339" transform="translate(101.94 207.788) scale(0.0194553) rotate(-116.271)"/>
<use xlink:href="#stroke0_2737_339" transform="translate(98.5082 204.841) scale(0.0124715) rotate(-83.9562)"/>
<use xlink:href="#stroke0_2737_339" transform="translate(96.8264 201.552) scale(0.0117904) rotate(-0.370976)"/>
<use xlink:href="#stroke0_2737_339" transform="translate(95.2694 204.967) scale(0.0106275) rotate(-94.3663)"/>
<use xlink:href="#stroke0_2737_339" transform="translate(97.1638 205.756) scale(0.0170593) rotate(-175.021)"/>
<use xlink:href="#stroke0_2737_339" transform="translate(96.4193 202.971) scale(0.0215097) rotate(136.129)"/>
<use xlink:href="#stroke0_2737_339" transform="translate(89.7083 206.569) scale(0.0202504) rotate(-157.243)"/>
<use xlink:href="#stroke0_2737_339" transform="translate(85.5326 199.566) scale(0.0101508) rotate(46.661)"/>
<use xlink:href="#stroke0_2737_339" transform="translate(80.0609 201.809) scale(0.0145404) rotate(-52.1702)"/>
<use xlink:href="#stroke0_2737_339" transform="translate(80.6573 203.335) scale(0.0112387) rotate(-119.926)"/>
<use xlink:href="#stroke0_2737_339" transform="translate(79.7133 195.795) scale(0.0190078) rotate(54.3093)"/>
<use xlink:href="#stroke0_2737_339" transform="translate(77.3499 202.521) scale(0.0141396) rotate(-154.367)"/>
<use xlink:href="#stroke0_2737_339" transform="translate(73.2887 201.171) scale(0.0095916) rotate(-108.947)"/>
<use xlink:href="#stroke0_2737_339" transform="translate(75.5032 199.641) scale(0.0140824) rotate(159.41)"/>
<use xlink:href="#stroke0_2737_339" transform="translate(69.484 201.874) scale(0.0199589) rotate(-130.821)"/>
<use xlink:href="#stroke0_2737_339" transform="translate(64.4579 199.557) scale(0.0161992) rotate(-95.9545)"/>
<use xlink:href="#stroke0_2737_339" transform="translate(65.108 193.215) scale(0.00910598) rotate(43.4926)"/>
<use xlink:href="#stroke0_2737_339" transform="translate(63.6212 191.038) scale(0.015127) rotate(49.7801)"/>
<use xlink:href="#stroke0_2737_339" transform="translate(57.2343 190.079) scale(0.0203446) rotate(0.719046)"/>
<use xlink:href="#stroke0_2737_339" transform="translate(60.877 193.12) scale(0.0126766) rotate(148.499)"/>
<use xlink:href="#stroke0_2737_339" transform="translate(54.8871 194.768) scale(0.0166683) rotate(-119.628)"/>
<use xlink:href="#stroke0_2737_339" transform="translate(54.1555 186.366) scale(0.0149302) rotate(52.9547)"/>
<use xlink:href="#stroke0_2737_339" transform="translate(54.2086 188.864) scale(0.0102479) rotate(136.417)"/>
<use xlink:href="#stroke0_2737_339" transform="translate(44.348 188.907) scale(0.0234982) rotate(-64.7523)"/>
<use xlink:href="#stroke0_2737_339" transform="translate(44.542 186.031) scale(0.0103709) rotate(-48.7837)"/>
<use xlink:href="#stroke0_2737_339" transform="translate(45.4116 187.667) scale(0.0122807) rotate(-135.315)"/>
<use xlink:href="#stroke0_2737_339" transform="translate(46.2573 184.365) scale(0.0101187) rotate(154.744)"/>
<use xlink:href="#stroke0_2737_339" transform="translate(40.8693 180.833) scale(0.0105158) rotate(-1.97676)"/>
<use xlink:href="#stroke0_2737_339" transform="translate(44.7594 183.361) scale(0.0207115) rotate(162.904)"/>
<use xlink:href="#stroke0_2737_339" transform="translate(41.1008 175.264) scale(0.0208155) rotate(86.6919)"/>
<use xlink:href="#stroke0_2737_339" transform="translate(33.2505 178.117) scale(0.0122729) rotate(-70.4978)"/>
<use xlink:href="#stroke0_2737_339" transform="translate(35.7139 177.549) scale(0.00938834) rotate(-169.242)"/>
<use xlink:href="#stroke0_2737_339" transform="translate(32.6839 168.347) scale(0.0233925) rotate(45.7915)"/>
<use xlink:href="#stroke0_2737_339" transform="translate(32.5901 172.918) scale(0.00909603) rotate(170.319)"/>
<use xlink:href="#stroke0_2737_339" transform="translate(28.9026 168.128) scale(0.0112069) rotate(32.7126)"/>
<use xlink:href="#stroke0_2737_339" transform="translate(29.828 171.648) scale(0.0133398) rotate(-162.977)"/>
<use xlink:href="#stroke0_2737_339" transform="translate(24.5873 161.171) scale(0.0244119) rotate(28.4045)"/>
<use xlink:href="#stroke0_2737_339" transform="translate(24.6154 166.81) scale(0.0112456) rotate(-138.276)"/>
<use xlink:href="#stroke0_2737_339" transform="translate(25.9682 166.528) scale(0.0245666) rotate(-173.955)"/>
<use xlink:href="#stroke0_2737_339" transform="translate(23.3721 160.91) scale(0.0123031) rotate(169.978)"/>
<use xlink:href="#stroke0_2737_339" transform="translate(17.4764 155.206) scale(0.0136723) rotate(2.24714)"/>
<use xlink:href="#stroke0_2737_339" transform="translate(19.6387 159.053) scale(0.0167326) rotate(-153.467)"/>
<use xlink:href="#stroke0_2737_339" transform="translate(19.4086 153.251) scale(0.00976881) rotate(127.072)"/>
<use xlink:href="#stroke0_2737_339" transform="translate(15.1704 147.725) scale(0.0168711) rotate(29.7735)"/>
<use xlink:href="#stroke0_2737_339" transform="translate(13.1314 147.982) scale(0.0103625) rotate(-2.01095)"/>
<use xlink:href="#stroke0_2737_339" transform="translate(10.0185 150.337) scale(0.0202318) rotate(-84.3048)"/>
<use xlink:href="#stroke0_2737_339" transform="translate(13.8972 147.127) scale(0.0102705) rotate(-167.596)"/>
<use xlink:href="#stroke0_2737_339" transform="translate(9.08816 143.333) scale(0.0116287) rotate(-43.1633)"/>
<use xlink:href="#stroke0_2737_339" transform="translate(11.1081 138.085) scale(0.0144156) rotate(46.8643)"/>
<use xlink:href="#stroke0_2737_339" transform="translate(10.6355 141.944) scale(0.0111639) rotate(-138.46)"/>
<use xlink:href="#stroke0_2737_339" transform="translate(10.4429 140.046) scale(0.010452) rotate(-157.207)"/>
<use xlink:href="#stroke0_2737_339" transform="translate(13.6459 132.573) scale(0.0235349) rotate(107.456)"/>
<use xlink:href="#stroke0_2737_339" transform="translate(5.16281 131.016) scale(0.0122294) rotate(-20.3655)"/>
<use xlink:href="#stroke0_2737_339" transform="translate(10.1253 129.949) scale(0.0120116) rotate(127.975)"/>
<use xlink:href="#stroke0_2737_339" transform="translate(2.38567 127.585) scale(0.0193796) rotate(-44.6919)"/>
<use xlink:href="#stroke0_2737_339" transform="translate(7.03718 128.268) scale(0.01474) rotate(-147.907)"/>
<use xlink:href="#stroke0_2737_339" transform="translate(6.54416 116.42) scale(0.0236588) rotate(56.394)"/>
<use xlink:href="#stroke0_2737_339" transform="translate(5.51518 121.288) scale(0.00970671) rotate(-147.612)"/>
<use xlink:href="#stroke0_2737_339" transform="translate(6.00473 113.279) scale(0.016891) rotate(67.2273)"/>
<use xlink:href="#stroke0_2737_339" transform="translate(3.8556 110.632) scale(0.0154571) rotate(39.0902)"/>
<use xlink:href="#stroke0_2737_339" transform="translate(3.09007 116.277) scale(0.0224619) rotate(-126.877)"/>
<use xlink:href="#stroke0_2737_339" transform="translate(8.58892 109.463) scale(0.0218312) rotate(158.235)"/>
<use xlink:href="#stroke0_2737_339" transform="translate(1.38906 102.43) scale(0.0134514) rotate(-5.56297)"/>
<use xlink:href="#stroke0_2737_339" transform="translate(7.8067 100.832) scale(0.0175099) rotate(119.57)"/>
<use xlink:href="#stroke0_2737_339" transform="translate(5.33849 95.4052) scale(0.0170501) rotate(70.338)"/>
<use xlink:href="#stroke0_2737_339" transform="translate(0.870964 97.45) scale(0.0126827) rotate(-64.2944)"/>
<use xlink:href="#stroke0_2737_339" transform="translate(6.81405 92.2174) scale(0.0139862) rotate(94.0931)"/>
<use xlink:href="#stroke0_2737_339" transform="translate(6.98557 92.9146) scale(0.0116433) rotate(149.69)"/>
<use xlink:href="#stroke0_2737_339" transform="translate(2.30501 90.091) scale(0.0104905) rotate(-38.926)"/>
<use xlink:href="#stroke0_2737_339" transform="translate(7.80856 89.9302) scale(0.013281) rotate(162.973)"/>
<use xlink:href="#stroke0_2737_339" transform="translate(6.82236 88.6837) scale(0.0121611) rotate(-169.473)"/>
<use xlink:href="#stroke0_2737_339" transform="translate(6.26838 82.544) scale(0.00924258) rotate(66.1336)"/>
<use xlink:href="#stroke0_2737_339" transform="translate(5.31201 86.2868) scale(0.0166291) rotate(-126.713)"/>
<use xlink:href="#stroke0_2737_339" transform="translate(3.35081 79.8918) scale(0.0125383) rotate(-42.9312)"/>
<use xlink:href="#stroke0_2737_339" transform="translate(8.68687 82.5895) scale(0.024185) rotate(-150.549)"/>
<use xlink:href="#stroke0_2737_339" transform="translate(8.10907 68.0918) scale(0.0225828) rotate(42.5558)"/>
<use xlink:href="#stroke0_2737_339" transform="translate(8.50538 68.0033) scale(0.0112194) rotate(36.1318)"/>
<use xlink:href="#stroke0_2737_339" transform="translate(9.29682 65.0529) scale(0.0150998) rotate(37.8237)"/>
<use xlink:href="#stroke0_2737_339" transform="translate(13.0615 67.4689) scale(0.0106487) rotate(153.48)"/>
<use xlink:href="#stroke0_2737_339" transform="translate(7.56804 61.8904) scale(0.0208459) rotate(-16.4078)"/>
<use xlink:href="#stroke0_2737_339" transform="translate(14.0962 66.2116) scale(0.0223951) rotate(-143.835)"/>
<use xlink:href="#stroke0_2737_339" transform="translate(14.8675 56.3403) scale(0.00957449) rotate(61.972)"/>
<use xlink:href="#stroke0_2737_339" transform="translate(16.5033 59.2908) scale(0.0122395) rotate(-167.214)"/>
<use xlink:href="#stroke0_2737_339" transform="translate(17.3214 52.9671) scale(0.0110457) rotate(76.8677)"/>
<use xlink:href="#stroke0_2737_339" transform="translate(19.6764 51.6724) scale(0.0133438) rotate(98.5413)"/>
<use xlink:href="#stroke0_2737_339" transform="translate(16.3506 53.3605) scale(0.00946615) rotate(-96.2812)"/>
<use xlink:href="#stroke0_2737_339" transform="translate(20.8661 50.8466) scale(0.00928999) rotate(145.72)"/>
<use xlink:href="#stroke0_2737_339" transform="translate(17.6002 52.9136) scale(0.0233482) rotate(-108.18)"/>
<use xlink:href="#stroke0_2737_339" transform="translate(20.8408 48.0472) scale(0.0102584) rotate(-109.367)"/>
<use xlink:href="#stroke0_2737_339" transform="translate(25.171 45.7988) scale(0.0103592) rotate(163.551)"/>
<use xlink:href="#stroke0_2737_339" transform="translate(24.8584 41.2472) scale(0.00922715) rotate(75.3798)"/>
<use xlink:href="#stroke0_2737_339" transform="translate(25.5348 39.9855) scale(0.00910934) rotate(64.0779)"/>
<use xlink:href="#stroke0_2737_339" transform="translate(24.5838 43.2536) scale(0.0131879) rotate(-111.474)"/>
<use xlink:href="#stroke0_2737_339" transform="translate(25.9959 43.5683) scale(0.0244478) rotate(-113.834)"/>
<use xlink:href="#stroke0_2737_339" transform="translate(32.4483 35.3127) scale(0.011271) rotate(122.873)"/>
<use xlink:href="#stroke0_2737_339" transform="translate(31.8838 38.0551) scale(0.0157456) rotate(-140.061)"/>
<use xlink:href="#stroke0_2737_339" transform="translate(30.9733 35.0836) scale(0.0149545) rotate(-93.7349)"/>
<use xlink:href="#stroke0_2737_339" transform="translate(35.526 29.1399) scale(0.00914612) rotate(63.6475)"/>
<use xlink:href="#stroke0_2737_339" transform="translate(36.7525 27.3615) scale(0.0112154) rotate(63.0934)"/>
<use xlink:href="#stroke0_2737_339" transform="translate(41.362 29.5928) scale(0.0166141) rotate(152.907)"/>
<use xlink:href="#stroke0_2737_339" transform="translate(43.6518 26.6687) scale(0.016452) rotate(135.238)"/>
<use xlink:href="#stroke0_2737_339" transform="translate(40.3348 21.3921) scale(0.0153306) rotate(22.2525)"/>
<use xlink:href="#stroke0_2737_339" transform="translate(46.5009 19.356) scale(0.0193006) rotate(75.447)"/>
<use xlink:href="#stroke0_2737_339" transform="translate(43.9282 16.2706) scale(0.0227958) rotate(12.3951)"/>
<use xlink:href="#stroke0_2737_339" transform="translate(48.5598 22.0579) scale(0.0127096) rotate(-122.97)"/>
<use xlink:href="#stroke0_2737_339" transform="translate(49.1994 16.321) scale(0.0128566) rotate(-0.0495247)"/>
<use xlink:href="#stroke0_2737_339" transform="translate(50.5009 16.5487) scale(0.00913988) rotate(-32.2248)"/>
<use xlink:href="#stroke0_2737_339" transform="translate(58.6373 16.7252) scale(0.0169771) rotate(139.804)"/>
<use xlink:href="#stroke0_2737_339" transform="translate(54.131 14.3375) scale(0.0107887) rotate(-31.096)"/>
<use xlink:href="#stroke0_2737_339" transform="translate(54.3542 13.8133) scale(0.0184786) rotate(-46.8913)"/>
<use xlink:href="#stroke0_2737_339" transform="translate(62.4396 14.7831) scale(0.00927) rotate(-178.003)"/>
<use xlink:href="#stroke0_2737_339" transform="translate(60.2021 15.9219) scale(0.0211325) rotate(-98.0035)"/>
<use xlink:href="#stroke0_2737_339" transform="translate(63.8832 13.0775) scale(0.0124753) rotate(-95.4093)"/>
<use xlink:href="#stroke0_2737_339" transform="translate(64.4484 10.5091) scale(0.014621) rotate(-56.5387)"/>
<use xlink:href="#stroke0_2737_339" transform="translate(70.6334 7.02942) scale(0.0109117) rotate(60.2578)"/>
<use xlink:href="#stroke0_2737_339" transform="translate(72.3657 10.9904) scale(0.0107997) rotate(-154.905)"/>
<use xlink:href="#stroke0_2737_339" transform="translate(74.9916 9.62118) scale(0.00969978) rotate(172.396)"/>
<use xlink:href="#stroke0_2737_339" transform="translate(72.6533 9.53144) scale(0.0126546) rotate(-83.2701)"/>
<use xlink:href="#stroke0_2737_339" transform="translate(78.9084 4.92325) scale(0.012572) rotate(84.2302)"/>
<use xlink:href="#stroke0_2737_339" transform="translate(77.9994 8.83688) scale(0.0101576) rotate(-115.277)"/>
<use xlink:href="#stroke0_2737_339" transform="translate(78.557 4.1059) scale(0.0111439) rotate(-2.96774)"/>
<use xlink:href="#stroke0_2737_339" transform="translate(81.3693 7.93954) scale(0.0105067) rotate(-114.158)"/>
<use xlink:href="#stroke0_2737_339" transform="translate(87.0256 2.53764) scale(0.0160714) rotate(87.4735)"/>
<use xlink:href="#stroke0_2737_339" transform="translate(83.1272 5.58453) scale(0.0180613) rotate(-61.4157)"/>
<use xlink:href="#stroke0_2737_339" transform="translate(87.4428 5.66523) scale(0.0106169) rotate(-74.7565)"/>
<use xlink:href="#stroke0_2737_339" transform="translate(90.2311 -1.21538) scale(0.0236487) rotate(21.0332)"/>
<use xlink:href="#stroke0_2737_339" transform="translate(94.2401 -0.363772) scale(0.0178784) rotate(21.57)"/>
<use xlink:href="#stroke0_2737_339" transform="translate(93.9015 3.5571) scale(0.0229777) rotate(-44.9069)"/>
<use xlink:href="#stroke0_2737_339" transform="translate(105.606 0.970706) scale(0.0162433) rotate(98.439)"/>
<use xlink:href="#stroke0_2737_339" transform="translate(108.466 1.74092) scale(0.0157174) rotate(106.973)"/>
<use xlink:href="#stroke0_2737_339" transform="translate(111.622 2.44322) scale(0.016345) rotate(122.676)"/>
<use xlink:href="#stroke0_2737_339" transform="translate(106.718 3.09757) scale(0.0169268) rotate(-36.7917)"/>
<use xlink:href="#stroke0_2737_339" transform="translate(110.044 4.29862) scale(0.0132065) rotate(-51.475)"/>
<use xlink:href="#stroke0_2737_339" transform="translate(116.829 5.62746) scale(0.00980759) rotate(172.04)"/>
<use xlink:href="#stroke0_2737_339" transform="translate(118.44 2.89517) scale(0.009548) rotate(98.0416)"/>
<use xlink:href="#stroke0_2737_339" transform="translate(118.942 1.86946) scale(0.0110389) rotate(57.6744)"/>
<use xlink:href="#stroke0_2737_339" transform="translate(120.313 9.10329) scale(0.017555) rotate(-130.944)"/>
<use xlink:href="#stroke0_2737_339" transform="translate(120.445 6.84093) scale(0.0127748) rotate(-72.0814)"/>
<use xlink:href="#stroke0_2737_339" transform="translate(128.068 5.25094) scale(0.0122258) rotate(127.34)"/>
<use xlink:href="#stroke0_2737_339" transform="translate(127.94 10.2393) scale(0.0177397) rotate(-139.347)"/>
<use xlink:href="#stroke0_2737_339" transform="translate(134.266 5.55223) scale(0.0178056) rotate(110.835)"/>
<use xlink:href="#stroke0_2737_339" transform="translate(134.223 9.09328) scale(0.00929036) rotate(179.514)"/>
<use xlink:href="#stroke0_2737_339" transform="translate(132.485 6.52522) scale(0.00976161) rotate(-4.75868)"/>
<use xlink:href="#stroke0_2737_339" transform="translate(134.088 10.3226) scale(0.00937189) rotate(-90.6725)"/>
<use xlink:href="#stroke0_2737_339" transform="translate(135.023 7.00106) scale(0.014664) rotate(-3.73643)"/>
<use xlink:href="#stroke0_2737_339" transform="translate(139.57 11.9818) scale(0.00946978) rotate(-136.408)"/>
<use xlink:href="#stroke0_2737_339" transform="translate(137.477 8.3357) scale(0.022053) rotate(-13.6667)"/>
<use xlink:href="#stroke0_2737_339" transform="translate(141.83 10.687) scale(0.0134083) rotate(-16.3761)"/>
<use xlink:href="#stroke0_2737_339" transform="translate(145.665 16.3422) scale(0.0158855) rotate(-115.366)"/>
<use xlink:href="#stroke0_2737_339" transform="translate(150.145 12.662) scale(0.00907262) rotate(89.5213)"/>
<use xlink:href="#stroke0_2737_339" transform="translate(152.002 15.7695) scale(0.00940333) rotate(166.557)"/>
<use xlink:href="#stroke0_2737_339" transform="translate(149.263 14.4307) scale(0.0109412) rotate(-22.5857)"/>
<use xlink:href="#stroke0_2737_339" transform="translate(150.408 20.4306) scale(0.0209264) rotate(-91.4559)"/>
<use xlink:href="#stroke0_2737_339" transform="translate(162.194 20.8172) scale(0.0236588) rotate(156.517)"/>
<use xlink:href="#stroke0_2737_339" transform="translate(159.112 17.6947) scale(0.0105495) rotate(33.651)"/>
<use xlink:href="#stroke0_2737_339" transform="translate(164.496 21.6989) scale(0.014701) rotate(134.884)"/>
<use xlink:href="#stroke0_2737_339" transform="translate(161.887 18.4069) scale(0.0229386) rotate(25.6974)"/>
<use xlink:href="#stroke0_2737_339" transform="translate(165.512 28.0881) scale(0.0128824) rotate(-124.531)"/>
<use xlink:href="#stroke0_2737_339" transform="translate(165.169 26.6995) scale(0.00936085) rotate(-50.3596)"/>
<use xlink:href="#stroke0_2737_339" transform="translate(168.001 23.0899) scale(0.0227436) rotate(28.8986)"/>
<use xlink:href="#stroke0_2737_339" transform="translate(175.317 31.1293) scale(0.0151569) rotate(150.187)"/>
<use xlink:href="#stroke0_2737_339" transform="translate(178.309 29.1222) scale(0.0228874) rotate(95.9826)"/>
<use xlink:href="#stroke0_2737_339" transform="translate(178.792 38.177) scale(0.0174426) rotate(-170.278)"/>
<use xlink:href="#stroke0_2737_339" transform="translate(175.353 34.3076) scale(0.0176093) rotate(-8.02783)"/>
<use xlink:href="#stroke0_2737_339" transform="translate(181.541 36.5481) scale(0.0120251) rotate(77.7036)"/>
<use xlink:href="#stroke0_2737_339" transform="translate(178.813 39.9547) scale(0.0111833) rotate(-39.7277)"/>
<use xlink:href="#stroke0_2737_339" transform="translate(187.04 40.767) scale(0.0188603) rotate(114.599)"/>
<use xlink:href="#stroke0_2737_339" transform="translate(182.055 45.2591) scale(0.0112802) rotate(-69.3056)"/>
<use xlink:href="#stroke0_2737_339" transform="translate(183.998 47.8846) scale(0.0108607) rotate(-101.405)"/>
<use xlink:href="#stroke0_2737_339" transform="translate(187.643 45.7417) scale(0.00918928) rotate(87.6419)"/>
<use xlink:href="#stroke0_2737_339" transform="translate(185.976 45.723) scale(0.014939) rotate(21.9924)"/>
<use xlink:href="#stroke0_2737_339" transform="translate(186.563 52.6506) scale(0.011915) rotate(-88.2983)"/>
<use xlink:href="#stroke0_2737_339" transform="translate(185.951 56.4593) scale(0.0235492) rotate(-82.5137)"/>
<use xlink:href="#stroke0_2737_339" transform="translate(190.269 53.8309) scale(0.00946947) rotate(11.9482)"/>
<use xlink:href="#stroke0_2737_339" transform="translate(198.389 58.8101) scale(0.0241308) rotate(140.938)"/>
<use xlink:href="#stroke0_2737_339" transform="translate(195.996 58.4853) scale(0.0116679) rotate(80.3335)"/>
<use xlink:href="#stroke0_2737_339" transform="translate(194.655 65.2873) scale(0.0123546) rotate(-122.576)"/>
<use xlink:href="#stroke0_2737_339" transform="translate(194.701 66.9327) scale(0.0110777) rotate(-116.117)"/>
<use xlink:href="#stroke0_2737_339" transform="translate(200.745 70.0276) scale(0.0211521) rotate(174.914)"/>
<use xlink:href="#stroke0_2737_339" transform="translate(196.338 67.3534) scale(0.0102251) rotate(11.1721)"/>
<use xlink:href="#stroke0_2737_339" transform="translate(198.07 73.0414) scale(0.0098387) rotate(-122.957)"/>
<use xlink:href="#stroke0_2737_339" transform="translate(194.647 70.804) scale(0.0219586) rotate(-14.9261)"/>
<use xlink:href="#stroke0_2737_339" transform="translate(202.068 82.2481) scale(0.0235942) rotate(-153.853)"/>
<use xlink:href="#stroke0_2737_339" transform="translate(204.788 78.8626) scale(0.0171366) rotate(112.85)"/>
<use xlink:href="#stroke0_2737_339" transform="translate(207.233 84.0464) scale(0.0233991) rotate(138.667)"/>
<use xlink:href="#stroke0_2737_339" transform="translate(203.108 89.0342) scale(0.0114566) rotate(-153.463)"/>
<use xlink:href="#stroke0_2737_339" transform="translate(203.852 85.3662) scale(0.0152257) rotate(65.313)"/>
<use xlink:href="#stroke0_2737_339" transform="translate(205.464 90.6234) scale(0.0106921) rotate(130.003)"/>
<use xlink:href="#stroke0_2737_339" transform="translate(203.173 95.1618) scale(0.0109088) rotate(-138.015)"/>
<use xlink:href="#stroke0_2737_339" transform="translate(201.112 93.3466) scale(0.0101045) rotate(-20.5814)"/>
<use xlink:href="#stroke0_2737_339" transform="translate(208.974 98.6579) scale(0.0235294) rotate(150.428)"/>
<use xlink:href="#stroke0_2737_339" transform="translate(205.238 102.754) scale(0.012587) rotate(-162.776)"/>
<use xlink:href="#stroke0_2737_339" transform="translate(204.374 104.107) scale(0.00972774) rotate(-158.049)"/>
<use xlink:href="#stroke0_2737_339" transform="translate(205.377 104.998) scale(0.0108018) rotate(175.029)"/>
<path d="M42.7132 129.961L65.9452 101.977H36.2812V95.7371H75.1612V102.025L51.9772 129.961H42.7132ZM116.962 130.009C111.97 130.009 108.098 128.505 105.346 125.497C102.594 122.457 101.218 118.217 101.218 112.777C101.218 106.857 102.93 102.521 106.354 99.7691C109.81 97.0171 114.626 95.6411 120.802 95.6411H140.146V101.881H121.33C117.842 101.881 115.074 102.473 113.026 103.657C111.01 104.809 109.762 106.841 109.282 109.753H131.698C135.25 109.753 138.05 110.649 140.098 112.441C142.146 114.201 143.17 116.649 143.17 119.785C143.17 123.017 142.146 125.529 140.098 127.321C138.05 129.113 135.25 130.009 131.698 130.009H116.962ZM117.49 123.769H130.21C131.97 123.769 133.33 123.449 134.29 122.809C135.25 122.137 135.73 121.145 135.73 119.833C135.73 118.553 135.25 117.593 134.29 116.953C133.33 116.313 131.97 115.993 130.21 115.993H109.282C110.018 121.177 112.754 123.769 117.49 123.769Z" fill="#FFEC5F"/>
<path d="M83.3781 114.221H93.7981V115.681H83.3781V114.221ZM83.3781 119.041H93.8981V120.461H83.3781V119.041ZM83.2181 123.861H93.7981V125.321H83.2181V123.861ZM82.4381 114.221H83.9581V120.381C83.9581 121.248 83.9114 122.174 83.8181 123.161C83.7381 124.148 83.5648 125.148 83.2981 126.161C83.0314 127.161 82.6314 128.128 82.0981 129.061C81.5781 129.994 80.8848 130.834 80.0181 131.581C79.9514 131.474 79.8448 131.348 79.6981 131.201C79.5648 131.054 79.4248 130.914 79.2781 130.781C79.1314 130.661 78.9981 130.568 78.8781 130.501C79.6914 129.781 80.3314 129.008 80.7981 128.181C81.2781 127.341 81.6314 126.474 81.8581 125.581C82.0981 124.688 82.2514 123.801 82.3181 122.921C82.3981 122.028 82.4381 121.181 82.4381 120.381V114.221ZM93.1381 114.221H94.7181V129.341C94.7181 129.874 94.6381 130.281 94.4781 130.561C94.3181 130.841 94.0514 131.048 93.6781 131.181C93.2914 131.314 92.7514 131.394 92.0581 131.421C91.3648 131.461 90.4848 131.481 89.4181 131.481C89.3914 131.321 89.3381 131.148 89.2581 130.961C89.1914 130.774 89.1114 130.581 89.0181 130.381C88.9381 130.194 88.8581 130.034 88.7781 129.901C89.3381 129.914 89.8714 129.928 90.3781 129.941C90.8981 129.941 91.3448 129.941 91.7181 129.941C92.1048 129.928 92.3714 129.921 92.5181 129.921C92.7581 129.908 92.9181 129.861 92.9981 129.781C93.0914 129.688 93.1381 129.534 93.1381 129.321V114.221ZM150.546 114.521H163.666V131.241H162.066V116.021H152.086V131.341H150.546V114.521ZM151.586 121.441H162.746V122.921H151.586V121.441ZM151.546 128.541H162.766V130.041H151.546V128.541Z" fill="white"/>
<mask id="path-5-outside-1_2737_339" maskUnits="userSpaceOnUse" x="46.3113" y="65.9602" width="110" height="20" fill="black">
<rect fill="white" x="46.3113" y="65.9602" width="110" height="20"/>
<path d="M47.0363 83.9602V79.7202C47.0363 78.3869 47.4096 77.3535 48.1563 76.6202C48.9029 75.8869 49.9896 75.5202 51.4163 75.5202H57.9963C59.2629 75.5202 59.8963 74.9802 59.8963 73.9002C59.8963 72.8202 59.2629 72.2802 57.9963 72.2802H47.3563V69.6802H58.6163C60.0029 69.6802 61.0763 70.0535 61.8363 70.8002C62.6096 71.5469 62.9963 72.5802 62.9963 73.9002C62.9963 75.2202 62.6096 76.2535 61.8363 77.0002C61.0763 77.7469 60.0029 78.1202 58.6163 78.1202H51.8563C51.2829 78.1202 50.8496 78.2669 50.5563 78.5602C50.2763 78.8402 50.1363 79.2402 50.1363 79.7602V81.3802H62.6163V83.9602H47.0363ZM76.5642 84.0602C73.9909 84.0602 71.9842 83.4535 70.5442 82.2402C69.1176 81.0135 68.4042 79.2002 68.4042 76.8002C68.4042 74.4135 69.1176 72.6135 70.5442 71.4002C71.9842 70.1735 73.9909 69.5602 76.5642 69.5602H79.1642C81.7509 69.5602 83.7576 70.1735 85.1842 71.4002C86.6109 72.6135 87.3242 74.4135 87.3242 76.8002C87.3242 79.2002 86.6109 81.0135 85.1842 82.2402C83.7576 83.4535 81.7509 84.0602 79.1642 84.0602H76.5642ZM71.6642 76.8002C71.6642 78.2535 72.0176 79.3602 72.7242 80.1202L80.5642 72.3002C80.0842 72.2069 79.5442 72.1602 78.9442 72.1602H76.7842C75.1042 72.1602 73.8309 72.5269 72.9642 73.2602C72.0976 73.9935 71.6642 75.1735 71.6642 76.8002ZM76.7842 81.4602H78.9442C80.6242 81.4602 81.8976 81.0935 82.7642 80.3602C83.6309 79.6135 84.0642 78.4269 84.0642 76.8002C84.0642 75.3469 83.7042 74.2402 82.9842 73.4802L75.1242 81.3202C75.6176 81.4135 76.1709 81.4602 76.7842 81.4602ZM92.7316 83.9602V79.7202C92.7316 78.3869 93.1049 77.3535 93.8516 76.6202C94.5983 75.8869 95.6849 75.5202 97.1116 75.5202H103.692C104.958 75.5202 105.592 74.9802 105.592 73.9002C105.592 72.8202 104.958 72.2802 103.692 72.2802H93.0516V69.6802H104.312C105.698 69.6802 106.772 70.0535 107.532 70.8002C108.305 71.5469 108.692 72.5802 108.692 73.9002C108.692 75.2202 108.305 76.2535 107.532 77.0002C106.772 77.7469 105.698 78.1202 104.312 78.1202H97.5516C96.9783 78.1202 96.5449 78.2669 96.2516 78.5602C95.9716 78.8402 95.8316 79.2402 95.8316 79.7602V81.3802H108.312V83.9602H92.7316ZM120.66 83.9802C118.58 83.9802 116.966 83.3535 115.82 82.1002C114.673 80.8335 114.1 79.0669 114.1 76.8002C114.1 74.3335 114.813 72.5269 116.24 71.3802C117.68 70.2335 119.686 69.6602 122.26 69.6602H130.32V72.2602H122.48C121.026 72.2602 119.873 72.5069 119.02 73.0002C118.18 73.4802 117.66 74.3269 117.46 75.5402H126.8C128.28 75.5402 129.446 75.9135 130.3 76.6602C131.153 77.3935 131.58 78.4135 131.58 79.7202C131.58 81.0669 131.153 82.1135 130.3 82.8602C129.446 83.6069 128.28 83.9802 126.8 83.9802H120.66ZM120.88 81.3802H126.18C126.913 81.3802 127.48 81.2469 127.88 80.9802C128.28 80.7002 128.48 80.2869 128.48 79.7402C128.48 79.2069 128.28 78.8069 127.88 78.5402C127.48 78.2735 126.913 78.1402 126.18 78.1402H117.46C117.766 80.3002 118.906 81.3802 120.88 81.3802ZM141.726 67.0802L143.246 67.4802C142.873 68.4535 142.433 69.4069 141.926 70.3402C141.433 71.2602 140.893 72.1202 140.306 72.9202C139.72 73.7069 139.113 74.4002 138.486 75.0002C138.393 74.9202 138.266 74.8202 138.106 74.7002C137.96 74.5669 137.8 74.4402 137.626 74.3202C137.466 74.2002 137.32 74.1069 137.186 74.0402C137.826 73.4802 138.426 72.8402 138.986 72.1202C139.56 71.3869 140.08 70.5935 140.546 69.7402C141.013 68.8735 141.406 67.9869 141.726 67.0802ZM141.426 69.5802H154.326V71.0202H140.686L141.426 69.5802ZM140.446 74.1002H153.866V75.5202H141.946V80.2402H140.446V74.1002ZM137.146 79.5002H155.266V80.9402H137.146V79.5002ZM146.426 70.3402H147.966V85.5602H146.426V70.3402Z"/>
</mask>
<path d="M47.0363 83.9602V79.7202C47.0363 78.3869 47.4096 77.3535 48.1563 76.6202C48.9029 75.8869 49.9896 75.5202 51.4163 75.5202H57.9963C59.2629 75.5202 59.8963 74.9802 59.8963 73.9002C59.8963 72.8202 59.2629 72.2802 57.9963 72.2802H47.3563V69.6802H58.6163C60.0029 69.6802 61.0763 70.0535 61.8363 70.8002C62.6096 71.5469 62.9963 72.5802 62.9963 73.9002C62.9963 75.2202 62.6096 76.2535 61.8363 77.0002C61.0763 77.7469 60.0029 78.1202 58.6163 78.1202H51.8563C51.2829 78.1202 50.8496 78.2669 50.5563 78.5602C50.2763 78.8402 50.1363 79.2402 50.1363 79.7602V81.3802H62.6163V83.9602H47.0363ZM76.5642 84.0602C73.9909 84.0602 71.9842 83.4535 70.5442 82.2402C69.1176 81.0135 68.4042 79.2002 68.4042 76.8002C68.4042 74.4135 69.1176 72.6135 70.5442 71.4002C71.9842 70.1735 73.9909 69.5602 76.5642 69.5602H79.1642C81.7509 69.5602 83.7576 70.1735 85.1842 71.4002C86.6109 72.6135 87.3242 74.4135 87.3242 76.8002C87.3242 79.2002 86.6109 81.0135 85.1842 82.2402C83.7576 83.4535 81.7509 84.0602 79.1642 84.0602H76.5642ZM71.6642 76.8002C71.6642 78.2535 72.0176 79.3602 72.7242 80.1202L80.5642 72.3002C80.0842 72.2069 79.5442 72.1602 78.9442 72.1602H76.7842C75.1042 72.1602 73.8309 72.5269 72.9642 73.2602C72.0976 73.9935 71.6642 75.1735 71.6642 76.8002ZM76.7842 81.4602H78.9442C80.6242 81.4602 81.8976 81.0935 82.7642 80.3602C83.6309 79.6135 84.0642 78.4269 84.0642 76.8002C84.0642 75.3469 83.7042 74.2402 82.9842 73.4802L75.1242 81.3202C75.6176 81.4135 76.1709 81.4602 76.7842 81.4602ZM92.7316 83.9602V79.7202C92.7316 78.3869 93.1049 77.3535 93.8516 76.6202C94.5983 75.8869 95.6849 75.5202 97.1116 75.5202H103.692C104.958 75.5202 105.592 74.9802 105.592 73.9002C105.592 72.8202 104.958 72.2802 103.692 72.2802H93.0516V69.6802H104.312C105.698 69.6802 106.772 70.0535 107.532 70.8002C108.305 71.5469 108.692 72.5802 108.692 73.9002C108.692 75.2202 108.305 76.2535 107.532 77.0002C106.772 77.7469 105.698 78.1202 104.312 78.1202H97.5516C96.9783 78.1202 96.5449 78.2669 96.2516 78.5602C95.9716 78.8402 95.8316 79.2402 95.8316 79.7602V81.3802H108.312V83.9602H92.7316ZM120.66 83.9802C118.58 83.9802 116.966 83.3535 115.82 82.1002C114.673 80.8335 114.1 79.0669 114.1 76.8002C114.1 74.3335 114.813 72.5269 116.24 71.3802C117.68 70.2335 119.686 69.6602 122.26 69.6602H130.32V72.2602H122.48C121.026 72.2602 119.873 72.5069 119.02 73.0002C118.18 73.4802 117.66 74.3269 117.46 75.5402H126.8C128.28 75.5402 129.446 75.9135 130.3 76.6602C131.153 77.3935 131.58 78.4135 131.58 79.7202C131.58 81.0669 131.153 82.1135 130.3 82.8602C129.446 83.6069 128.28 83.9802 126.8 83.9802H120.66ZM120.88 81.3802H126.18C126.913 81.3802 127.48 81.2469 127.88 80.9802C128.28 80.7002 128.48 80.2869 128.48 79.7402C128.48 79.2069 128.28 78.8069 127.88 78.5402C127.48 78.2735 126.913 78.1402 126.18 78.1402H117.46C117.766 80.3002 118.906 81.3802 120.88 81.3802ZM141.726 67.0802L143.246 67.4802C142.873 68.4535 142.433 69.4069 141.926 70.3402C141.433 71.2602 140.893 72.1202 140.306 72.9202C139.72 73.7069 139.113 74.4002 138.486 75.0002C138.393 74.9202 138.266 74.8202 138.106 74.7002C137.96 74.5669 137.8 74.4402 137.626 74.3202C137.466 74.2002 137.32 74.1069 137.186 74.0402C137.826 73.4802 138.426 72.8402 138.986 72.1202C139.56 71.3869 140.08 70.5935 140.546 69.7402C141.013 68.8735 141.406 67.9869 141.726 67.0802ZM141.426 69.5802H154.326V71.0202H140.686L141.426 69.5802ZM140.446 74.1002H153.866V75.5202H141.946V80.2402H140.446V74.1002ZM137.146 79.5002H155.266V80.9402H137.146V79.5002ZM146.426 70.3402H147.966V85.5602H146.426V70.3402Z" fill="white"/>
<path d="M47.0363 83.9602H46.8363V84.1602H47.0363V83.9602ZM47.3563 72.2802H47.1563V72.4802H47.3563V72.2802ZM47.3563 69.6802V69.4802H47.1563V69.6802H47.3563ZM61.8363 70.8002L61.6961 70.9429L61.6974 70.9441L61.8363 70.8002ZM61.8363 77.0002L61.6974 76.8563L61.6961 76.8575L61.8363 77.0002ZM50.5563 78.5602L50.6977 78.7016V78.7016L50.5563 78.5602ZM50.1363 81.3802H49.9363V81.5802H50.1363V81.3802ZM62.6163 81.3802H62.8163V81.1802H62.6163V81.3802ZM62.6163 83.9602V84.1602H62.8163V83.9602H62.6163ZM47.0363 83.9602H47.2363V79.7202H47.0363H46.8363V83.9602H47.0363ZM47.0363 79.7202H47.2363C47.2363 78.4251 47.5978 77.449 48.2964 76.7629L48.1563 76.6202L48.0161 76.4775C47.2214 77.2581 46.8363 78.3487 46.8363 79.7202H47.0363ZM48.1563 76.6202L48.2964 76.7629C48.9938 76.078 50.0226 75.7202 51.4163 75.7202V75.5202V75.3202C49.9567 75.3202 48.8121 75.6958 48.0161 76.4775L48.1563 76.6202ZM51.4163 75.5202V75.7202H57.9963V75.5202V75.3202H51.4163V75.5202ZM57.9963 75.5202V75.7202C58.6533 75.7202 59.1834 75.5808 59.551 75.2674C59.9247 74.9488 60.0963 74.4801 60.0963 73.9002H59.8963H59.6963C59.6963 74.4003 59.5511 74.7416 59.2915 74.963C59.0258 75.1896 58.6059 75.3202 57.9963 75.3202V75.5202ZM59.8963 73.9002H60.0963C60.0963 73.3203 59.9247 72.8516 59.551 72.533C59.1834 72.2196 58.6533 72.0802 57.9963 72.0802V72.2802V72.4802C58.6059 72.4802 59.0258 72.6108 59.2915 72.8374C59.5511 73.0588 59.6963 73.4001 59.6963 73.9002H59.8963ZM57.9963 72.2802V72.0802H47.3563V72.2802V72.4802H57.9963V72.2802ZM47.3563 72.2802H47.5563V69.6802H47.3563H47.1563V72.2802H47.3563ZM47.3563 69.6802V69.8802H58.6163V69.6802V69.4802H47.3563V69.6802ZM58.6163 69.6802V69.8802C59.9669 69.8802 60.9838 70.243 61.6961 70.9429L61.8363 70.8002L61.9764 70.6575C61.1688 69.864 60.039 69.4802 58.6163 69.4802V69.6802ZM61.8363 70.8002L61.6974 70.9441C62.4231 71.6448 62.7963 72.6213 62.7963 73.9002H62.9963H63.1963C63.1963 72.5392 62.7961 71.449 61.9752 70.6563L61.8363 70.8002ZM62.9963 73.9002H62.7963C62.7963 75.1792 62.4231 76.1556 61.6974 76.8563L61.8363 77.0002L61.9752 77.1441C62.7961 76.3514 63.1963 75.2613 63.1963 73.9002H62.9963ZM61.8363 77.0002L61.6961 76.8575C60.9838 77.5574 59.9669 77.9202 58.6163 77.9202V78.1202V78.3202C60.039 78.3202 61.1688 77.9364 61.9764 77.1429L61.8363 77.0002ZM58.6163 78.1202V77.9202H51.8563V78.1202V78.3202H58.6163V78.1202ZM51.8563 78.1202V77.9202C51.2506 77.9202 50.7581 78.0755 50.4149 78.4188L50.5563 78.5602L50.6977 78.7016C50.9411 78.4582 51.3153 78.3202 51.8563 78.3202V78.1202ZM50.5563 78.5602L50.4149 78.4188C50.0867 78.7469 49.9363 79.2044 49.9363 79.7602H50.1363H50.3363C50.3363 79.276 50.4659 78.9335 50.6977 78.7016L50.5563 78.5602ZM50.1363 79.7602H49.9363V81.3802H50.1363H50.3363V79.7602H50.1363ZM50.1363 81.3802V81.5802H62.6163V81.3802V81.1802H50.1363V81.3802ZM62.6163 81.3802H62.4163V83.9602H62.6163H62.8163V81.3802H62.6163ZM62.6163 83.9602V83.7602H47.0363V83.9602V84.1602H62.6163V83.9602ZM70.5442 82.2402L70.4139 82.3919L70.4154 82.3932L70.5442 82.2402ZM70.5442 71.4002L70.6738 71.5526L70.6739 71.5525L70.5442 71.4002ZM85.1842 71.4002L85.0539 71.5519L85.0547 71.5526L85.1842 71.4002ZM85.1842 82.2402L85.3138 82.3926L85.3146 82.3919L85.1842 82.2402ZM72.7242 80.1202L72.5778 80.2564L72.7188 80.4081L72.8655 80.2618L72.7242 80.1202ZM80.5642 72.3002L80.7055 72.4418L80.9722 72.1758L80.6024 72.1039L80.5642 72.3002ZM72.9642 73.2602L72.8351 73.1075L72.9642 73.2602ZM82.7642 80.3602L82.8934 80.5129L82.8948 80.5117L82.7642 80.3602ZM82.9842 73.4802L83.1294 73.3427L82.9883 73.1937L82.843 73.3386L82.9842 73.4802ZM75.1242 81.3202L74.983 81.1786L74.7147 81.4463L75.0871 81.5167L75.1242 81.3202ZM76.5642 84.0602V83.8602C74.0208 83.8602 72.0657 83.2607 70.6731 82.0873L70.5442 82.2402L70.4154 82.3932C71.9028 83.6464 73.961 84.2602 76.5642 84.2602V84.0602ZM70.5442 82.2402L70.6746 82.0886C69.3038 80.9099 68.6042 79.1592 68.6042 76.8002H68.4042H68.2042C68.2042 79.2412 68.9314 81.1172 70.4139 82.3919L70.5442 82.2402ZM68.4042 76.8002H68.6042C68.6042 74.4548 69.3035 72.7179 70.6738 71.5526L70.5442 71.4002L70.4147 71.2479C68.9316 72.5091 68.2042 74.3722 68.2042 76.8002H68.4042ZM70.5442 71.4002L70.6739 71.5525C72.0665 70.3662 74.0213 69.7602 76.5642 69.7602V69.5602V69.3602C73.9605 69.3602 71.902 69.9809 70.4146 71.248L70.5442 71.4002ZM76.5642 69.5602V69.7602H79.1642V69.5602V69.3602H76.5642V69.5602ZM79.1642 69.5602V69.7602C81.721 69.7602 83.6751 70.3664 85.0539 71.5519L85.1842 71.4002L85.3146 71.2486C83.8401 69.9807 81.7808 69.3602 79.1642 69.3602V69.5602ZM85.1842 71.4002L85.0547 71.5526C86.425 72.7179 87.1242 74.4548 87.1242 76.8002H87.3242H87.5243C87.5243 74.3722 86.7969 72.5091 85.3138 71.2479L85.1842 71.4002ZM87.3242 76.8002H87.1242C87.1242 79.1592 86.4247 80.9099 85.0539 82.0886L85.1842 82.2402L85.3146 82.3919C86.7971 81.1172 87.5243 79.2412 87.5243 76.8002H87.3242ZM85.1842 82.2402L85.0547 82.0879C83.6759 83.2605 81.7215 83.8602 79.1642 83.8602V84.0602V84.2602C81.7804 84.2602 83.8393 83.6466 85.3138 82.3926L85.1842 82.2402ZM79.1642 84.0602V83.8602H76.5642V84.0602V84.2602H79.1642V84.0602ZM71.6642 76.8002H71.4642C71.4642 78.2838 71.825 79.4468 72.5778 80.2564L72.7242 80.1202L72.8707 79.984C72.2102 79.2736 71.8642 78.2233 71.8642 76.8002H71.6642ZM72.7242 80.1202L72.8655 80.2618L80.7055 72.4418L80.5642 72.3002L80.423 72.1586L72.583 79.9786L72.7242 80.1202ZM80.5642 72.3002L80.6024 72.1039C80.1074 72.0076 79.5543 71.9602 78.9442 71.9602V72.1602V72.3602C79.5342 72.3602 80.0611 72.4061 80.5261 72.4965L80.5642 72.3002ZM78.9442 72.1602V71.9602H76.7842V72.1602V72.3602H78.9442V72.1602ZM76.7842 72.1602V71.9602C75.079 71.9602 73.7517 72.3319 72.8351 73.1075L72.9642 73.2602L73.0934 73.4129C73.9101 72.7218 75.1295 72.3602 76.7842 72.3602V72.1602ZM72.9642 73.2602L72.8351 73.1075C71.9067 73.8931 71.4642 75.141 71.4642 76.8002H71.6642H71.8642C71.8642 75.206 72.2885 74.094 73.0934 73.4129L72.9642 73.2602ZM76.7842 81.4602V81.6602H78.9442V81.4602V81.2602H76.7842V81.4602ZM78.9442 81.4602V81.6602C80.6495 81.6602 81.9768 81.2885 82.8934 80.5129L82.7642 80.3602L82.6351 80.2075C81.8184 80.8986 80.599 81.2602 78.9442 81.2602V81.4602ZM82.7642 80.3602L82.8948 80.5117C83.8217 79.7132 84.2642 78.4597 84.2642 76.8002H84.0642H83.8643C83.8643 78.394 83.4401 79.5139 82.6337 80.2087L82.7642 80.3602ZM84.0642 76.8002H84.2642C84.2642 75.3158 83.8964 74.1522 83.1294 73.3427L82.9842 73.4802L82.8391 73.6178C83.5121 74.3282 83.8643 75.378 83.8643 76.8002H84.0642ZM82.9842 73.4802L82.843 73.3386L74.983 81.1786L75.1242 81.3202L75.2655 81.4618L83.1255 73.6218L82.9842 73.4802ZM75.1242 81.3202L75.0871 81.5167C75.595 81.6128 76.1611 81.6602 76.7842 81.6602V81.4602V81.2602C76.1808 81.2602 75.6402 81.2143 75.1614 81.1237L75.1242 81.3202ZM92.7316 83.9602H92.5316V84.1602H92.7316V83.9602ZM93.0516 72.2802H92.8516V72.4802H93.0516V72.2802ZM93.0516 69.6802V69.4802H92.8516V69.6802H93.0516ZM107.532 70.8002L107.391 70.9429L107.393 70.9441L107.532 70.8002ZM107.532 77.0002L107.393 76.8563L107.391 76.8575L107.532 77.0002ZM96.2516 78.5602L96.393 78.7016V78.7016L96.2516 78.5602ZM95.8316 81.3802H95.6316V81.5802H95.8316V81.3802ZM108.312 81.3802H108.512V81.1802H108.312V81.3802ZM108.312 83.9602V84.1602H108.512V83.9602H108.312ZM92.7316 83.9602H92.9316V79.7202H92.7316H92.5316V83.9602H92.7316ZM92.7316 79.7202H92.9316C92.9316 78.4251 93.2931 77.449 93.9917 76.7629L93.8516 76.6202L93.7114 76.4775C92.9167 77.2581 92.5316 78.3487 92.5316 79.7202H92.7316ZM93.8516 76.6202L93.9917 76.7629C94.6891 76.078 95.7179 75.7202 97.1116 75.7202V75.5202V75.3202C95.652 75.3202 94.5074 75.6958 93.7114 76.4775L93.8516 76.6202ZM97.1116 75.5202V75.7202H103.692V75.5202V75.3202H97.1116V75.5202ZM103.692 75.5202V75.7202C104.349 75.7202 104.879 75.5808 105.246 75.2674C105.62 74.9488 105.792 74.4801 105.792 73.9002H105.592H105.392C105.392 74.4003 105.246 74.7416 104.987 74.963C104.721 75.1896 104.301 75.3202 103.692 75.3202V75.5202ZM105.592 73.9002H105.792C105.792 73.3203 105.62 72.8516 105.246 72.533C104.879 72.2196 104.349 72.0802 103.692 72.0802V72.2802V72.4802C104.301 72.4802 104.721 72.6108 104.987 72.8374C105.246 73.0588 105.392 73.4001 105.392 73.9002H105.592ZM103.692 72.2802V72.0802H93.0516V72.2802V72.4802H103.692V72.2802ZM93.0516 72.2802H93.2516V69.6802H93.0516H92.8516V72.2802H93.0516ZM93.0516 69.6802V69.8802H104.312V69.6802V69.4802H93.0516V69.6802ZM104.312 69.6802V69.8802C105.662 69.8802 106.679 70.243 107.391 70.9429L107.532 70.8002L107.672 70.6575C106.864 69.864 105.734 69.4802 104.312 69.4802V69.6802ZM107.532 70.8002L107.393 70.9441C108.118 71.6448 108.492 72.6213 108.492 73.9002H108.692H108.892C108.892 72.5392 108.491 71.449 107.671 70.6563L107.532 70.8002ZM108.692 73.9002H108.492C108.492 75.1792 108.118 76.1556 107.393 76.8563L107.532 77.0002L107.671 77.1441C108.491 76.3514 108.892 75.2613 108.892 73.9002H108.692ZM107.532 77.0002L107.391 76.8575C106.679 77.5574 105.662 77.9202 104.312 77.9202V78.1202V78.3202C105.734 78.3202 106.864 77.9364 107.672 77.1429L107.532 77.0002ZM104.312 78.1202V77.9202H97.5516V78.1202V78.3202H104.312V78.1202ZM97.5516 78.1202V77.9202C96.9459 77.9202 96.4535 78.0755 96.1102 78.4188L96.2516 78.5602L96.393 78.7016C96.6364 78.4582 97.0106 78.3202 97.5516 78.3202V78.1202ZM96.2516 78.5602L96.1102 78.4188C95.782 78.7469 95.6316 79.2044 95.6316 79.7602H95.8316H96.0316C96.0316 79.276 96.1612 78.9335 96.393 78.7016L96.2516 78.5602ZM95.8316 79.7602H95.6316V81.3802H95.8316H96.0316V79.7602H95.8316ZM95.8316 81.3802V81.5802H108.312V81.3802V81.1802H95.8316V81.3802ZM108.312 81.3802H108.112V83.9602H108.312H108.512V81.3802H108.312ZM108.312 83.9602V83.7602H92.7316V83.9602V84.1602H108.312V83.9602ZM115.82 82.1002L115.671 82.2344L115.672 82.2352L115.82 82.1002ZM116.24 71.3802L116.115 71.2237L116.114 71.2243L116.24 71.3802ZM130.32 69.6602H130.52V69.4602H130.32V69.6602ZM130.32 72.2602V72.4602H130.52V72.2602H130.32ZM119.02 73.0002L119.119 73.1739L119.12 73.1734L119.02 73.0002ZM117.46 75.5402L117.262 75.5077L117.224 75.7402H117.46V75.5402ZM130.3 76.6602L130.168 76.8107L130.169 76.8119L130.3 76.6602ZM130.3 82.8602L130.431 83.0107L130.3 82.8602ZM127.88 80.9802L127.991 81.1467L127.994 81.1441L127.88 80.9802ZM127.88 78.5402L127.769 78.7066V78.7066L127.88 78.5402ZM117.46 78.1402V77.9402H117.229L117.262 78.1683L117.46 78.1402ZM120.66 83.9802V83.7802C118.622 83.7802 117.068 83.1681 115.967 81.9652L115.82 82.1002L115.672 82.2352C116.865 83.539 118.537 84.1802 120.66 84.1802V83.9802ZM115.82 82.1002L115.968 81.966C114.864 80.7467 114.3 79.0338 114.3 76.8002H114.1H113.9C113.9 79.1 114.482 80.9203 115.671 82.2344L115.82 82.1002ZM114.1 76.8002H114.3C114.3 74.3717 115.001 72.6327 116.365 71.5361L116.24 71.3802L116.114 71.2243C114.625 72.4211 113.9 74.2954 113.9 76.8002H114.1ZM116.24 71.3802L116.364 71.5367C117.757 70.4275 119.714 69.8602 122.26 69.8602V69.6602V69.4602C119.659 69.4602 117.602 70.0395 116.115 71.2237L116.24 71.3802ZM122.26 69.6602V69.8602H130.32V69.6602V69.4602H122.26V69.6602ZM130.32 69.6602H130.12V72.2602H130.32H130.52V69.6602H130.32ZM130.32 72.2602V72.0602H122.48V72.2602V72.4602H130.32V72.2602ZM122.48 72.2602V72.0602C121.007 72.0602 119.814 72.3097 118.919 72.8271L119.02 73.0002L119.12 73.1734C119.931 72.704 121.046 72.4602 122.48 72.4602V72.2602ZM119.02 73.0002L118.92 72.8266C118.014 73.3442 117.469 74.2524 117.262 75.5077L117.46 75.5402L117.657 75.5727C117.85 74.4013 118.345 73.6162 119.119 73.1739L119.02 73.0002ZM117.46 75.5402V75.7402H126.8V75.5402V75.3402H117.46V75.5402ZM126.8 75.5402V75.7402C128.246 75.7402 129.361 76.1047 130.168 76.8107L130.3 76.6602L130.431 76.5097C129.532 75.7224 128.313 75.3402 126.8 75.3402V75.5402ZM130.3 76.6602L130.169 76.8119C130.971 77.5009 131.38 78.4614 131.38 79.7202H131.58H131.78C131.78 78.3657 131.335 77.2862 130.43 76.5085L130.3 76.6602ZM131.58 79.7202H131.38C131.38 81.0211 130.97 82.0082 130.168 82.7097L130.3 82.8602L130.431 83.0107C131.336 82.2189 131.78 81.1127 131.78 79.7202H131.58ZM130.3 82.8602L130.168 82.7097C129.361 83.4158 128.246 83.7802 126.8 83.7802V83.9802V84.1802C128.313 84.1802 129.532 83.798 130.431 83.0107L130.3 82.8602ZM126.8 83.9802V83.7802H120.66V83.9802V84.1802H126.8V83.9802ZM120.88 81.3802V81.5802H126.18V81.3802V81.1802H120.88V81.3802ZM126.18 81.3802V81.5802C126.933 81.5802 127.545 81.4439 127.991 81.1466L127.88 80.9802L127.769 80.8138C127.415 81.0499 126.893 81.1802 126.18 81.1802V81.3802ZM127.88 80.9802L127.994 81.1441C128.455 80.8217 128.68 80.3431 128.68 79.7402H128.48H128.28C128.28 80.2307 128.104 80.5787 127.765 80.8164L127.88 80.9802ZM128.48 79.7402H128.68C128.68 79.1486 128.453 78.6821 127.991 78.3738L127.88 78.5402L127.769 78.7066C128.106 78.9317 128.28 79.2651 128.28 79.7402H128.48ZM127.88 78.5402L127.991 78.3738C127.545 78.0765 126.933 77.9402 126.18 77.9402V78.1402V78.3402C126.893 78.3402 127.415 78.4706 127.769 78.7066L127.88 78.5402ZM126.18 78.1402V77.9402H117.46V78.1402V78.3402H126.18V78.1402ZM117.46 78.1402L117.262 78.1683C117.419 79.2759 117.794 80.1342 118.407 80.7154C119.023 81.299 119.855 81.5802 120.88 81.5802V81.3802V81.1802C119.93 81.1802 119.206 80.9214 118.682 80.425C118.156 79.9262 117.807 79.1645 117.658 78.1121L117.46 78.1402ZM141.726 67.0802L141.777 66.8868L141.599 66.8399L141.538 67.0136L141.726 67.0802ZM143.246 67.4802L143.433 67.5518L143.513 67.3436L143.297 67.2868L143.246 67.4802ZM141.926 70.3402L141.751 70.2448L141.75 70.2457L141.926 70.3402ZM140.306 72.9202L140.467 73.0398L140.468 73.0385L140.306 72.9202ZM138.486 75.0002L138.356 75.1521L138.494 75.27L138.625 75.1447L138.486 75.0002ZM138.106 74.7002L137.972 74.8482L137.979 74.8545L137.986 74.8602L138.106 74.7002ZM137.626 74.3202L137.506 74.4803L137.512 74.4846L137.626 74.3202ZM137.186 74.0402L137.055 73.8897L136.83 74.0859L137.097 74.2191L137.186 74.0402ZM138.986 72.1202L138.829 71.997L138.828 71.9974L138.986 72.1202ZM140.546 69.7402L140.722 69.8362L140.722 69.835L140.546 69.7402ZM141.426 69.5802V69.3802H141.304L141.248 69.4888L141.426 69.5802ZM154.326 69.5802H154.526V69.3802H154.326V69.5802ZM154.326 71.0202V71.2202H154.526V71.0202H154.326ZM140.686 71.0202L140.508 70.9288L140.359 71.2202H140.686V71.0202ZM140.446 74.1002V73.9002H140.246V74.1002H140.446ZM153.866 74.1002H154.066V73.9002H153.866V74.1002ZM153.866 75.5202V75.7202H154.066V75.5202H153.866ZM141.946 75.5202V75.3202H141.746V75.5202H141.946ZM141.946 80.2402V80.4402H142.146V80.2402H141.946ZM140.446 80.2402H140.246V80.4402H140.446V80.2402ZM137.146 79.5002V79.3002H136.946V79.5002H137.146ZM155.266 79.5002H155.466V79.3002H155.266V79.5002ZM155.266 80.9402V81.1402H155.466V80.9402H155.266ZM137.146 80.9402H136.946V81.1402H137.146V80.9402ZM146.426 70.3402V70.1402H146.226V70.3402H146.426ZM147.966 70.3402H148.166V70.1402H147.966V70.3402ZM147.966 85.5602V85.7602H148.166V85.5602H147.966ZM146.426 85.5602H146.226V85.7602H146.426V85.5602ZM141.726 67.0802L141.675 67.2736L143.195 67.6736L143.246 67.4802L143.297 67.2868L141.777 66.8868L141.726 67.0802ZM143.246 67.4802L143.06 67.4086C142.689 68.3736 142.253 69.319 141.751 70.2448L141.926 70.3402L142.102 70.4356C142.613 69.4948 143.056 68.5335 143.433 67.5518L143.246 67.4802ZM141.926 70.3402L141.75 70.2457C141.261 71.1579 140.726 72.0099 140.145 72.8019L140.306 72.9202L140.468 73.0385C141.06 72.2305 141.605 71.3626 142.103 70.4347L141.926 70.3402ZM140.306 72.9202L140.146 72.8006C139.565 73.5795 138.966 74.2643 138.348 74.8557L138.486 75.0002L138.625 75.1447C139.26 74.5361 139.874 73.8342 140.467 73.0398L140.306 72.9202ZM138.486 75.0002L138.616 74.8484C138.518 74.7643 138.388 74.6614 138.226 74.5402L138.106 74.7002L137.986 74.8602C138.145 74.979 138.267 75.0761 138.356 75.1521L138.486 75.0002ZM138.106 74.7002L138.241 74.5522C138.087 74.4126 137.92 74.2805 137.74 74.1558L137.626 74.3202L137.512 74.4846C137.679 74.5999 137.832 74.7212 137.972 74.8482L138.106 74.7002ZM137.626 74.3202L137.746 74.1602C137.58 74.0353 137.423 73.9348 137.276 73.8613L137.186 74.0402L137.097 74.2191C137.217 74.2789 137.353 74.3651 137.506 74.4802L137.626 74.3202ZM137.186 74.0402L137.318 74.1907C137.968 73.6217 138.577 72.9723 139.144 72.243L138.986 72.1202L138.828 71.9974C138.276 72.7081 137.684 73.3387 137.055 73.8897L137.186 74.0402ZM138.986 72.1202L139.144 72.2434C139.724 71.5011 140.25 70.6986 140.722 69.8362L140.546 69.7402L140.371 69.6442C139.909 70.4885 139.395 71.2726 138.829 71.997L138.986 72.1202ZM140.546 69.7402L140.722 69.835C141.194 68.9595 141.591 68.0634 141.915 67.1468L141.726 67.0802L141.538 67.0136C141.221 67.9104 140.832 68.7876 140.37 69.6454L140.546 69.7402ZM141.426 69.5802V69.7802H154.326V69.5802V69.3802H141.426V69.5802ZM154.326 69.5802H154.126V71.0202H154.326H154.526V69.5802H154.326ZM154.326 71.0202V70.8202H140.686V71.0202V71.2202H154.326V71.0202ZM140.686 71.0202L140.864 71.1116L141.604 69.6716L141.426 69.5802L141.248 69.4888L140.508 70.9288L140.686 71.0202ZM140.446 74.1002V74.3002H153.866V74.1002V73.9002H140.446V74.1002ZM153.866 74.1002H153.666V75.5202H153.866H154.066V74.1002H153.866ZM153.866 75.5202V75.3202H141.946V75.5202V75.7202H153.866V75.5202ZM141.946 75.5202H141.746V80.2402H141.946H142.146V75.5202H141.946ZM141.946 80.2402V80.0402H140.446V80.2402V80.4402H141.946V80.2402ZM140.446 80.2402H140.646V74.1002H140.446H140.246V80.2402H140.446ZM137.146 79.5002V79.7002H155.266V79.5002V79.3002H137.146V79.5002ZM155.266 79.5002H155.066V80.9402H155.266H155.466V79.5002H155.266ZM155.266 80.9402V80.7402H137.146V80.9402V81.1402H155.266V80.9402ZM137.146 80.9402H137.346V79.5002H137.146H136.946V80.9402H137.146ZM146.426 70.3402V70.5402H147.966V70.3402V70.1402H146.426V70.3402ZM147.966 70.3402H147.766V85.5602H147.966H148.166V70.3402H147.966ZM147.966 85.5602V85.3602H146.426V85.5602V85.7602H147.966V85.5602ZM146.426 85.5602H146.626V70.3402H146.426H146.226V85.5602H146.426Z" fill="white" mask="url(#path-5-outside-1_2737_339)"/>
<defs>
<g id="stroke0_2737_339" data-figma-scatter-ref="stroke0_2737_339_ref" data-figma-scatter="f0.51_w0.06_aj180_sj0.65_r0_s18399844050281906286_sw5">
<path d="M215.823 333.963C215.823 333.23 216.123 332.93 216.49 333.296C216.856 333.663 216.856 334.263 216.49 334.63C216.123 334.996 215.823 334.696 215.823 333.963ZM143.424 3.97701C148.056 3.32404 151.523 8.80284 148.726 12.3588C146.775 14.8388 146.175 17.9633 147.648 17.9633C148.553 17.9667 158.823 30.3033 158.823 31.3862C158.823 32.4623 154.479 36.4974 152.507 37.2544C150.609 37.9824 151.073 39.9631 153.14 39.9633C153.801 39.9633 154.92 40.8881 155.626 42.02C156.91 44.0739 156.912 44.0744 158.617 42.0766C159.555 40.9766 161.223 39.938 162.323 39.77C163.423 39.601 164.653 39.0132 165.057 38.4633C165.472 37.8983 165.798 38.2253 165.807 39.2133C165.825 41.3531 166.254 41.3818 169.215 39.4419C170.838 38.3789 171.405 37.2303 171.099 35.6313C170.05 30.1434 175.963 30.1199 185.501 35.5737C190.79 38.5976 191.028 38.5792 193.164 34.9633C196.187 29.8454 203.13 33.2701 201.316 38.9838C200.801 40.6068 201.133 41.2309 202.733 41.6499C203.883 41.9499 204.823 42.5946 204.823 43.0805C204.824 43.5654 205.723 43.9633 206.823 43.9633C209.228 43.9633 209.333 43.3299 207.269 41.2661C205.332 39.3301 205.758 35.0191 208.025 33.5991C210.469 32.0694 211.11 33.2632 210.001 37.2797C209.157 40.3355 209.276 40.8478 210.928 41.2797C211.97 41.5527 212.823 42.4936 212.823 43.3696C212.824 45.4861 216.745 45.4516 218.302 43.3227C219.936 41.0879 223.264 42.9574 223.298 46.1294C223.32 48.1552 223.883 48.504 227.573 48.77C231.476 49.053 231.823 48.8831 231.823 46.6811C231.823 45.0832 232.672 43.8975 234.37 43.1245C240.164 40.4845 243.457 43.0685 242.282 49.3315C241.655 52.6722 241.655 52.6725 249.407 53.3745C262.73 54.5825 271.108 62.5852 260.323 63.8012C258.673 63.9882 256.79 64.5797 256.14 65.1167C255.368 65.7556 253.636 65.7276 251.14 65.0346C246.476 63.7398 245.823 63.7172 245.823 64.8549C245.823 65.7449 249.37 66.9616 253.515 67.4936C257.329 67.9826 258.042 68.9656 257.379 72.8286C255.795 82.0527 255.841 81.9633 252.685 81.9633C250.953 81.9633 249.964 81.5443 250.323 80.9633C250.663 80.4133 250.517 79.9633 249.999 79.9633C249.48 79.9633 248.821 79.0632 248.533 77.9633C248.217 76.7553 247.169 75.9633 245.885 75.9633C244.716 75.9632 243.46 75.1762 243.092 74.2133C242.404 72.4103 242.246 72.1833 238.753 67.9633C236.684 65.4633 236.684 65.4633 237.262 68.1733C237.705 70.252 237.359 71.1408 235.772 71.9897C232.719 73.6237 233.414 78.5898 236.633 78.1401C237.903 77.9621 239.585 78.3504 240.37 79.0024C241.211 79.7003 242.9 79.9101 244.485 79.5122C246.95 78.8932 247.055 78.9823 245.748 80.5922C244.844 81.7052 244.78 82.0721 245.573 81.5962C246.78 80.8713 247.26 82.2792 247.055 85.9321C247.01 86.7401 248.281 89.181 249.881 91.3569C252.292 94.6349 252.689 95.9524 252.194 99.0434C251.695 102.167 251.943 102.958 253.722 103.911C255.46 104.841 255.656 105.407 254.789 107.026C254.207 108.114 254.046 109.515 254.431 110.14C255.79 112.339 247.804 110.139 243.089 107.016C234.391 101.254 232.358 104.203 234.165 119.963C234.386 121.888 234.142 123.998 233.622 124.653C231.331 127.54 233.14 131.457 236.823 131.585C238.748 131.652 240.773 131.816 241.323 131.95C241.873 132.084 243.093 132.116 244.034 132.022C246.328 131.792 249.862 133.758 249.563 135.098C249.134 137.018 257.14 136.437 263.279 134.102C266.554 132.856 270.042 132.048 271.029 132.307C272.126 132.594 272.823 132.23 272.823 131.37C272.823 130.597 271.923 129.963 270.823 129.963C268.355 129.963 268.291 128.842 270.596 125.996C272.37 123.806 272.37 123.805 274.251 125.884C277.35 129.307 282.41 126.734 280.041 122.94C279.048 121.351 279.46 120.899 283.362 119.295C285.811 118.288 287.817 117.126 287.819 116.713C287.821 116.301 288.262 115.963 288.798 115.963C290.086 115.963 288.981 121.818 287.134 124.78C286.042 126.531 285.967 127.431 286.825 128.466C288.108 130.011 286.599 133.834 284.133 135.288C283.329 135.762 282.984 136.896 283.321 137.957C283.727 139.236 283.296 139.996 281.916 140.434C280.723 140.812 280.144 141.636 280.471 142.488C281.07 144.051 279.303 146.204 276.573 147.238C275.611 147.602 274.823 148.857 274.823 150.027C274.823 152.253 271.493 157.622 268.86 159.642C267.494 160.689 267.518 160.896 269.075 161.499C270.259 161.958 271.465 161.413 272.792 159.821C274.896 157.295 275.458 157.908 273.83 160.952C272.986 162.526 273.289 162.906 275.83 163.464C279.699 164.314 279.894 168.296 276.323 173.558C272.999 178.456 273.141 179.594 277.811 185.463C279.999 188.213 283.258 192.592 285.055 195.195C287.985 199.439 291.823 201.575 291.823 198.963C291.823 198.413 292.858 197.963 294.123 197.963C295.388 197.963 296.869 197.517 297.413 196.973C298.033 196.353 299.563 196.316 301.501 196.872C303.893 197.558 304.97 197.388 306.229 196.128C311.032 191.326 313.154 199.168 308.775 205.533C305.051 210.945 307.295 210.388 312.57 204.592C314.356 202.629 316.421 201.256 317.16 201.54C317.898 201.822 319.08 201.359 319.785 200.509C321.719 198.179 324.72 198.643 326.009 201.472C327.592 204.947 325.832 207.908 318.196 214.612C312.035 220.021 312.035 220.021 314.929 222.915C319.416 227.402 318.437 230.291 311.993 231.58C309.623 232.053 308.701 231.81 308.231 230.585C307.343 228.271 305.535 228.576 302.783 231.505C300.746 233.674 300.577 234.339 301.632 236.028C303.496 239.014 301.66 241.738 298.126 241.228C293.529 240.565 288.418 246.501 289.907 250.775C290.518 252.528 291.537 253.977 292.171 253.994C292.805 254.011 292.532 254.484 291.565 255.048C290.598 255.611 289.399 255.819 288.9 255.511C288.402 255.203 287.764 255.415 287.483 255.982C287.203 256.549 287.108 256.439 287.273 255.738C287.438 255.037 288.155 254.601 288.867 254.769C289.918 255.018 289.921 254.787 288.886 253.54C288.066 252.551 286.49 252.15 284.467 252.416C282.738 252.642 279.973 252.894 278.323 252.974C276.673 253.055 275.886 253.348 276.573 253.625C277.261 253.904 277.823 254.712 277.823 255.424C277.823 256.136 278.498 257.278 279.323 257.963C284.43 262.201 279.156 267.527 267.467 269.94C261.662 271.138 261.616 271.176 262.217 274.181C262.55 275.849 262.823 278.291 262.823 279.609C262.823 281.174 263.663 282.389 265.244 283.109C266.671 283.759 267.448 284.778 267.136 285.59C265.821 289.017 267.765 292.135 270.801 291.468C274.766 290.597 278.421 292.537 276.707 294.602C276.023 295.427 274.625 295.883 273.602 295.615C272.138 295.233 271.87 295.538 272.348 297.046C272.893 298.763 272.429 298.963 267.889 298.963C262.743 298.963 261.095 297.073 265.249 295.935C268.036 295.172 268.4 292.927 265.844 292.258C264.392 291.879 264.055 291.437 264.845 290.949C266.469 289.946 265.098 283.964 263.244 283.963C262.462 283.963 261.823 283.571 261.823 283.091C261.823 282.611 259.972 281.923 257.709 281.561C255.433 281.197 252.864 280.005 251.959 278.892C250.396 276.971 250.314 277.128 250.111 282.423C249.912 287.635 250.039 287.963 252.254 287.963C257.861 287.963 255.961 295.527 250.118 296.465C248.031 296.8 244.838 297.728 243.022 298.527C240.536 299.621 239.219 299.71 237.687 298.89C235.32 297.624 234.327 298.227 235.168 300.42C235.494 301.269 236.844 301.963 238.169 301.963C242.073 301.963 243.244 304.249 241.284 308.04C239.619 311.258 239.618 311.258 228.221 310.647C216.823 310.036 216.823 310.036 216.823 313.065C216.823 321.686 206.244 322.014 203.987 313.463C202.962 309.577 196.547 308.889 196.016 312.607C195.599 315.535 190.787 316.541 190.083 313.848C189.539 311.771 188.717 311.487 187.273 312.878C186.751 313.382 185.198 313.944 183.823 314.128C182.113 314.357 181.221 315.181 181 316.737C180.739 318.581 180.17 318.937 178 318.615C176.528 318.397 175.418 317.764 175.533 317.21C175.649 316.655 174.861 315.403 173.783 314.427C171.902 312.724 171.821 312.729 171.781 314.558C171.757 315.606 170.365 317.588 168.686 318.963C167.007 320.338 164.438 322.475 162.978 323.712C158.062 327.876 154.556 326.427 153.301 319.713C152.916 317.652 152.42 315.964 152.199 315.963C151.978 315.963 148.55 316.863 144.58 317.963C130.056 321.988 115.58 315.43 128.81 310.818C130.467 310.24 131.823 309.373 131.823 308.89C131.823 308.407 130.668 308.452 129.257 308.988C127.134 309.795 126.098 309.512 123.257 307.345C120.118 304.951 118.274 301.888 120.978 303.558C121.694 304.001 121.861 303.833 121.417 303.115C120.368 301.418 116.504 303.691 117.229 305.579C118.04 307.692 114.948 308.516 113.522 306.566C111.691 304.062 106.546 306.574 107.286 309.61C108.627 315.112 101.84 317.769 99.8455 312.524C98.8953 310.026 94.4089 310.708 90.3231 313.97C88.4581 315.459 83.5201 315.529 83.0311 314.074C82.7723 313.306 83.018 312.966 83.5799 313.313C84.1398 313.659 84.5764 313.384 84.5526 312.703C84.3916 308.249 84.9971 307.097 88.0731 306.006C91.7409 304.706 90.1749 302.466 84.8231 301.359C83.4482 301.075 81.5171 300.405 80.5321 299.87C79.5471 299.334 78.3755 299.121 77.9295 299.397C77.4824 299.673 76.2634 299.261 75.2196 298.481C73.4269 297.14 73.453 297.096 75.7069 297.665C77.4798 298.113 77.9663 297.907 77.6033 296.865C77.3352 296.094 76.3745 295.595 75.4686 295.757C74.5637 295.918 73.8231 295.644 73.8231 295.147C73.8225 293.779 67.1263 286.964 65.7821 286.963C64.5191 286.963 65.3358 292.016 66.7508 292.954C68.0246 293.798 67.6327 300.104 66.3377 299.607C65.6809 299.355 65.2149 300.076 65.2537 301.283C65.3377 303.874 62.3307 304.729 61.4256 302.372C61.0686 301.443 61.4731 299.62 62.3231 298.322C63.7468 296.15 63.7284 295.96 62.0955 295.928C61.1204 295.908 59.1988 295.27 57.826 294.51C56.13 293.571 54.9418 293.449 54.1238 294.128C52.5208 295.458 48.5416 294.139 49.1746 292.487C49.7193 291.067 47.2348 286.963 45.8309 286.963C44.5728 286.963 35.8231 278.847 35.8231 277.681C35.8231 277.1 37.4871 276.973 39.9481 277.367C43.78 277.98 44.0342 277.878 43.5272 275.938C43.0782 274.221 43.2342 274.059 44.4022 275.028C46.6741 276.914 46.0406 274.471 43.7127 272.369C42.5527 271.321 40.7375 268.625 39.6795 266.377C37.9885 262.785 29.7573 256.441 24.5213 254.696C21.1893 253.585 27.5839 242.826 31.0379 243.73C32.8048 244.192 33.0357 243.965 32.4178 242.374C31.1828 239.197 31.2554 238.448 32.7684 238.778C35.0593 239.276 38.8227 236.801 38.8231 234.794C38.8231 233.715 39.5439 232.963 40.5779 232.963C43.0149 232.963 45.0996 226.438 43.1737 224.839C42.4307 224.223 41.8231 222.9 41.8231 221.9C41.823 220.899 41.3729 219.803 40.8231 219.463C40.2731 219.123 39.8231 217.945 39.8231 216.845C39.8231 215.745 39.4205 215.093 38.9295 215.397C38.4384 215.7 37.0855 214.04 35.9237 211.706C34.7617 209.372 33.2645 206.563 32.5965 205.463C31.9285 204.363 30.3573 201.785 29.1033 199.734C26.2513 195.07 26.2154 191.993 28.9774 189.028C30.8989 186.965 30.957 186.618 29.5194 185.813C28.6324 185.316 28.1605 184.245 28.4735 183.431C28.8615 182.419 27.9015 181.476 25.4315 180.444C23.4467 179.615 21.786 178.38 21.741 177.7C21.499 174.063 20.5431 170.143 19.2762 167.585C18.4912 166.003 18.1172 163.64 18.4442 162.335C18.8492 160.724 18.6035 159.943 17.6805 159.9C16.9341 159.865 17.347 159.425 18.5975 158.923C21.2044 157.876 20.8038 153.423 17.911 151.294C13.1591 147.798 12.87 147.403 13.4549 145.213C13.7859 143.975 14.834 142.963 15.785 142.963C16.735 142.963 18.3281 142.063 19.3231 140.963C20.3181 139.863 21.5542 138.963 22.0682 138.963C22.5823 138.963 23.847 137.951 24.8787 136.713C26.4927 134.779 26.7609 134.71 26.7899 136.223C26.8079 137.191 25.9229 138.753 24.8231 139.695C22.2852 141.868 22.305 142.594 24.9237 143.279C26.0795 143.582 26.7278 144.308 26.3651 144.896C26.0023 145.483 25.92 145.963 26.1815 145.963C26.4445 145.963 27.4328 146.261 28.3778 146.623C29.5896 147.087 29.9501 146.866 29.6024 145.873C29.0314 144.244 32.5938 138.703 33.7518 139.419C34.1787 139.683 35.3646 139.287 36.3875 138.54C38.4045 137.065 37.003 133.964 34.3192 133.963C32.9872 133.963 30.2179 125.51 30.7147 122.963C30.8767 122.138 30.9536 119.741 30.8856 117.637C30.7766 114.238 31.1058 113.683 33.8338 112.653C35.9678 111.847 36.8578 110.879 36.7528 109.478C36.4928 106.022 36.7888 104.824 37.7537 105.42C38.2657 105.737 38.9407 105.581 39.2547 105.073C39.5679 104.566 40.6568 104.368 41.6746 104.635C44.2356 105.304 47.2646 102.201 45.7879 100.421C44.9809 99.4493 44.9929 98.5137 45.8309 96.9487C46.4608 95.7707 46.7305 94.1671 46.4305 93.3852C46.0505 92.3923 46.6314 91.9633 48.3543 91.9633C49.712 91.9632 50.8228 91.5132 50.8231 90.9633C50.8231 90.4135 50.3871 89.9636 49.8543 89.9633C49.3224 89.9633 49.1449 89.2882 49.4608 88.4633C49.7917 87.6015 49.481 86.9636 48.7303 86.9633C47.7133 86.9633 47.6899 86.6961 48.6229 85.7631C49.2829 85.1031 49.8231 83.8148 49.8231 82.9008C49.8233 81.6241 51.1422 81.0827 55.5067 80.5698C58.6325 80.2028 61.7825 79.411 62.5067 78.81C64.2735 77.3441 64.1799 74.9637 62.3543 74.9633C61.4603 74.9633 61.1108 75.5493 61.4608 76.4633C61.8237 77.4082 61.4499 77.9633 60.45 77.9633C58.464 77.9633 58.8759 72.1768 60.9559 70.8598C64.4336 68.656 58.1944 70.1802 53.6815 72.6362C50.1078 74.581 48.4698 75.0103 47.6688 74.2094C46.9258 73.4665 45.7561 73.4182 44.0643 74.061C39.8403 75.667 37.8231 74.3507 37.8231 69.9907C37.8233 65.514 41.1635 63.0775 53.0731 58.8667C60.4397 56.2628 60.5863 56.0654 58.1824 51.9956C56.1924 48.6276 56.994 44.361 59.7821 43.476C62.4579 42.6272 68.8174 43.9249 68.8377 45.3237C68.8797 48.4517 70.4558 49.1528 74.6307 47.9028C79.0287 46.5848 80.5395 44.5322 78.7215 42.3422C77.8406 41.2803 78.116 40.538 79.9549 39.018C81.9907 37.3362 82.4786 37.2654 83.4324 38.5122C85.3604 41.0312 100.442 37.019 99.3865 34.269C98.521 32.0121 103.808 29.185 104.979 31.2778C106.381 33.7828 109.101 33.326 112.231 30.059C115.014 27.1544 115.014 27.1541 112.856 24.9965C109.082 21.2226 112.1 14.3884 117.416 14.6713C123.005 14.9683 123.68 15.1663 123.238 16.3803C123.021 16.9763 123.233 18.0729 123.708 18.8178C124.754 20.4597 129.376 17.8723 130.306 15.1245C130.615 14.2105 133.671 11.332 137.096 8.72701C140.516 6.12608 143.361 3.99002 143.424 3.97701ZM208.763 322.963C209.345 322.963 209.823 323.413 209.823 323.963C209.823 324.513 209.625 324.963 209.382 324.963C209.139 324.963 208.663 324.513 208.323 323.963C207.983 323.413 208.182 322.964 208.763 322.963ZM116.823 315.345C116.823 314.52 117.273 314.123 117.823 314.463C118.373 314.803 118.823 315.757 118.823 316.582C118.823 317.406 118.373 317.803 117.823 317.463C117.273 317.123 116.823 316.17 116.823 315.345ZM202.323 313.963C202.598 313.963 202.823 314.188 202.823 314.463C202.823 314.738 202.598 314.963 202.323 314.963C202.048 314.963 201.823 314.738 201.823 314.463C201.823 314.188 202.048 313.963 202.323 313.963ZM74.7635 305.963C75.3455 305.963 75.8231 306.413 75.8231 306.963C75.823 307.513 75.6246 307.963 75.3817 307.963C75.1386 307.963 74.6629 307.513 74.3231 306.963C73.9831 306.413 74.1818 305.964 74.7635 305.963ZM71.8231 304.963C72.373 304.963 72.8231 305.413 72.8231 305.963C72.823 306.513 72.3729 306.963 71.8231 306.963C71.2731 306.963 70.8232 306.513 70.8231 305.963C70.8231 305.413 71.2731 304.963 71.8231 304.963ZM131.823 306.07C131.823 304.426 129.038 304.086 127.17 305.5C125.465 306.792 125.573 306.902 128.573 306.931C130.36 306.949 131.823 306.561 131.823 306.07ZM86.8231 303.963C87.5559 303.963 87.856 304.263 87.4901 304.63C87.1231 304.996 86.5231 304.996 86.1561 304.63C85.7901 304.263 86.0901 303.963 86.8231 303.963ZM77.2401 304.042C78.294 303.999 78.8836 304.235 78.5516 304.567C78.2196 304.899 77.3566 304.935 76.6356 304.646C75.838 304.327 76.0752 304.09 77.2401 304.042ZM78.8231 300.963C79.373 300.963 79.8231 301.413 79.8231 301.963C79.823 302.513 79.3729 302.963 78.8231 302.963C78.2731 302.963 77.8232 302.513 77.8231 301.963C77.8231 301.413 78.2731 300.963 78.8231 300.963ZM70.3231 299.963C71.148 299.963 71.8231 300.624 71.8231 301.432C71.8231 302.326 71.2371 302.675 70.3231 302.325C69.4981 302.008 68.8231 301.347 68.8231 300.856C68.8233 300.365 69.4982 299.963 70.3231 299.963ZM69.8231 291.963C70.3727 291.963 70.8226 292.161 70.8231 292.404C70.8231 292.647 70.3731 293.123 69.8231 293.463C69.2731 293.803 68.8231 293.604 68.8231 293.022C68.8232 292.44 69.2731 291.963 69.8231 291.963ZM270.323 285.963C271.148 285.963 271.823 286.133 271.823 286.341C271.823 286.548 271.148 287.279 270.323 287.963C269.094 288.983 268.823 288.914 268.823 287.585C268.823 286.693 269.498 285.963 270.323 285.963ZM275.323 284.963C275.598 284.963 275.823 285.188 275.823 285.463C275.823 285.738 275.598 285.963 275.323 285.963C275.048 285.963 274.823 285.738 274.823 285.463C274.823 285.188 275.048 284.963 275.323 284.963ZM273.515 281.322C274.055 279.913 274.222 279.924 275.064 281.429C276.122 283.319 275.489 284.493 273.932 283.531C273.371 283.182 273.183 282.189 273.515 281.322ZM269.981 280.963C269.981 279.588 270.208 279.026 270.485 279.713C270.763 280.401 270.763 281.526 270.485 282.213C270.208 282.901 269.981 282.338 269.981 280.963ZM272.323 279.963C272.598 279.963 272.823 280.188 272.823 280.463C272.823 280.738 272.598 280.963 272.323 280.963C272.048 280.963 271.823 280.738 271.823 280.463C271.823 280.188 272.048 279.963 272.323 279.963ZM266.479 278.508C266.109 277.545 266.407 277.251 267.374 277.622C269.054 278.267 269.168 278.632 267.928 279.398C267.435 279.703 266.783 279.302 266.479 278.508ZM273.323 277.963C273.598 277.963 273.823 278.188 273.823 278.463C273.823 278.738 273.598 278.963 273.323 278.963C273.048 278.963 272.823 278.738 272.823 278.463C272.823 278.188 273.048 277.963 273.323 277.963ZM312.823 274.963C312.823 274.23 313.123 273.93 313.49 274.296C313.856 274.663 313.856 275.263 313.49 275.63C313.123 275.996 312.823 275.696 312.823 274.963ZM306.823 264.522C306.823 262.765 307.423 262.507 308.28 263.894C308.597 264.406 308.398 265.108 307.839 265.454C307.28 265.798 306.823 265.379 306.823 264.522ZM39.241 257.57C36.868 256.659 36.5506 256.812 37.2156 258.545C37.5496 259.415 37.8231 260.315 37.8231 260.545C37.8235 260.775 38.4984 260.963 39.3231 260.963C41.3139 260.963 41.251 258.341 39.241 257.57ZM294.721 251.963C296.379 251.963 302.87 258.076 302.261 259.064C300.769 261.477 295.519 258.26 294.343 254.213C293.964 252.911 294.123 251.964 294.721 251.963ZM274.323 255.963C274.048 255.963 273.823 256.188 273.823 256.463C273.823 256.738 274.048 256.963 274.323 256.963C274.598 256.963 274.823 256.738 274.823 256.463C274.823 256.188 274.598 255.963 274.323 255.963ZM268.323 252.963C268.048 252.963 267.823 253.188 267.823 253.463C267.823 253.738 268.048 253.963 268.323 253.963C268.598 253.963 268.823 253.738 268.823 253.463C268.823 253.188 268.598 252.963 268.323 252.963ZM266.646 249.296C266.257 247.287 264.26 246.448 263.356 247.911C262.476 249.334 263.598 250.963 265.455 250.963C266.331 250.963 266.833 250.26 266.646 249.296ZM269.323 249.963C269.048 249.963 268.823 250.188 268.823 250.463C268.823 250.738 269.048 250.963 269.323 250.963C269.598 250.963 269.823 250.738 269.823 250.463C269.823 250.188 269.598 249.963 269.323 249.963ZM24.3231 232.963C24.598 232.963 24.8231 233.188 24.8231 233.463C24.823 233.738 24.5979 233.963 24.3231 233.963C24.0481 233.963 23.8232 233.738 23.8231 233.463C23.8231 233.188 24.0481 232.963 24.3231 232.963ZM26.3231 232.963C26.598 232.963 26.8231 233.188 26.8231 233.463C26.823 233.738 26.5979 233.963 26.3231 233.963C26.0481 233.963 25.8232 233.738 25.8231 233.463C25.8231 233.188 26.0481 232.963 26.3231 232.963ZM30.3231 182.963C30.0481 182.963 29.8231 183.188 29.8231 183.463C29.8232 183.738 30.0481 183.963 30.3231 183.963C30.5979 183.963 30.823 183.738 30.8231 183.463C30.8231 183.188 30.598 182.963 30.3231 182.963ZM25.8231 182.963C26.5559 182.963 26.856 183.263 26.4901 183.63C26.1231 183.996 25.5231 183.996 25.1561 183.63C24.7901 183.263 25.0901 182.963 25.8231 182.963ZM24.5418 168.045C24.7068 165.852 23.3077 164.369 22.4237 165.799C22.1289 166.277 22.4496 167.439 23.1375 168.378C24.2905 169.956 24.3998 169.93 24.5418 168.045ZM26.3231 165.963C26.0481 165.963 25.8231 166.188 25.8231 166.463C25.8232 166.738 26.0481 166.963 26.3231 166.963C26.5979 166.963 26.823 166.738 26.8231 166.463C26.8231 166.188 26.598 165.963 26.3231 165.963ZM278.023 154.164C281.374 150.813 285.386 154.145 284.39 159.453C283.619 163.564 281.534 164.032 278.766 160.713C276.583 158.097 276.33 155.857 278.023 154.164ZM0.823065 156.963C1.55594 156.963 1.85603 157.263 1.49006 157.63C1.12312 157.996 0.523086 157.996 0.156073 157.63C-0.209927 157.263 0.0900652 156.963 0.823065 156.963ZM286.917 147.963C287.415 147.963 287.823 148.863 287.823 149.963C287.823 151.063 287.65 151.962 287.44 151.963C287.229 151.963 286.821 151.063 286.533 149.963C286.246 148.863 286.418 147.963 286.917 147.963ZM285.323 145.963C285.598 145.963 285.823 146.188 285.823 146.463C285.823 146.738 285.598 146.963 285.323 146.963C285.048 146.963 284.823 146.738 284.823 146.463C284.823 146.188 285.048 145.963 285.323 145.963ZM293.205 142.963C293.48 142.963 293.983 143.413 294.323 143.963C294.663 144.513 294.716 144.963 294.441 144.963C294.166 144.963 293.663 144.513 293.323 143.963C292.983 143.413 292.93 142.963 293.205 142.963ZM18.6795 133.08C18.8755 133.016 18.7986 133.583 18.5076 134.341C18.2168 135.099 18.5072 136.25 19.1512 136.898C20.0502 137.802 19.7528 137.866 17.8738 137.174C14.8158 136.047 14.1344 134.282 16.5184 133.664C17.5105 133.407 18.4825 133.144 18.6795 133.08ZM27.4901 131.63C28.6061 130.513 29.4901 130.881 29.4901 132.463C29.49 133.288 28.8899 133.963 28.1561 133.963C26.7371 133.963 26.3861 132.734 27.4901 131.63ZM293.763 131.963C294.345 131.963 294.823 132.413 294.823 132.963C294.823 133.513 294.625 133.963 294.382 133.963C294.139 133.963 293.663 133.513 293.323 132.963C292.983 132.413 293.182 131.964 293.763 131.963ZM296.323 132.963C296.598 132.963 296.823 133.188 296.823 133.463C296.823 133.738 296.598 133.963 296.323 133.963C296.048 133.963 295.823 133.738 295.823 133.463C295.823 133.188 296.048 132.963 296.323 132.963ZM20.8231 128.963C21.373 128.963 21.8231 129.638 21.8231 130.463C21.823 131.288 21.3729 131.963 20.8231 131.963C20.2731 131.963 19.8231 131.288 19.8231 130.463C19.8231 129.638 20.2731 128.963 20.8231 128.963ZM302.823 129.091C306.081 127.786 307.823 127.729 307.823 128.928C307.823 130.677 303.932 132.124 302.06 131.07C300.503 130.194 300.582 129.989 302.823 129.091ZM14.3885 125.861C17.5155 124.636 18.4666 124.918 16.4256 126.463C15.3817 127.253 14.062 127.611 13.492 127.258C12.8941 126.889 13.2737 126.298 14.3885 125.861ZM290.882 124.963C291.4 124.963 291.823 125.413 291.823 125.963C291.823 126.513 291.12 126.963 290.263 126.963C289.407 126.963 288.983 126.513 289.323 125.963C289.663 125.413 290.364 124.963 290.882 124.963ZM253.323 104.963C253.048 104.963 252.823 105.188 252.823 105.463C252.823 105.738 253.048 105.963 253.323 105.963C253.598 105.963 253.823 105.738 253.823 105.463C253.823 105.188 253.598 104.963 253.323 104.963ZM38.3231 101.963C38.598 101.963 38.8231 102.188 38.8231 102.463C38.823 102.738 38.5979 102.963 38.3231 102.963C38.0481 102.963 37.8232 102.738 37.8231 102.463C37.8231 102.188 38.0481 101.963 38.3231 101.963ZM43.3231 100.963C43.598 100.963 43.8231 101.188 43.8231 101.463C43.823 101.738 43.5979 101.963 43.3231 101.963C43.0481 101.963 42.8232 101.738 42.8231 101.463C42.8231 101.188 43.0481 100.963 43.3231 100.963ZM32.0731 95.9458C33.86 94.8529 35.9221 94.1854 36.6551 94.4614C37.3872 94.7374 38.7372 94.9995 39.6551 95.0424C40.6539 95.0895 40.8314 95.3207 40.0975 95.6176C39.4238 95.8904 38.6452 95.9673 38.367 95.7885C38.089 95.6095 37.152 96.4753 36.286 97.7133C35.258 99.1803 33.6844 99.9633 31.7654 99.9633C27.9139 99.9632 28.0332 98.4167 32.0731 95.9458ZM260.323 98.9633C260.598 98.9634 260.823 99.1884 260.823 99.4633C260.823 99.7382 260.598 99.9632 260.323 99.9633C260.048 99.9633 259.823 99.7383 259.823 99.4633C259.823 99.1883 260.048 98.9633 260.323 98.9633ZM42.3231 97.9633C42.598 97.9634 42.8231 98.1884 42.8231 98.4633C42.823 98.7382 42.5979 98.9632 42.3231 98.9633C42.0481 98.9633 41.8232 98.7383 41.8231 98.4633C41.8231 98.1883 42.0481 97.9633 42.3231 97.9633ZM54.6434 89.7915C54.2964 87.4396 52.372 86.2652 51.411 87.8198C50.504 89.2878 51.8519 91.9633 53.4998 91.9633C54.4317 91.9633 54.8462 91.1762 54.6434 89.7915ZM239.323 74.9633C239.598 74.9634 239.823 75.1884 239.823 75.4633C239.823 75.7382 239.598 75.9632 239.323 75.9633C239.048 75.9633 238.823 75.7383 238.823 75.4633C238.823 75.1883 239.048 74.9633 239.323 74.9633ZM273.823 72.9594C273.823 72.4464 274.498 72.2376 275.323 72.4946C276.148 72.7526 277.573 73.2036 278.49 73.4965C279.664 73.8715 279.843 74.3424 279.097 75.0883C277.917 76.2677 273.824 74.6152 273.823 72.9594ZM69.8074 71.2133C69.8294 69.4163 68.1488 69.6726 67.4178 71.5766C67.0247 72.6002 66.0719 73.0001 64.8113 72.6704C63.7187 72.3845 62.8236 72.5091 62.8231 72.9477C62.8231 73.3867 64.0183 74.0465 65.4783 74.4135C68.145 75.0822 69.7744 73.878 69.8074 71.2133ZM244.382 68.9633C244.139 68.9636 243.663 69.4135 243.323 69.9633C242.983 70.5132 243.182 70.9631 243.763 70.9633C244.345 70.9633 244.823 70.5133 244.823 69.9633C244.823 69.4133 244.625 68.9633 244.382 68.9633ZM241.323 67.9633C241.048 67.9633 240.823 68.1883 240.823 68.4633C240.823 68.7383 241.048 68.9633 241.323 68.9633C241.598 68.9632 241.823 68.7382 241.823 68.4633C241.823 68.1884 241.598 67.9634 241.323 67.9633ZM144.24 46.0424C143.075 46.0904 142.838 46.327 143.636 46.646C144.357 46.935 145.22 46.8988 145.552 46.5669C145.884 46.2349 145.294 45.9995 144.24 46.0424ZM181.823 43.9633C181.09 43.9633 180.79 44.2633 181.156 44.6303C181.523 44.9962 182.123 44.9963 182.49 44.6303C182.856 44.2634 182.556 43.9634 181.823 43.9633ZM147.345 34.3335C146.209 33.8976 145.532 34.3585 145.147 35.8335C144.84 37.0054 143.967 37.9633 143.206 37.9633C142.446 37.9633 141.823 38.4133 141.823 38.9633C141.823 40.4821 144.417 40.1582 145.823 38.4633C146.508 37.6384 148.111 36.9635 149.386 36.9633C150.661 36.9633 151.983 36.5133 152.323 35.9633C152.663 35.4133 152.051 34.9633 150.964 34.9633C149.876 34.9633 148.247 34.6804 147.345 34.3335ZM138.947 36.6958C137.959 35.7159 137.845 35.8314 138.387 37.2563C138.763 38.2423 139.322 38.7967 139.63 38.4887C139.938 38.1817 139.631 37.3747 138.947 36.6958ZM160.323 29.9633C160.598 29.9634 160.823 30.1884 160.823 30.4633C160.823 30.7382 160.598 30.9632 160.323 30.9633C160.048 30.9633 159.823 30.7382 159.823 30.4633C159.823 30.1883 160.048 29.9633 160.323 29.9633ZM205.823 28.9633C206.556 28.9634 206.856 29.2634 206.49 29.6303C206.123 29.9963 205.523 29.9961 205.156 29.6303C204.79 29.2633 205.09 28.9633 205.823 28.9633ZM210.823 24.9633C211.373 24.9634 211.823 25.161 211.823 25.4038C211.823 25.6468 211.373 26.1233 210.823 26.4633C210.273 26.8033 209.823 26.6039 209.823 26.0219C209.823 25.44 210.273 24.9633 210.823 24.9633ZM176.323 24.9633C176.598 24.9634 176.823 25.1884 176.823 25.4633C176.823 25.7382 176.598 25.9632 176.323 25.9633C176.048 25.9633 175.823 25.7382 175.823 25.4633C175.823 25.1883 176.048 24.9633 176.323 24.9633ZM172.823 18.9633C173.556 18.9634 173.856 19.2634 173.49 19.6303C173.123 19.9963 172.523 19.9961 172.156 19.6303C171.79 19.2633 172.09 18.9633 172.823 18.9633ZM173.823 15.9633C173.823 15.2303 174.123 14.9303 174.49 15.2963C174.856 15.6634 174.856 16.2634 174.49 16.6303C174.123 16.9963 173.823 16.6962 173.823 15.9633ZM208.823 13.9633C209.556 13.9634 209.856 14.2634 209.49 14.6303C209.123 14.9963 208.523 14.9962 208.156 14.6303C207.79 14.2633 208.09 13.9633 208.823 13.9633ZM177.323 12.9633C177.598 12.9634 177.823 13.1884 177.823 13.4633C177.823 13.7382 177.598 13.9632 177.323 13.9633C177.048 13.9633 176.823 13.7382 176.823 13.4633C176.823 13.1883 177.048 12.9633 177.323 12.9633ZM166.323 10.9633C166.598 10.9634 166.823 11.1884 166.823 11.4633C166.823 11.7382 166.598 11.9632 166.323 11.9633C166.048 11.9633 165.823 11.7382 165.823 11.4633C165.823 11.1883 166.048 10.9633 166.323 10.9633ZM175.823 10.9633C175.823 10.2303 176.123 9.93035 176.49 10.2963C176.856 10.6634 176.856 11.2634 176.49 11.6303C176.123 11.9963 175.823 11.6962 175.823 10.9633ZM171.323 9.96334C171.598 9.96343 171.823 10.1884 171.823 10.4633C171.823 10.7382 171.598 10.9632 171.323 10.9633C171.048 10.9633 170.823 10.7382 170.823 10.4633C170.823 10.1883 171.048 9.96334 171.323 9.96334ZM132.382 6.96334C132.625 6.96334 132.823 7.41334 132.823 7.96334C132.823 8.51325 132.345 8.96334 131.763 8.96334C131.182 8.96314 130.983 8.51318 131.323 7.96334C131.663 7.41353 132.139 6.96364 132.382 6.96334ZM122.823 7.96334C123.556 7.96339 123.856 8.26336 123.49 8.63033C123.123 8.99625 122.523 8.99614 122.156 8.63033C121.79 8.26333 122.09 7.96334 122.823 7.96334ZM167.204 2.311C170.133 -0.207938 172.823 -0.770742 172.823 1.13424C172.823 2.86018 169.742 5.96305 168.028 5.96334C167.212 5.96334 166.002 6.70389 165.34 7.60885C164.278 9.06077 164.156 8.98412 164.305 6.95846C164.398 5.69446 165.703 3.603 167.204 2.311Z" fill="#F8F8F8"/>
</g>
<path id="stroke0_2737_339_ref" d="M203.696 103.349C203.696 158.578 158.925 203.349 103.696 203.349C48.4678 203.349 3.69629 158.578 3.69629 103.349C3.69629 48.1209 48.4678 3.34937 103.696 3.34937C158.925 3.34937 203.696 48.1209 203.696 103.349Z"/>
</defs>
</svg>
