<svg width="113" height="114" viewBox="0 0 113 114" fill="none" xmlns="http://www.w3.org/2000/svg" xmlns:xlink="http://www.w3.org/1999/xlink">
<circle cx="56.3306" cy="57.0385" r="53" fill="#00BE8A"/>
<use xlink:href="#stroke0_3291_6" transform="translate(111.983 53.6944) scale(0.018254) rotate(82.7093)"/>
<use xlink:href="#stroke0_3291_6" transform="translate(114.236 61.7292) scale(0.0213712) rotate(150.294)"/>
<use xlink:href="#stroke0_3291_6" transform="translate(105.522 61.2256) scale(0.0190032) rotate(-11.5419)"/>
<use xlink:href="#stroke0_3291_6" transform="translate(105.562 69.3584) scale(0.0171934) rotate(-87.4139)"/>
<use xlink:href="#stroke0_3291_6" transform="translate(107.44 72.8311) scale(0.015322) rotate(-132.347)"/>
<use xlink:href="#stroke0_3291_6" transform="translate(105.082 69.6293) scale(0.011658) rotate(-4.38362)"/>
<use xlink:href="#stroke0_3291_6" transform="translate(106.182 75.2717) scale(0.00941702) rotate(-117.465)"/>
<use xlink:href="#stroke0_3291_6" transform="translate(108.118 76.839) scale(0.0108522) rotate(-174.253)"/>
<use xlink:href="#stroke0_3291_6" transform="translate(103.612 74.919) scale(0.0105374) rotate(-8.73329)"/>
<use xlink:href="#stroke0_3291_6" transform="translate(104.774 75.4837) scale(0.0118386) rotate(37.0439)"/>
<use xlink:href="#stroke0_3291_6" transform="translate(99.8047 77.6286) scale(0.0214597) rotate(-8.34585)"/>
<use xlink:href="#stroke0_3291_6" transform="translate(104.624 82.0392) scale(0.00936986) rotate(109.114)"/>
<use xlink:href="#stroke0_3291_6" transform="translate(99.4067 83.2484) scale(0.0111727) rotate(-18.9166)"/>
<use xlink:href="#stroke0_3291_6" transform="translate(98.7343 83.9218) scale(0.011626) rotate(1.89108)"/>
<use xlink:href="#stroke0_3291_6" transform="translate(98.7732 85.676) scale(0.00923147) rotate(14.2189)"/>
<use xlink:href="#stroke0_3291_6" transform="translate(96.4586 89.281) scale(0.00996769) rotate(-60.3539)"/>
<use xlink:href="#stroke0_3291_6" transform="translate(97.4807 86.9453) scale(0.0144412) rotate(43.8975)"/>
<use xlink:href="#stroke0_3291_6" transform="translate(93.2292 87.3701) scale(0.0244839) rotate(22.9499)"/>
<use xlink:href="#stroke0_3291_6" transform="translate(95.4746 95.4527) scale(0.00977169) rotate(152.968)"/>
<use xlink:href="#stroke0_3291_6" transform="translate(96.5401 96.1467) scale(0.0221312) rotate(130.031)"/>
<use xlink:href="#stroke0_3291_6" transform="translate(93.5794 97.6867) scale(0.0211502) rotate(117.448)"/>
<use xlink:href="#stroke0_3291_6" transform="translate(87.9577 102.049) scale(0.00966308) rotate(-174.911)"/>
<use xlink:href="#stroke0_3291_6" transform="translate(84.9274 98.8403) scale(0.0123809) rotate(37.4556)"/>
<use xlink:href="#stroke0_3291_6" transform="translate(83.4791 100.328) scale(0.00919148) rotate(40.4757)"/>
<use xlink:href="#stroke0_3291_6" transform="translate(82.723 105.507) scale(0.00935594) rotate(-145.648)"/>
<use xlink:href="#stroke0_3291_6" transform="translate(78.4088 104.99) scale(0.0109741) rotate(-67.285)"/>
<use xlink:href="#stroke0_3291_6" transform="translate(81.6283 105.485) scale(0.0108587) rotate(148.589)"/>
<use xlink:href="#stroke0_3291_6" transform="translate(76.5372 103.722) scale(0.0102731) rotate(15.9542)"/>
<use xlink:href="#stroke0_3291_6" transform="translate(74.7906 112.076) scale(0.0238029) rotate(-134.727)"/>
<use xlink:href="#stroke0_3291_6" transform="translate(69.1575 109.624) scale(0.0144221) rotate(-80.0931)"/>
<use xlink:href="#stroke0_3291_6" transform="translate(72.1978 107.535) scale(0.0101579) rotate(109.858)"/>
<use xlink:href="#stroke0_3291_6" transform="translate(68.2324 105.58) scale(0.0136696) rotate(47.5587)"/>
<use xlink:href="#stroke0_3291_6" transform="translate(63.77 107.244) scale(0.0131252) rotate(0.21422)"/>
<use xlink:href="#stroke0_3291_6" transform="translate(65.4886 104.704) scale(0.0236239) rotate(73.1836)"/>
<use xlink:href="#stroke0_3291_6" transform="translate(59.6863 107.016) scale(0.0130936) rotate(42.2121)"/>
<use xlink:href="#stroke0_3291_6" transform="translate(56.2538 107.604) scale(0.0121422) rotate(13.8959)"/>
<use xlink:href="#stroke0_3291_6" transform="translate(51.9228 113.848) scale(0.0205518) rotate(-96.5658)"/>
<use xlink:href="#stroke0_3291_6" transform="translate(53.9593 108.102) scale(0.0106638) rotate(84.335)"/>
<use xlink:href="#stroke0_3291_6" transform="translate(46.2304 111.838) scale(0.0181422) rotate(-74.2136)"/>
<use xlink:href="#stroke0_3291_6" transform="translate(43.6883 108.404) scale(0.0154734) rotate(-32.8209)"/>
<use xlink:href="#stroke0_3291_6" transform="translate(48.0617 104.492) scale(0.024553) rotate(89.8643)"/>
<use xlink:href="#stroke0_3291_6" transform="translate(38.3927 111.138) scale(0.0173659) rotate(-103.368)"/>
<use xlink:href="#stroke0_3291_6" transform="translate(38.7256 109.657) scale(0.0115869) rotate(-145.623)"/>
<use xlink:href="#stroke0_3291_6" transform="translate(40.4436 105.244) scale(0.0207785) rotate(123.273)"/>
<use xlink:href="#stroke0_3291_6" transform="translate(36.0075 103.095) scale(0.0147405) rotate(104.197)"/>
<use xlink:href="#stroke0_3291_6" transform="translate(26.4809 100.47) scale(0.0209323) rotate(-9.50783)"/>
<use xlink:href="#stroke0_3291_6" transform="translate(22.3991 102.428) scale(0.0217547) rotate(-56.2472)"/>
<use xlink:href="#stroke0_3291_6" transform="translate(25.5031 93.8409) scale(0.0243012) rotate(57.5432)"/>
<use xlink:href="#stroke0_3291_6" transform="translate(23.7842 100.023) scale(0.0150219) rotate(-169.881)"/>
<use xlink:href="#stroke0_3291_6" transform="translate(22.6033 95.3881) scale(0.00937591) rotate(127.905)"/>
<use xlink:href="#stroke0_3291_6" transform="translate(17.6192 97.351) scale(0.0143175) rotate(-111.61)"/>
<use xlink:href="#stroke0_3291_6" transform="translate(14.0582 88.1291) scale(0.0212999) rotate(10.6089)"/>
<use xlink:href="#stroke0_3291_6" transform="translate(18.018 88.3357) scale(0.0163582) rotate(107.782)"/>
<use xlink:href="#stroke0_3291_6" transform="translate(9.39755 86.4835) scale(0.0172859) rotate(-31.0083)"/>
<use xlink:href="#stroke0_3291_6" transform="translate(8.97231 83.7952) scale(0.013685) rotate(-13.3093)"/>
<use xlink:href="#stroke0_3291_6" transform="translate(13.0469 85.366) scale(0.0139832) rotate(165.383)"/>
<use xlink:href="#stroke0_3291_6" transform="translate(14.6147 81.7373) scale(0.023952) rotate(144.954)"/>
<use xlink:href="#stroke0_3291_6" transform="translate(3.22635 79.18) scale(0.01977) rotate(-67.8155)"/>
<use xlink:href="#stroke0_3291_6" transform="translate(4.43835 76.2413) scale(0.00978641) rotate(-72.7034)"/>
<use xlink:href="#stroke0_3291_6" transform="translate(8.16815 74.5637) scale(0.0105763) rotate(156.903)"/>
<use xlink:href="#stroke0_3291_6" transform="translate(6.57074 74.6199) scale(0.0137472) rotate(-159.476)"/>
<use xlink:href="#stroke0_3291_6" transform="translate(7.93643 66.7433) scale(0.0171039) rotate(97.1293)"/>
<use xlink:href="#stroke0_3291_6" transform="translate(-0.518045 65.4614) scale(0.0194553) rotate(-36.2713)"/>
<use xlink:href="#stroke0_3291_6" transform="translate(1.869 61.5257) scale(0.0124715) rotate(-2.57799)"/>
<use xlink:href="#stroke0_3291_6" transform="translate(4.92578 59.3874) scale(0.0117904) rotate(82.045)"/>
<use xlink:href="#stroke0_3291_6" transform="translate(1.37356 58.2621) scale(0.0106275) rotate(-11.0083)"/>
<use xlink:href="#stroke0_3291_6" transform="translate(0.775618 60.1841) scale(0.0170593) rotate(-90.5218)"/>
<use xlink:href="#stroke0_3291_6" transform="translate(3.38235 59.177) scale(0.0215097) rotate(-137.79)"/>
<use xlink:href="#stroke0_3291_6" transform="translate(-0.672556 52.5937) scale(0.0202504) rotate(-69.4144)"/>
<use xlink:href="#stroke0_3291_6" transform="translate(6.1948 48.2108) scale(0.0101508) rotate(135.772)"/>
<use xlink:href="#stroke0_3291_6" transform="translate(3.94759 42.7655) scale(0.0145404) rotate(37.9905)"/>
<use xlink:href="#stroke0_3291_6" transform="translate(2.45416 43.3186) scale(0.0112387) rotate(-28.6691)"/>
<use xlink:href="#stroke0_3291_6" transform="translate(10.0199 42.6442) scale(0.0190078) rotate(146.859)"/>
<use xlink:href="#stroke0_3291_6" transform="translate(3.41416 39.923) scale(0.0141396) rotate(-60.4056)"/>
<use xlink:href="#stroke0_3291_6" transform="translate(5.08047 35.9307) scale(0.0095916) rotate(-13.9727)"/>
<use xlink:href="#stroke0_3291_6" transform="translate(6.37714 38.2508) scale(0.0140824) rotate(-104.61)"/>
<use xlink:href="#stroke0_3291_6" transform="translate(4.83663 31.9365) scale(0.0199589) rotate(-33.3996)"/>
<use xlink:href="#stroke0_3291_6" transform="translate(7.8966 27.1992) scale(0.0161992) rotate(2.98914)"/>
<use xlink:href="#stroke0_3291_6" transform="translate(14.0695 28.8792) scale(0.00910598) rotate(143.5)"/>
<use xlink:href="#stroke0_3291_6" transform="translate(16.4654 27.8687) scale(0.015127) rotate(150.801)"/>
<use xlink:href="#stroke0_3291_6" transform="translate(18.7236 21.9096) scale(0.0203446) rotate(103.221)"/>
<use xlink:href="#stroke0_3291_6" transform="translate(14.9279 24.7961) scale(0.0126766) rotate(-107.624)"/>
<use xlink:href="#stroke0_3291_6" transform="translate(14.8241 18.5337) scale(0.0166683) rotate(-14.5283)"/>
<use xlink:href="#stroke0_3291_6" transform="translate(23.1123 20.1132) scale(0.0149302) rotate(159.371)"/>
<use xlink:href="#stroke0_3291_6" transform="translate(20.6732 19.4581) scale(0.0102479) rotate(-116.115)"/>
<use xlink:href="#stroke0_3291_6" transform="translate(23.743 10.0688) scale(0.0234982) rotate(44.1281)"/>
<use xlink:href="#stroke0_3291_6" transform="translate(26.4838 11.2256) scale(0.0103709) rotate(61.5216)"/>
<use xlink:href="#stroke0_3291_6" transform="translate(24.6757 11.4409) scale(0.0122807) rotate(-24.0525)"/>
<use xlink:href="#stroke0_3291_6" transform="translate(27.4255 13.4131) scale(0.0101187) rotate(-93.0427)"/>
<use xlink:href="#stroke0_3291_6" transform="translate(32.7526 9.8066) scale(0.0105158) rotate(111.115)"/>
<use xlink:href="#stroke0_3291_6" transform="translate(28.8494 12.3293) scale(0.0207115) rotate(-82.6687)"/>
<use xlink:href="#stroke0_3291_6" transform="translate(37.623 12.4507) scale(0.0208155) rotate(-157.093)"/>
<use xlink:href="#stroke0_3291_6" transform="translate(38.6167 4.1817) scale(0.0122729) rotate(47.147)"/>
<use xlink:href="#stroke0_3291_6" transform="translate(37.9802 6.605) scale(0.00938834) rotate(-50.6592)"/>
<use xlink:href="#stroke0_3291_6" transform="translate(47.454 8.49476) scale(0.0233925) rotate(165.795)"/>
<use xlink:href="#stroke0_3291_6" transform="translate(43.5258 6.11269) scale(0.00909603) rotate(-68.274)"/>
<use xlink:href="#stroke0_3291_6" transform="translate(49.526 5.51131) scale(0.0112069) rotate(154.991)"/>
<use xlink:href="#stroke0_3291_6" transform="translate(46.0616 4.37628) scale(0.0133398) rotate(-39.6486)"/>
<use xlink:href="#stroke0_3291_6" transform="translate(57.6516 5.94822) scale(0.0244119) rotate(153.328)"/>
<use xlink:href="#stroke0_3291_6" transform="translate(53.0478 2.72501) scale(0.0112456) rotate(-11.8746)"/>
<use xlink:href="#stroke0_3291_6" transform="translate(52.4818 3.872) scale(0.0245666) rotate(-46.0833)"/>
<use xlink:href="#stroke0_3291_6" transform="translate(58.4789 5.23783) scale(0.0123031) rotate(-60.618)"/>
<use xlink:href="#stroke0_3291_6" transform="translate(66.6316 4.38524) scale(0.0136723) rotate(132.748)"/>
<use xlink:href="#stroke0_3291_6" transform="translate(62.3274 3.47711) scale(0.0167326) rotate(-21.6737)"/>
<use xlink:href="#stroke0_3291_6" transform="translate(66.767 7.16822) scale(0.00976881) rotate(-100)"/>
<use xlink:href="#stroke0_3291_6" transform="translate(73.6525 7.9173) scale(0.0168711) rotate(163.843)"/>
<use xlink:href="#stroke0_3291_6" transform="translate(74.8842 6.34642) scale(0.0103625) rotate(133.226)"/>
<use xlink:href="#stroke0_3291_6" transform="translate(75.5363 2.52439) scale(0.0202318) rotate(52.2428)"/>
<use xlink:href="#stroke0_3291_6" transform="translate(74.9362 7.49813) scale(0.0102705) rotate(-29.745)"/>
<use xlink:href="#stroke0_3291_6" transform="translate(81.0727 7.13306) scale(0.0116287) rotate(95.619)"/>
<use xlink:href="#stroke0_3291_6" transform="translate(82.9552 12.4726) scale(0.0144156) rotate(-173.25)"/>
<use xlink:href="#stroke0_3291_6" transform="translate(80.8552 9.20039) scale(0.0111639) rotate(2.50538)"/>
<use xlink:href="#stroke0_3291_6" transform="translate(82.2125 10.5323) scale(0.010452) rotate(-15.3354)"/>
<use xlink:href="#stroke0_3291_6" transform="translate(84.1692 18.3616) scale(0.0235349) rotate(-109.25)"/>
<use xlink:href="#stroke0_3291_6" transform="translate(91.8942 14.6455) scale(0.0122294) rotate(124.416)"/>
<use xlink:href="#stroke0_3291_6" transform="translate(88.413 18.3566) scale(0.0120116) rotate(-86.2367)"/>
<use xlink:href="#stroke0_3291_6" transform="translate(96.1733 16.0645) scale(0.0193796) rotate(102.396)"/>
<use xlink:href="#stroke0_3291_6" transform="translate(91.9296 17.98) scale(0.01474) rotate(0.595124)"/>
<use xlink:href="#stroke0_3291_6" transform="translate(98.3618 27.9042) scale(0.0236588) rotate(-153.509)"/>
<use xlink:href="#stroke0_3291_6" transform="translate(96.839 23.1523) scale(0.00970671) rotate(3.87487)"/>
<use xlink:href="#stroke0_3291_6" transform="translate(100.141 30.4473) scale(0.016891) rotate(-140.168)"/>
<use xlink:href="#stroke0_3291_6" transform="translate(103.167 31.8718) scale(0.0154571) rotate(-166.941)"/>
<use xlink:href="#stroke0_3291_6" transform="translate(101.485 26.4495) scale(0.0224619) rotate(28.71)"/>
<use xlink:href="#stroke0_3291_6" transform="translate(99.2378 34.7786) scale(0.0218312) rotate(-44.2704)"/>
<use xlink:href="#stroke0_3291_6" transform="translate(108.517 38.6128) scale(0.0134514) rotate(153.471)"/>
<use xlink:href="#stroke0_3291_6" transform="translate(103.007 42.3192) scale(0.0175099) rotate(-80.0424)"/>
<use xlink:href="#stroke0_3291_6" transform="translate(107.015 46.6078) scale(0.0170502) rotate(-127.761)"/>
<use xlink:href="#stroke0_3291_6" transform="translate(110.639 43.3404) scale(0.0126827) rotate(98.8981)"/>
<use xlink:href="#stroke0_3291_6" transform="translate(106.386 50.0329) scale(0.0139862) rotate(-101.563)"/>
<use xlink:href="#stroke0_3291_6" transform="translate(106.013 49.36) scale(0.0116433) rotate(-44.8693)"/>
<use xlink:href="#stroke0_3291_6" transform="translate(111.242 50.9525) scale(0.0104905) rotate(127.45)"/>
<use xlink:href="#stroke0_3291_6" transform="translate(105.929 52.3525) scale(0.013281) rotate(-29.6558)"/>
<use xlink:href="#stroke0_3291_6" transform="translate(107.18 53.3115) scale(0.0121611) rotate(-1.05633)"/>
<use xlink:href="#stroke0_3291_6" transform="translate(108.912 59.1594) scale(0.00924258) rotate(-124.637)"/>
<path d="M24.7303 71.0374L36.3463 57.0454H21.5143V53.9254H40.9543V57.0694L29.3623 71.0374H24.7303ZM63.9548 71.0614C61.4588 71.0614 59.5228 70.3094 58.1468 68.8054C56.7708 67.2854 56.0828 65.1654 56.0828 62.4454C56.0828 59.4854 56.9388 57.3174 58.6508 55.9414C60.3788 54.5654 62.7868 53.8774 65.8748 53.8774H75.5468V56.9974H66.1388C64.3948 56.9974 63.0108 57.2934 61.9868 57.8854C60.9788 58.4614 60.3548 59.4774 60.1148 60.9334H71.3228C73.0988 60.9334 74.4988 61.3814 75.5228 62.2774C76.5468 63.1574 77.0588 64.3814 77.0588 65.9494C77.0588 67.5654 76.5468 68.8214 75.5228 69.7174C74.4988 70.6134 73.0988 71.0614 71.3228 71.0614H63.9548ZM64.2188 67.9414H70.5788C71.4588 67.9414 72.1388 67.7814 72.6188 67.4614C73.0988 67.1254 73.3388 66.6294 73.3388 65.9734C73.3388 65.3334 73.0988 64.8534 72.6188 64.5334C72.1388 64.2134 71.4588 64.0534 70.5788 64.0534H60.1148C60.4828 66.6454 61.8508 67.9414 64.2188 67.9414Z" fill="#FFEC5F"/>
<path d="M45.5708 61.5934H51.8228V62.4694H45.5708V61.5934ZM45.5708 64.4854H51.8828V65.3374H45.5708V64.4854ZM45.4748 67.3774H51.8228V68.2534H45.4748V67.3774ZM45.0068 61.5934H45.9188V65.2894C45.9188 65.8094 45.8908 66.3654 45.8348 66.9574C45.7868 67.5494 45.6828 68.1494 45.5228 68.7574C45.3628 69.3574 45.1228 69.9374 44.8028 70.4974C44.4908 71.0574 44.0748 71.5614 43.5548 72.0094C43.5148 71.9454 43.4508 71.8694 43.3628 71.7814C43.2828 71.6934 43.1988 71.6094 43.1108 71.5294C43.0228 71.4574 42.9428 71.4014 42.8708 71.3614C43.3588 70.9294 43.7428 70.4654 44.0228 69.9694C44.3108 69.4654 44.5228 68.9454 44.6588 68.4094C44.8028 67.8734 44.8948 67.3414 44.9348 66.8134C44.9828 66.2774 45.0068 65.7694 45.0068 65.2894V61.5934ZM51.4268 61.5934H52.3748V70.6654C52.3748 70.9854 52.3268 71.2294 52.2308 71.3974C52.1348 71.5654 51.9748 71.6894 51.7508 71.7694C51.5188 71.8494 51.1948 71.8974 50.7788 71.9134C50.3628 71.9374 49.8348 71.9494 49.1948 71.9494C49.1788 71.8534 49.1468 71.7494 49.0988 71.6374C49.0588 71.5254 49.0108 71.4094 48.9548 71.2894C48.9068 71.1774 48.8588 71.0814 48.8108 71.0014C49.1468 71.0094 49.4668 71.0174 49.7708 71.0254C50.0828 71.0254 50.3508 71.0254 50.5748 71.0254C50.8068 71.0174 50.9668 71.0134 51.0548 71.0134C51.1988 71.0054 51.2948 70.9774 51.3428 70.9294C51.3988 70.8734 51.4268 70.7814 51.4268 70.6534V61.5934ZM81.0988 61.7734H88.9708V71.8054H88.0108V62.6734H82.0228V71.8654H81.0988V61.7734ZM81.7228 65.9254H88.4188V66.8134H81.7228V65.9254ZM81.6988 70.1854H88.4308V71.0854H81.6988V70.1854Z" fill="white"/>
<mask id="path-5-outside-1_3291_6" maskUnits="userSpaceOnUse" x="23.3286" y="36.0374" width="66" height="13" fill="black">
<rect fill="white" x="23.3286" y="36.0374" width="66" height="13"/>
<path d="M23.7636 47.0374V44.4934C23.7636 43.6934 23.9876 43.0734 24.4356 42.6334C24.8836 42.1934 25.5356 41.9734 26.3916 41.9734H30.3396C31.0996 41.9734 31.4796 41.6494 31.4796 41.0014C31.4796 40.3534 31.0996 40.0294 30.3396 40.0294H23.9556V38.4694H30.7116C31.5436 38.4694 32.1876 38.6934 32.6436 39.1414C33.1076 39.5894 33.3396 40.2094 33.3396 41.0014C33.3396 41.7934 33.1076 42.4134 32.6436 42.8614C32.1876 43.3094 31.5436 43.5334 30.7116 43.5334H26.6556C26.3116 43.5334 26.0516 43.6214 25.8756 43.7974C25.7076 43.9654 25.6236 44.2054 25.6236 44.5174V45.4894H33.1116V47.0374H23.7636ZM41.4804 47.0974C39.9364 47.0974 38.7324 46.7334 37.8684 46.0054C37.0124 45.2694 36.5844 44.1814 36.5844 42.7414C36.5844 41.3094 37.0124 40.2294 37.8684 39.5014C38.7324 38.7654 39.9364 38.3974 41.4804 38.3974H43.0404C44.5924 38.3974 45.7964 38.7654 46.6524 39.5014C47.5084 40.2294 47.9364 41.3094 47.9364 42.7414C47.9364 44.1814 47.5084 45.2694 46.6524 46.0054C45.7964 46.7334 44.5924 47.0974 43.0404 47.0974H41.4804ZM38.5404 42.7414C38.5404 43.6134 38.7524 44.2774 39.1764 44.7334L43.8804 40.0414C43.5924 39.9854 43.2684 39.9574 42.9084 39.9574H41.6124C40.6044 39.9574 39.8404 40.1774 39.3204 40.6174C38.8004 41.0574 38.5404 41.7654 38.5404 42.7414ZM41.6124 45.5374H42.9084C43.9164 45.5374 44.6804 45.3174 45.2004 44.8774C45.7204 44.4294 45.9804 43.7174 45.9804 42.7414C45.9804 41.8694 45.7644 41.2054 45.3324 40.7494L40.6164 45.4534C40.9124 45.5094 41.2444 45.5374 41.6124 45.5374ZM51.1808 47.0374V44.4934C51.1808 43.6934 51.4048 43.0734 51.8528 42.6334C52.3008 42.1934 52.9528 41.9734 53.8088 41.9734H57.7568C58.5168 41.9734 58.8968 41.6494 58.8968 41.0014C58.8968 40.3534 58.5168 40.0294 57.7568 40.0294H51.3728V38.4694H58.1288C58.9608 38.4694 59.6048 38.6934 60.0608 39.1414C60.5248 39.5894 60.7568 40.2094 60.7568 41.0014C60.7568 41.7934 60.5248 42.4134 60.0608 42.8614C59.6048 43.3094 58.9608 43.5334 58.1288 43.5334H54.0728C53.7288 43.5334 53.4688 43.6214 53.2928 43.7974C53.1248 43.9654 53.0408 44.2054 53.0408 44.5174V45.4894H60.5288V47.0374H51.1808ZM67.9376 47.0494C66.6896 47.0494 65.7216 46.6734 65.0336 45.9214C64.3456 45.1614 64.0016 44.1014 64.0016 42.7414C64.0016 41.2614 64.4296 40.1774 65.2856 39.4894C66.1496 38.8014 67.3536 38.4574 68.8976 38.4574H73.7336V40.0174H69.0296C68.1576 40.0174 67.4656 40.1654 66.9536 40.4614C66.4496 40.7494 66.1376 41.2574 66.0176 41.9854H71.6216C72.5096 41.9854 73.2096 42.2094 73.7216 42.6574C74.2336 43.0974 74.4896 43.7094 74.4896 44.4934C74.4896 45.3014 74.2336 45.9294 73.7216 46.3774C73.2096 46.8254 72.5096 47.0494 71.6216 47.0494H67.9376ZM68.0696 45.4894H71.2496C71.6896 45.4894 72.0296 45.4094 72.2696 45.2494C72.5096 45.0814 72.6296 44.8334 72.6296 44.5054C72.6296 44.1854 72.5096 43.9454 72.2696 43.7854C72.0296 43.6254 71.6896 43.5454 71.2496 43.5454H66.0176C66.2016 44.8414 66.8856 45.4894 68.0696 45.4894ZM80.5776 36.9094L81.4896 37.1494C81.2656 37.7334 81.0016 38.3054 80.6976 38.8654C80.4016 39.4174 80.0776 39.9334 79.7256 40.4134C79.3736 40.8854 79.0096 41.3014 78.6336 41.6614C78.5776 41.6134 78.5016 41.5534 78.4056 41.4814C78.3176 41.4014 78.2216 41.3254 78.1176 41.2534C78.0216 41.1814 77.9336 41.1254 77.8536 41.0854C78.2376 40.7494 78.5976 40.3654 78.9336 39.9334C79.2776 39.4934 79.5896 39.0174 79.8696 38.5054C80.1496 37.9854 80.3856 37.4534 80.5776 36.9094ZM80.3976 38.4094H88.1376V39.2734H79.9536L80.3976 38.4094ZM79.8096 41.1214H87.8616V41.9734H80.7096V44.8054H79.8096V41.1214ZM77.8296 44.3614H88.7016V45.2254H77.8296V44.3614ZM83.3976 38.8654H84.3216V47.9974H83.3976V38.8654Z"/>
</mask>
<path d="M23.7636 47.0374V44.4934C23.7636 43.6934 23.9876 43.0734 24.4356 42.6334C24.8836 42.1934 25.5356 41.9734 26.3916 41.9734H30.3396C31.0996 41.9734 31.4796 41.6494 31.4796 41.0014C31.4796 40.3534 31.0996 40.0294 30.3396 40.0294H23.9556V38.4694H30.7116C31.5436 38.4694 32.1876 38.6934 32.6436 39.1414C33.1076 39.5894 33.3396 40.2094 33.3396 41.0014C33.3396 41.7934 33.1076 42.4134 32.6436 42.8614C32.1876 43.3094 31.5436 43.5334 30.7116 43.5334H26.6556C26.3116 43.5334 26.0516 43.6214 25.8756 43.7974C25.7076 43.9654 25.6236 44.2054 25.6236 44.5174V45.4894H33.1116V47.0374H23.7636ZM41.4804 47.0974C39.9364 47.0974 38.7324 46.7334 37.8684 46.0054C37.0124 45.2694 36.5844 44.1814 36.5844 42.7414C36.5844 41.3094 37.0124 40.2294 37.8684 39.5014C38.7324 38.7654 39.9364 38.3974 41.4804 38.3974H43.0404C44.5924 38.3974 45.7964 38.7654 46.6524 39.5014C47.5084 40.2294 47.9364 41.3094 47.9364 42.7414C47.9364 44.1814 47.5084 45.2694 46.6524 46.0054C45.7964 46.7334 44.5924 47.0974 43.0404 47.0974H41.4804ZM38.5404 42.7414C38.5404 43.6134 38.7524 44.2774 39.1764 44.7334L43.8804 40.0414C43.5924 39.9854 43.2684 39.9574 42.9084 39.9574H41.6124C40.6044 39.9574 39.8404 40.1774 39.3204 40.6174C38.8004 41.0574 38.5404 41.7654 38.5404 42.7414ZM41.6124 45.5374H42.9084C43.9164 45.5374 44.6804 45.3174 45.2004 44.8774C45.7204 44.4294 45.9804 43.7174 45.9804 42.7414C45.9804 41.8694 45.7644 41.2054 45.3324 40.7494L40.6164 45.4534C40.9124 45.5094 41.2444 45.5374 41.6124 45.5374ZM51.1808 47.0374V44.4934C51.1808 43.6934 51.4048 43.0734 51.8528 42.6334C52.3008 42.1934 52.9528 41.9734 53.8088 41.9734H57.7568C58.5168 41.9734 58.8968 41.6494 58.8968 41.0014C58.8968 40.3534 58.5168 40.0294 57.7568 40.0294H51.3728V38.4694H58.1288C58.9608 38.4694 59.6048 38.6934 60.0608 39.1414C60.5248 39.5894 60.7568 40.2094 60.7568 41.0014C60.7568 41.7934 60.5248 42.4134 60.0608 42.8614C59.6048 43.3094 58.9608 43.5334 58.1288 43.5334H54.0728C53.7288 43.5334 53.4688 43.6214 53.2928 43.7974C53.1248 43.9654 53.0408 44.2054 53.0408 44.5174V45.4894H60.5288V47.0374H51.1808ZM67.9376 47.0494C66.6896 47.0494 65.7216 46.6734 65.0336 45.9214C64.3456 45.1614 64.0016 44.1014 64.0016 42.7414C64.0016 41.2614 64.4296 40.1774 65.2856 39.4894C66.1496 38.8014 67.3536 38.4574 68.8976 38.4574H73.7336V40.0174H69.0296C68.1576 40.0174 67.4656 40.1654 66.9536 40.4614C66.4496 40.7494 66.1376 41.2574 66.0176 41.9854H71.6216C72.5096 41.9854 73.2096 42.2094 73.7216 42.6574C74.2336 43.0974 74.4896 43.7094 74.4896 44.4934C74.4896 45.3014 74.2336 45.9294 73.7216 46.3774C73.2096 46.8254 72.5096 47.0494 71.6216 47.0494H67.9376ZM68.0696 45.4894H71.2496C71.6896 45.4894 72.0296 45.4094 72.2696 45.2494C72.5096 45.0814 72.6296 44.8334 72.6296 44.5054C72.6296 44.1854 72.5096 43.9454 72.2696 43.7854C72.0296 43.6254 71.6896 43.5454 71.2496 43.5454H66.0176C66.2016 44.8414 66.8856 45.4894 68.0696 45.4894ZM80.5776 36.9094L81.4896 37.1494C81.2656 37.7334 81.0016 38.3054 80.6976 38.8654C80.4016 39.4174 80.0776 39.9334 79.7256 40.4134C79.3736 40.8854 79.0096 41.3014 78.6336 41.6614C78.5776 41.6134 78.5016 41.5534 78.4056 41.4814C78.3176 41.4014 78.2216 41.3254 78.1176 41.2534C78.0216 41.1814 77.9336 41.1254 77.8536 41.0854C78.2376 40.7494 78.5976 40.3654 78.9336 39.9334C79.2776 39.4934 79.5896 39.0174 79.8696 38.5054C80.1496 37.9854 80.3856 37.4534 80.5776 36.9094ZM80.3976 38.4094H88.1376V39.2734H79.9536L80.3976 38.4094ZM79.8096 41.1214H87.8616V41.9734H80.7096V44.8054H79.8096V41.1214ZM77.8296 44.3614H88.7016V45.2254H77.8296V44.3614ZM83.3976 38.8654H84.3216V47.9974H83.3976V38.8654Z" fill="white"/>
<path d="M23.7636 47.0374H23.5636V47.2374H23.7636V47.0374ZM23.9556 40.0294H23.7556V40.2294H23.9556V40.0294ZM23.9556 38.4694V38.2694H23.7556V38.4694H23.9556ZM32.6436 39.1414L32.5034 39.284L32.5047 39.2852L32.6436 39.1414ZM32.6436 42.8614L32.5047 42.7175L32.5035 42.7187L32.6436 42.8614ZM25.8756 43.7974L26.017 43.9388L26.017 43.9388L25.8756 43.7974ZM25.6236 45.4894H25.4236V45.6894H25.6236V45.4894ZM33.1116 45.4894H33.3116V45.2894H33.1116V45.4894ZM33.1116 47.0374V47.2374H33.3116V47.0374H33.1116ZM23.7636 47.0374H23.9636V44.4934H23.7636H23.5636V47.0374H23.7636ZM23.7636 44.4934H23.9636C23.9636 43.7315 24.1758 43.1688 24.5758 42.776L24.4356 42.6334L24.2955 42.4907C23.7994 42.9779 23.5636 43.6552 23.5636 44.4934H23.7636ZM24.4356 42.6334L24.5758 42.776C24.9745 42.3845 25.5686 42.1734 26.3916 42.1734V41.9734V41.7734C25.5027 41.7734 24.7928 42.0022 24.2955 42.4907L24.4356 42.6334ZM26.3916 41.9734V42.1734H30.3396V41.9734V41.7734H26.3916V41.9734ZM30.3396 41.9734V42.1734C30.7433 42.1734 31.0834 42.088 31.3244 41.8825C31.5714 41.6719 31.6796 41.3653 31.6796 41.0014H31.4796H31.2796C31.2796 41.2854 31.1978 41.4648 31.0649 41.5782C30.9258 41.6967 30.6959 41.7734 30.3396 41.7734V41.9734ZM31.4796 41.0014H31.6796C31.6796 40.6374 31.5714 40.3308 31.3244 40.1202C31.0834 39.9147 30.7433 39.8294 30.3396 39.8294V40.0294V40.2294C30.6959 40.2294 30.9258 40.306 31.0649 40.4245C31.1978 40.5379 31.2796 40.7173 31.2796 41.0014H31.4796ZM30.3396 40.0294V39.8294H23.9556V40.0294V40.2294H30.3396V40.0294ZM23.9556 40.0294H24.1556V38.4694H23.9556H23.7556V40.0294H23.9556ZM23.9556 38.4694V38.6694H30.7116V38.4694V38.2694H23.9556V38.4694ZM30.7116 38.4694V38.6694C31.5076 38.6694 32.0951 38.8829 32.5035 39.284L32.6436 39.1414L32.7838 38.9987C32.2801 38.5038 31.5796 38.2694 30.7116 38.2694V38.4694ZM32.6436 39.1414L32.5047 39.2852C32.9211 39.6873 33.1396 40.2504 33.1396 41.0014H33.3396H33.5396C33.5396 40.1683 33.2941 39.4914 32.7825 38.9975L32.6436 39.1414ZM33.3396 41.0014H33.1396C33.1396 41.7523 32.9211 42.3154 32.5047 42.7175L32.6436 42.8614L32.7825 43.0052C33.2941 42.5113 33.5396 41.8344 33.5396 41.0014H33.3396ZM32.6436 42.8614L32.5035 42.7187C32.0951 43.1198 31.5076 43.3334 30.7116 43.3334V43.5334V43.7334C31.5796 43.7334 32.2801 43.4989 32.7838 43.004L32.6436 42.8614ZM30.7116 43.5334V43.3334H26.6556V43.5334V43.7334H30.7116V43.5334ZM26.6556 43.5334V43.3334C26.2792 43.3334 25.9601 43.43 25.7342 43.6559L25.8756 43.7974L26.017 43.9388C26.1431 43.8127 26.344 43.7334 26.6556 43.7334V43.5334ZM25.8756 43.7974L25.7342 43.6559C25.518 43.8721 25.4236 44.1696 25.4236 44.5174H25.6236H25.8236C25.8236 44.2411 25.8972 44.0586 26.017 43.9388L25.8756 43.7974ZM25.6236 44.5174H25.4236V45.4894H25.6236H25.8236V44.5174H25.6236ZM25.6236 45.4894V45.6894H33.1116V45.4894V45.2894H25.6236V45.4894ZM33.1116 45.4894H32.9116V47.0374H33.1116H33.3116V45.4894H33.1116ZM33.1116 47.0374V46.8374H23.7636V47.0374V47.2374H33.1116V47.0374ZM37.8684 46.0054L37.738 46.157L37.7395 46.1583L37.8684 46.0054ZM37.8684 39.5014L37.998 39.6537L37.9981 39.6536L37.8684 39.5014ZM46.6524 39.5014L46.522 39.653L46.5228 39.6537L46.6524 39.5014ZM46.6524 46.0054L46.782 46.1577L46.7828 46.157L46.6524 46.0054ZM39.1764 44.7334L39.0299 44.8695L39.171 45.0212L39.3176 44.875L39.1764 44.7334ZM43.8804 40.0414L44.0216 40.183L44.2883 39.9169L43.9186 39.845L43.8804 40.0414ZM45.2004 44.8774L45.3296 45.03L45.3309 45.0289L45.2004 44.8774ZM45.3324 40.7494L45.4776 40.6118L45.3364 40.4628L45.1912 40.6078L45.3324 40.7494ZM40.6164 45.4534L40.4752 45.3118L40.2068 45.5794L40.5792 45.6499L40.6164 45.4534ZM41.4804 47.0974V46.8974C39.9663 46.8974 38.8139 46.5405 37.9973 45.8524L37.8684 46.0054L37.7395 46.1583C38.6509 46.9262 39.9065 47.2974 41.4804 47.2974V47.0974ZM37.8684 46.0054L37.9988 45.8537C37.1986 45.1657 36.7844 44.1403 36.7844 42.7414H36.5844H36.3844C36.3844 44.2224 36.8262 45.373 37.738 46.157L37.8684 46.0054ZM36.5844 42.7414H36.7844C36.7844 41.3507 37.1984 40.3337 37.998 39.6537L37.8684 39.5014L37.7388 39.349C36.8264 40.125 36.3844 41.268 36.3844 42.7414H36.5844ZM37.8684 39.5014L37.9981 39.6536C38.8147 38.958 39.9668 38.5974 41.4804 38.5974V38.3974V38.1974C39.906 38.1974 38.6501 38.5727 37.7387 39.3491L37.8684 39.5014ZM41.4804 38.3974V38.5974H43.0404V38.3974V38.1974H41.4804V38.3974ZM43.0404 38.3974V38.5974C44.5625 38.5974 45.7139 38.9582 46.522 39.653L46.6524 39.5014L46.7828 39.3497C45.8789 38.5725 44.6223 38.1974 43.0404 38.1974V38.3974ZM46.6524 39.5014L46.5228 39.6537C47.3224 40.3337 47.7364 41.3507 47.7364 42.7414H47.9364H48.1364C48.1364 41.268 47.6944 40.125 46.782 39.349L46.6524 39.5014ZM47.9364 42.7414H47.7364C47.7364 44.1403 47.3222 45.1657 46.522 45.8537L46.6524 46.0054L46.7828 46.157C47.6946 45.373 48.1364 44.2224 48.1364 42.7414H47.9364ZM46.6524 46.0054L46.5228 45.853C45.7147 46.5403 44.5629 46.8974 43.0404 46.8974V47.0974V47.2974C44.6218 47.2974 45.8781 46.9264 46.782 46.1577L46.6524 46.0054ZM43.0404 47.0974V46.8974H41.4804V47.0974V47.2974H43.0404V47.0974ZM38.5404 42.7414H38.3404C38.3404 43.6436 38.5598 44.364 39.0299 44.8695L39.1764 44.7334L39.3229 44.5972C38.945 44.1908 38.7404 43.5831 38.7404 42.7414H38.5404ZM39.1764 44.7334L39.3176 44.875L44.0216 40.183L43.8804 40.0414L43.7392 39.8998L39.0352 44.5918L39.1764 44.7334ZM43.8804 40.0414L43.9186 39.845C43.6155 39.7861 43.2784 39.7574 42.9084 39.7574V39.9574V40.1574C43.2583 40.1574 43.5692 40.1846 43.8422 40.2377L43.8804 40.0414ZM42.9084 39.9574V39.7574H41.6124V39.9574V40.1574H42.9084V39.9574ZM41.6124 39.9574V39.7574C40.5791 39.7574 39.7612 39.9824 39.1912 40.4647L39.3204 40.6174L39.4496 40.77C39.9196 40.3723 40.6297 40.1574 41.6124 40.1574V39.9574ZM39.3204 40.6174L39.1912 40.4647C38.6095 40.9569 38.3404 41.7328 38.3404 42.7414H38.5404H38.7404C38.7404 41.7979 38.9913 41.1578 39.4496 40.77L39.3204 40.6174ZM41.6124 45.5374V45.7374H42.9084V45.5374V45.3374H41.6124V45.5374ZM42.9084 45.5374V45.7374C43.9417 45.7374 44.7596 45.5123 45.3296 45.03L45.2004 44.8774L45.0712 44.7247C44.6012 45.1224 43.8911 45.3374 42.9084 45.3374V45.5374ZM45.2004 44.8774L45.3309 45.0289C45.9112 44.529 46.1804 43.7502 46.1804 42.7414H45.9804H45.7804C45.7804 43.6845 45.5296 44.3297 45.0699 44.7258L45.2004 44.8774ZM45.9804 42.7414H46.1804C46.1804 41.8382 45.9565 41.1173 45.4776 40.6118L45.3324 40.7494L45.1872 40.8869C45.5723 41.2934 45.7804 41.9005 45.7804 42.7414H45.9804ZM45.3324 40.7494L45.1912 40.6078L40.4752 45.3118L40.6164 45.4534L40.7576 45.595L45.4736 40.891L45.3324 40.7494ZM40.6164 45.4534L40.5792 45.6499C40.8898 45.7086 41.2346 45.7374 41.6124 45.7374V45.5374V45.3374C41.2542 45.3374 40.935 45.3101 40.6536 45.2568L40.6164 45.4534ZM51.1808 47.0374H50.9808V47.2374H51.1808V47.0374ZM51.3728 40.0294H51.1728V40.2294H51.3728V40.0294ZM51.3728 38.4694V38.2694H51.1728V38.4694H51.3728ZM60.0608 39.1414L59.9206 39.284L59.9219 39.2852L60.0608 39.1414ZM60.0608 42.8614L59.9219 42.7175L59.9206 42.7187L60.0608 42.8614ZM53.2928 43.7974L53.4342 43.9388V43.9388L53.2928 43.7974ZM53.0408 45.4894H52.8408V45.6894H53.0408V45.4894ZM60.5288 45.4894H60.7288V45.2894H60.5288V45.4894ZM60.5288 47.0374V47.2374H60.7288V47.0374H60.5288ZM51.1808 47.0374H51.3808V44.4934H51.1808H50.9808V47.0374H51.1808ZM51.1808 44.4934H51.3808C51.3808 43.7315 51.593 43.1688 51.9929 42.776L51.8528 42.6334L51.7127 42.4907C51.2166 42.9779 50.9808 43.6552 50.9808 44.4934H51.1808ZM51.8528 42.6334L51.9929 42.776C52.3916 42.3845 52.9858 42.1734 53.8088 42.1734V41.9734V41.7734C52.9198 41.7734 52.21 42.0022 51.7127 42.4907L51.8528 42.6334ZM53.8088 41.9734V42.1734H57.7568V41.9734V41.7734H53.8088V41.9734ZM57.7568 41.9734V42.1734C58.1605 42.1734 58.5006 42.088 58.7416 41.8825C58.9886 41.6719 59.0968 41.3653 59.0968 41.0014H58.8968H58.6968C58.6968 41.2854 58.615 41.4648 58.482 41.5782C58.343 41.6967 58.1131 41.7734 57.7568 41.7734V41.9734ZM58.8968 41.0014H59.0968C59.0968 40.6374 58.9886 40.3308 58.7416 40.1202C58.5006 39.9147 58.1605 39.8294 57.7568 39.8294V40.0294V40.2294C58.1131 40.2294 58.343 40.306 58.482 40.4245C58.615 40.5379 58.6968 40.7173 58.6968 41.0014H58.8968ZM57.7568 40.0294V39.8294H51.3728V40.0294V40.2294H57.7568V40.0294ZM51.3728 40.0294H51.5728V38.4694H51.3728H51.1728V40.0294H51.3728ZM51.3728 38.4694V38.6694H58.1288V38.4694V38.2694H51.3728V38.4694ZM58.1288 38.4694V38.6694C58.9248 38.6694 59.5123 38.8829 59.9206 39.284L60.0608 39.1414L60.201 38.9987C59.6973 38.5038 58.9968 38.2694 58.1288 38.2694V38.4694ZM60.0608 39.1414L59.9219 39.2852C60.3383 39.6873 60.5568 40.2504 60.5568 41.0014H60.7568H60.9568C60.9568 40.1683 60.7113 39.4914 60.1997 38.9975L60.0608 39.1414ZM60.7568 41.0014H60.5568C60.5568 41.7523 60.3383 42.3154 59.9219 42.7175L60.0608 42.8614L60.1997 43.0052C60.7113 42.5113 60.9568 41.8344 60.9568 41.0014H60.7568ZM60.0608 42.8614L59.9206 42.7187C59.5123 43.1198 58.9248 43.3334 58.1288 43.3334V43.5334V43.7334C58.9968 43.7334 59.6973 43.4989 60.201 43.004L60.0608 42.8614ZM58.1288 43.5334V43.3334H54.0728V43.5334V43.7334H58.1288V43.5334ZM54.0728 43.5334V43.3334C53.6964 43.3334 53.3773 43.43 53.1514 43.6559L53.2928 43.7974L53.4342 43.9388C53.5603 43.8127 53.7612 43.7334 54.0728 43.7334V43.5334ZM53.2928 43.7974L53.1514 43.6559C52.9352 43.8721 52.8408 44.1696 52.8408 44.5174H53.0408H53.2408C53.2408 44.2411 53.3144 44.0586 53.4342 43.9388L53.2928 43.7974ZM53.0408 44.5174H52.8408V45.4894H53.0408H53.2408V44.5174H53.0408ZM53.0408 45.4894V45.6894H60.5288V45.4894V45.2894H53.0408V45.4894ZM60.5288 45.4894H60.3288V47.0374H60.5288H60.7288V45.4894H60.5288ZM60.5288 47.0374V46.8374H51.1808V47.0374V47.2374H60.5288V47.0374ZM65.0336 45.9214L64.8853 46.0556L64.886 46.0564L65.0336 45.9214ZM65.2856 39.4894L65.161 39.3329L65.1603 39.3335L65.2856 39.4894ZM73.7336 38.4574H73.9336V38.2574H73.7336V38.4574ZM73.7336 40.0174V40.2174H73.9336V40.0174H73.7336ZM66.9536 40.4614L67.0528 40.635L67.0537 40.6345L66.9536 40.4614ZM66.0176 41.9854L65.8202 41.9528L65.7819 42.1854H66.0176V41.9854ZM73.7216 42.6574L73.5899 42.8079L73.5912 42.809L73.7216 42.6574ZM73.7216 46.3774L73.8533 46.5279L73.7216 46.3774ZM72.2696 45.2494L72.3806 45.4158L72.3843 45.4132L72.2696 45.2494ZM72.2696 43.7854L72.1586 43.9518V43.9518L72.2696 43.7854ZM66.0176 43.5454V43.3454H65.7872L65.8196 43.5735L66.0176 43.5454ZM67.9376 47.0494V46.8494C66.7321 46.8494 65.823 46.4879 65.1811 45.7864L65.0336 45.9214L64.886 46.0564C65.6202 46.8588 66.647 47.2494 67.9376 47.2494V47.0494ZM65.0336 45.9214L65.1819 45.7871C64.5368 45.0746 64.2016 44.0683 64.2016 42.7414H64.0016H63.8016C63.8016 44.1344 64.1544 45.2482 64.8853 46.0556L65.0336 45.9214ZM64.0016 42.7414H64.2016C64.2016 41.2995 64.6172 40.2831 65.4109 39.6452L65.2856 39.4894L65.1603 39.3335C64.2419 40.0716 63.8016 41.2232 63.8016 42.7414H64.0016ZM65.2856 39.4894L65.4102 39.6458C66.227 38.9953 67.3811 38.6574 68.8976 38.6574V38.4574V38.2574C67.326 38.2574 66.0721 38.6074 65.161 39.3329L65.2856 39.4894ZM68.8976 38.4574V38.6574H73.7336V38.4574V38.2574H68.8976V38.4574ZM73.7336 38.4574H73.5336V40.0174H73.7336H73.9336V38.4574H73.7336ZM73.7336 40.0174V39.8174H69.0296V40.0174V40.2174H73.7336V40.0174ZM69.0296 40.0174V39.8174C68.138 39.8174 67.407 39.9682 66.8535 40.2882L66.9536 40.4614L67.0537 40.6345C67.5242 40.3625 68.1772 40.2174 69.0296 40.2174V40.0174ZM66.9536 40.4614L66.8544 40.2877C66.2844 40.6134 65.9472 41.1829 65.8202 41.9528L66.0176 41.9854L66.2149 42.0179C66.328 41.3318 66.6148 40.8853 67.0528 40.635L66.9536 40.4614ZM66.0176 41.9854V42.1854H71.6216V41.9854V41.7854H66.0176V41.9854ZM71.6216 41.9854V42.1854C72.4762 42.1854 73.1243 42.4005 73.5899 42.8079L73.7216 42.6574L73.8533 42.5068C73.2949 42.0182 72.5429 41.7854 71.6216 41.7854V41.9854ZM73.7216 42.6574L73.5912 42.809C74.0517 43.2047 74.2896 43.7572 74.2896 44.4934H74.4896H74.6896C74.6896 43.6615 74.4155 42.99 73.8519 42.5057L73.7216 42.6574ZM74.4896 44.4934H74.2896C74.2896 45.2556 74.0503 45.824 73.5899 46.2268L73.7216 46.3774L73.8533 46.5279C74.4169 46.0347 74.6896 45.3471 74.6896 44.4934H74.4896ZM73.7216 46.3774L73.5899 46.2268C73.1243 46.6342 72.4762 46.8494 71.6216 46.8494V47.0494V47.2494C72.5429 47.2494 73.2949 47.0165 73.8533 46.5279L73.7216 46.3774ZM71.6216 47.0494V46.8494H67.9376V47.0494V47.2494H71.6216V47.0494ZM68.0696 45.4894V45.6894H71.2496V45.4894V45.2894H68.0696V45.4894ZM71.2496 45.4894V45.6894C71.7097 45.6894 72.0946 45.6064 72.3805 45.4158L72.2696 45.2494L72.1586 45.0829C71.9646 45.2123 71.6694 45.2894 71.2496 45.2894V45.4894ZM72.2696 45.2494L72.3843 45.4132C72.6848 45.2029 72.8296 44.8895 72.8296 44.5054H72.6296H72.4296C72.4296 44.7772 72.3344 44.9599 72.1549 45.0855L72.2696 45.2494ZM72.6296 44.5054H72.8296C72.8296 44.1271 72.683 43.8206 72.3805 43.6189L72.2696 43.7854L72.1586 43.9518C72.3362 44.0701 72.4296 44.2436 72.4296 44.5054H72.6296ZM72.2696 43.7854L72.3805 43.6189C72.0946 43.4283 71.7097 43.3454 71.2496 43.3454V43.5454V43.7454C71.6694 43.7454 71.9646 43.8224 72.1586 43.9518L72.2696 43.7854ZM71.2496 43.5454V43.3454H66.0176V43.5454V43.7454H71.2496V43.5454ZM66.0176 43.5454L65.8196 43.5735C65.9155 44.249 66.1455 44.7833 66.531 45.1485C66.9191 45.5162 67.4401 45.6894 68.0696 45.6894V45.4894V45.2894C67.515 45.2894 67.1021 45.1385 66.8061 44.8582C66.5076 44.5754 66.3037 44.1377 66.2156 43.5172L66.0176 43.5454ZM80.5776 36.9094L80.6285 36.7159L80.4503 36.669L80.389 36.8428L80.5776 36.9094ZM81.4896 37.1494L81.6763 37.221L81.7562 37.0127L81.5405 36.9559L81.4896 37.1494ZM80.6976 38.8654L80.5218 38.7699L80.5214 38.7708L80.6976 38.8654ZM79.7256 40.4134L79.8859 40.5329L79.8869 40.5316L79.7256 40.4134ZM78.6336 41.6614L78.5035 41.8132L78.641 41.9311L78.7719 41.8058L78.6336 41.6614ZM78.4056 41.4814L78.2711 41.6293L78.2781 41.6357L78.2856 41.6414L78.4056 41.4814ZM78.1176 41.2534L77.9975 41.4135L78.0038 41.4178L78.1176 41.2534ZM77.8536 41.0854L77.7219 40.9348L77.4977 41.131L77.7642 41.2642L77.8536 41.0854ZM78.9336 39.9334L78.7761 39.8102L78.7757 39.8106L78.9336 39.9334ZM79.8696 38.5054L80.0451 38.6013L80.0457 38.6002L79.8696 38.5054ZM80.3976 38.4094V38.2094H80.2755L80.2197 38.3179L80.3976 38.4094ZM88.1376 38.4094H88.3376V38.2094H88.1376V38.4094ZM88.1376 39.2734V39.4734H88.3376V39.2734H88.1376ZM79.9536 39.2734L79.7757 39.1819L79.626 39.4734H79.9536V39.2734ZM79.8096 41.1214V40.9214H79.6096V41.1214H79.8096ZM87.8616 41.1214H88.0616V40.9214H87.8616V41.1214ZM87.8616 41.9734V42.1734H88.0616V41.9734H87.8616ZM80.7096 41.9734V41.7734H80.5096V41.9734H80.7096ZM80.7096 44.8054V45.0054H80.9096V44.8054H80.7096ZM79.8096 44.8054H79.6096V45.0054H79.8096V44.8054ZM77.8296 44.3614V44.1614H77.6296V44.3614H77.8296ZM88.7016 44.3614H88.9016V44.1614H88.7016V44.3614ZM88.7016 45.2254V45.4254H88.9016V45.2254H88.7016ZM77.8296 45.2254H77.6296V45.4254H77.8296V45.2254ZM83.3976 38.8654V38.6654H83.1976V38.8654H83.3976ZM84.3216 38.8654H84.5216V38.6654H84.3216V38.8654ZM84.3216 47.9974V48.1974H84.5216V47.9974H84.3216ZM83.3976 47.9974H83.1976V48.1974H83.3976V47.9974ZM80.5776 36.9094L80.5267 37.1028L81.4387 37.3428L81.4896 37.1494L81.5405 36.9559L80.6285 36.7159L80.5776 36.9094ZM81.4896 37.1494L81.3029 37.0777C81.0821 37.6534 80.8218 38.2175 80.5218 38.7699L80.6976 38.8654L80.8734 38.9608C81.1815 38.3932 81.4492 37.8133 81.6763 37.221L81.4896 37.1494ZM80.6976 38.8654L80.5214 38.7708C80.2296 39.315 79.9105 39.823 79.5643 40.2951L79.7256 40.4134L79.8869 40.5316C80.2447 40.0437 80.5737 39.5197 80.8739 38.9599L80.6976 38.8654ZM79.7256 40.4134L79.5653 40.2938C79.2191 40.758 78.8623 41.1655 78.4953 41.5169L78.6336 41.6614L78.7719 41.8058C79.1569 41.4372 79.5281 41.0127 79.8859 40.5329L79.7256 40.4134ZM78.6336 41.6614L78.7638 41.5095C78.7031 41.4575 78.6232 41.3946 78.5256 41.3214L78.4056 41.4814L78.2856 41.6414C78.38 41.7121 78.4521 41.7692 78.5035 41.8132L78.6336 41.6614ZM78.4056 41.4814L78.5401 41.3334C78.4452 41.2471 78.3423 41.1656 78.2315 41.0889L78.1176 41.2534L78.0038 41.4178C78.101 41.4851 78.19 41.5556 78.2711 41.6293L78.4056 41.4814ZM78.1176 41.2534L78.2376 41.0934C78.135 41.0164 78.0367 40.9533 77.9431 40.9065L77.8536 41.0854L77.7642 41.2642C77.8305 41.2974 77.9082 41.3463 77.9976 41.4134L78.1176 41.2534ZM77.8536 41.0854L77.9853 41.2359C78.3796 40.8909 78.7482 40.4975 79.0915 40.0561L78.9336 39.9334L78.7757 39.8106C78.447 40.2332 78.0957 40.6078 77.7219 40.9348L77.8536 41.0854ZM78.9336 39.9334L79.0912 40.0565C79.4422 39.6076 79.7601 39.1224 80.0451 38.6013L79.8696 38.5054L79.6941 38.4094C79.4191 38.9123 79.1131 39.3791 78.7761 39.8102L78.9336 39.9334ZM79.8696 38.5054L80.0457 38.6002C80.3305 38.0713 80.5707 37.5299 80.7662 36.9759L80.5776 36.9094L80.389 36.8428C80.2005 37.3768 79.9687 37.8994 79.6935 38.4105L79.8696 38.5054ZM80.3976 38.4094V38.6094H88.1376V38.4094V38.2094H80.3976V38.4094ZM88.1376 38.4094H87.9376V39.2734H88.1376H88.3376V38.4094H88.1376ZM88.1376 39.2734V39.0734H79.9536V39.2734V39.4734H88.1376V39.2734ZM79.9536 39.2734L80.1315 39.3648L80.5755 38.5008L80.3976 38.4094L80.2197 38.3179L79.7757 39.1819L79.9536 39.2734ZM79.8096 41.1214V41.3214H87.8616V41.1214V40.9214H79.8096V41.1214ZM87.8616 41.1214H87.6616V41.9734H87.8616H88.0616V41.1214H87.8616ZM87.8616 41.9734V41.7734H80.7096V41.9734V42.1734H87.8616V41.9734ZM80.7096 41.9734H80.5096V44.8054H80.7096H80.9096V41.9734H80.7096ZM80.7096 44.8054V44.6054H79.8096V44.8054V45.0054H80.7096V44.8054ZM79.8096 44.8054H80.0096V41.1214H79.8096H79.6096V44.8054H79.8096ZM77.8296 44.3614V44.5614H88.7016V44.3614V44.1614H77.8296V44.3614ZM88.7016 44.3614H88.5016V45.2254H88.7016H88.9016V44.3614H88.7016ZM88.7016 45.2254V45.0254H77.8296V45.2254V45.4254H88.7016V45.2254ZM77.8296 45.2254H78.0296V44.3614H77.8296H77.6296V45.2254H77.8296ZM83.3976 38.8654V39.0654H84.3216V38.8654V38.6654H83.3976V38.8654ZM84.3216 38.8654H84.1216V47.9974H84.3216H84.5216V38.8654H84.3216ZM84.3216 47.9974V47.7974H83.3976V47.9974V48.1974H84.3216V47.9974ZM83.3976 47.9974H83.5976V38.8654H83.3976H83.1976V47.9974H83.3976Z" fill="white" mask="url(#path-5-outside-1_3291_6)"/>
<defs>
<g id="stroke0_3291_6" data-figma-scatter-ref="stroke0_3291_6_ref" data-figma-scatter="f0.51_w0.06_aj180_sj0.65_r0_s18399844050281906286_sw5">
<path d="M215.823 333.963C215.823 333.23 216.123 332.93 216.49 333.296C216.856 333.663 216.856 334.263 216.49 334.63C216.123 334.996 215.823 334.696 215.823 333.963ZM143.424 3.97701C148.056 3.32404 151.523 8.80284 148.726 12.3588C146.775 14.8388 146.175 17.9633 147.648 17.9633C148.553 17.9667 158.823 30.3033 158.823 31.3862C158.823 32.4623 154.479 36.4974 152.507 37.2544C150.609 37.9824 151.073 39.9631 153.14 39.9633C153.801 39.9633 154.92 40.8881 155.626 42.02C156.91 44.0739 156.912 44.0744 158.617 42.0766C159.555 40.9766 161.223 39.938 162.323 39.77C163.423 39.601 164.653 39.0132 165.057 38.4633C165.472 37.8983 165.798 38.2253 165.807 39.2133C165.825 41.3531 166.254 41.3818 169.215 39.4419C170.838 38.3789 171.405 37.2303 171.099 35.6313C170.05 30.1434 175.963 30.1199 185.501 35.5737C190.79 38.5976 191.028 38.5792 193.164 34.9633C196.187 29.8454 203.13 33.2701 201.316 38.9838C200.801 40.6068 201.133 41.2309 202.733 41.6499C203.883 41.9499 204.823 42.5946 204.823 43.0805C204.824 43.5654 205.723 43.9633 206.823 43.9633C209.228 43.9633 209.333 43.3299 207.269 41.2661C205.332 39.3301 205.758 35.0191 208.025 33.5991C210.469 32.0694 211.11 33.2632 210.001 37.2797C209.157 40.3355 209.276 40.8478 210.928 41.2797C211.97 41.5527 212.823 42.4936 212.823 43.3696C212.824 45.4861 216.745 45.4516 218.302 43.3227C219.936 41.0879 223.264 42.9574 223.298 46.1294C223.32 48.1552 223.883 48.504 227.573 48.77C231.476 49.053 231.823 48.8831 231.823 46.6811C231.823 45.0832 232.672 43.8975 234.37 43.1245C240.164 40.4845 243.457 43.0685 242.282 49.3315C241.655 52.6722 241.655 52.6725 249.407 53.3745C262.73 54.5825 271.108 62.5852 260.323 63.8012C258.673 63.9882 256.79 64.5797 256.14 65.1167C255.368 65.7556 253.636 65.7276 251.14 65.0346C246.476 63.7398 245.823 63.7172 245.823 64.8549C245.823 65.7449 249.37 66.9616 253.515 67.4936C257.329 67.9826 258.042 68.9656 257.379 72.8286C255.795 82.0527 255.841 81.9633 252.685 81.9633C250.953 81.9633 249.964 81.5443 250.323 80.9633C250.663 80.4133 250.517 79.9633 249.999 79.9633C249.48 79.9633 248.821 79.0632 248.533 77.9633C248.217 76.7553 247.169 75.9633 245.885 75.9633C244.716 75.9632 243.46 75.1762 243.092 74.2133C242.404 72.4103 242.246 72.1833 238.753 67.9633C236.684 65.4633 236.684 65.4633 237.262 68.1733C237.705 70.252 237.359 71.1408 235.772 71.9897C232.719 73.6237 233.414 78.5898 236.633 78.1401C237.903 77.9621 239.585 78.3504 240.37 79.0024C241.211 79.7003 242.9 79.9101 244.485 79.5122C246.95 78.8932 247.055 78.9823 245.748 80.5922C244.844 81.7052 244.78 82.0721 245.573 81.5962C246.78 80.8713 247.26 82.2792 247.055 85.9321C247.01 86.7401 248.281 89.181 249.881 91.3569C252.292 94.6349 252.689 95.9524 252.194 99.0434C251.695 102.167 251.943 102.958 253.722 103.911C255.46 104.841 255.656 105.407 254.789 107.026C254.207 108.114 254.046 109.515 254.431 110.14C255.79 112.339 247.804 110.139 243.089 107.016C234.391 101.254 232.358 104.203 234.165 119.963C234.386 121.888 234.142 123.998 233.622 124.653C231.331 127.54 233.14 131.457 236.823 131.585C238.748 131.652 240.773 131.816 241.323 131.95C241.873 132.084 243.093 132.116 244.034 132.022C246.328 131.792 249.862 133.758 249.563 135.098C249.134 137.018 257.14 136.437 263.279 134.102C266.554 132.856 270.042 132.048 271.029 132.307C272.126 132.594 272.823 132.23 272.823 131.37C272.823 130.597 271.923 129.963 270.823 129.963C268.355 129.963 268.291 128.842 270.596 125.996C272.37 123.806 272.37 123.805 274.251 125.884C277.35 129.307 282.41 126.734 280.041 122.94C279.048 121.351 279.46 120.899 283.362 119.295C285.811 118.288 287.817 117.126 287.819 116.713C287.821 116.301 288.262 115.963 288.798 115.963C290.086 115.963 288.981 121.818 287.134 124.78C286.042 126.531 285.967 127.431 286.825 128.466C288.108 130.011 286.599 133.834 284.133 135.288C283.329 135.762 282.984 136.896 283.321 137.957C283.727 139.236 283.296 139.996 281.916 140.434C280.723 140.812 280.144 141.636 280.471 142.488C281.07 144.051 279.303 146.204 276.573 147.238C275.611 147.602 274.823 148.857 274.823 150.027C274.823 152.253 271.493 157.622 268.86 159.642C267.494 160.689 267.518 160.896 269.075 161.499C270.259 161.958 271.465 161.413 272.792 159.821C274.896 157.295 275.458 157.908 273.83 160.952C272.986 162.526 273.289 162.906 275.83 163.464C279.699 164.314 279.894 168.296 276.323 173.558C272.999 178.456 273.141 179.594 277.811 185.463C279.999 188.213 283.258 192.592 285.055 195.195C287.985 199.439 291.823 201.575 291.823 198.963C291.823 198.413 292.858 197.963 294.123 197.963C295.388 197.963 296.869 197.517 297.413 196.973C298.033 196.353 299.563 196.316 301.501 196.872C303.893 197.558 304.97 197.388 306.229 196.128C311.032 191.326 313.154 199.168 308.775 205.533C305.051 210.945 307.295 210.388 312.57 204.592C314.356 202.629 316.421 201.256 317.16 201.54C317.898 201.822 319.08 201.359 319.785 200.509C321.719 198.179 324.72 198.643 326.009 201.472C327.592 204.947 325.832 207.908 318.196 214.612C312.035 220.021 312.035 220.021 314.929 222.915C319.416 227.402 318.437 230.291 311.993 231.58C309.623 232.053 308.701 231.81 308.231 230.585C307.343 228.271 305.535 228.576 302.783 231.505C300.746 233.674 300.577 234.339 301.632 236.028C303.496 239.014 301.66 241.738 298.126 241.228C293.529 240.565 288.418 246.501 289.907 250.775C290.518 252.528 291.537 253.977 292.171 253.994C292.805 254.011 292.532 254.484 291.565 255.048C290.598 255.611 289.399 255.819 288.9 255.511C288.402 255.203 287.764 255.415 287.483 255.982C287.203 256.549 287.108 256.439 287.273 255.738C287.438 255.037 288.155 254.601 288.867 254.769C289.918 255.018 289.921 254.787 288.886 253.54C288.066 252.551 286.49 252.15 284.467 252.416C282.738 252.642 279.973 252.894 278.323 252.974C276.673 253.055 275.886 253.348 276.573 253.625C277.261 253.904 277.823 254.712 277.823 255.424C277.823 256.136 278.498 257.278 279.323 257.963C284.43 262.201 279.156 267.527 267.467 269.94C261.662 271.138 261.616 271.176 262.217 274.181C262.55 275.849 262.823 278.291 262.823 279.609C262.823 281.174 263.663 282.389 265.244 283.109C266.671 283.759 267.448 284.778 267.136 285.59C265.821 289.017 267.765 292.135 270.801 291.468C274.766 290.597 278.421 292.537 276.707 294.602C276.023 295.427 274.625 295.883 273.602 295.615C272.138 295.233 271.87 295.538 272.348 297.046C272.893 298.763 272.429 298.963 267.889 298.963C262.743 298.963 261.095 297.073 265.249 295.935C268.036 295.172 268.4 292.927 265.844 292.258C264.392 291.879 264.055 291.437 264.845 290.949C266.469 289.946 265.098 283.964 263.244 283.963C262.462 283.963 261.823 283.571 261.823 283.091C261.823 282.611 259.972 281.923 257.709 281.561C255.433 281.197 252.864 280.005 251.959 278.892C250.396 276.971 250.314 277.128 250.111 282.423C249.912 287.635 250.039 287.963 252.254 287.963C257.861 287.963 255.961 295.527 250.118 296.465C248.031 296.8 244.838 297.728 243.022 298.527C240.536 299.621 239.219 299.71 237.687 298.89C235.32 297.624 234.327 298.227 235.168 300.42C235.494 301.269 236.844 301.963 238.169 301.963C242.073 301.963 243.244 304.249 241.284 308.04C239.619 311.258 239.618 311.258 228.221 310.647C216.823 310.036 216.823 310.036 216.823 313.065C216.823 321.686 206.244 322.014 203.987 313.463C202.962 309.577 196.547 308.889 196.016 312.607C195.599 315.535 190.787 316.541 190.083 313.848C189.539 311.771 188.717 311.487 187.273 312.878C186.751 313.382 185.198 313.944 183.823 314.128C182.113 314.357 181.221 315.181 181 316.737C180.739 318.581 180.17 318.937 178 318.615C176.528 318.397 175.418 317.764 175.533 317.21C175.649 316.655 174.861 315.403 173.783 314.427C171.902 312.724 171.821 312.729 171.781 314.558C171.757 315.606 170.365 317.588 168.686 318.963C167.007 320.338 164.438 322.475 162.978 323.712C158.062 327.876 154.556 326.427 153.301 319.713C152.916 317.652 152.42 315.964 152.199 315.963C151.978 315.963 148.55 316.863 144.58 317.963C130.056 321.988 115.58 315.43 128.81 310.818C130.467 310.24 131.823 309.373 131.823 308.89C131.823 308.407 130.668 308.452 129.257 308.988C127.134 309.795 126.098 309.512 123.257 307.345C120.118 304.951 118.274 301.888 120.978 303.558C121.694 304.001 121.861 303.833 121.417 303.115C120.368 301.418 116.504 303.691 117.229 305.579C118.04 307.692 114.948 308.516 113.522 306.566C111.691 304.062 106.546 306.574 107.286 309.61C108.627 315.112 101.84 317.769 99.8455 312.524C98.8953 310.026 94.4089 310.708 90.3231 313.97C88.4581 315.459 83.5201 315.529 83.0311 314.074C82.7723 313.306 83.018 312.966 83.5799 313.313C84.1398 313.659 84.5764 313.384 84.5526 312.703C84.3916 308.249 84.9971 307.097 88.0731 306.006C91.7409 304.706 90.1749 302.466 84.8231 301.359C83.4482 301.075 81.5171 300.405 80.5321 299.87C79.5471 299.334 78.3755 299.121 77.9295 299.397C77.4824 299.673 76.2634 299.261 75.2196 298.481C73.4269 297.14 73.453 297.096 75.7069 297.665C77.4798 298.113 77.9663 297.907 77.6033 296.865C77.3352 296.094 76.3745 295.595 75.4686 295.757C74.5637 295.918 73.8231 295.644 73.8231 295.147C73.8225 293.779 67.1263 286.964 65.7821 286.963C64.5191 286.963 65.3358 292.016 66.7508 292.954C68.0246 293.798 67.6327 300.104 66.3377 299.607C65.6809 299.355 65.2149 300.076 65.2537 301.283C65.3377 303.874 62.3307 304.729 61.4256 302.372C61.0686 301.443 61.4731 299.62 62.3231 298.322C63.7468 296.15 63.7284 295.96 62.0955 295.928C61.1204 295.908 59.1988 295.27 57.826 294.51C56.13 293.571 54.9418 293.449 54.1238 294.128C52.5208 295.458 48.5416 294.139 49.1746 292.487C49.7193 291.067 47.2348 286.963 45.8309 286.963C44.5728 286.963 35.8231 278.847 35.8231 277.681C35.8231 277.1 37.4871 276.973 39.9481 277.367C43.78 277.98 44.0342 277.878 43.5272 275.938C43.0782 274.221 43.2342 274.059 44.4022 275.028C46.6741 276.914 46.0406 274.471 43.7127 272.369C42.5527 271.321 40.7375 268.625 39.6795 266.377C37.9885 262.785 29.7573 256.441 24.5213 254.696C21.1893 253.585 27.5839 242.826 31.0379 243.73C32.8048 244.192 33.0357 243.965 32.4178 242.374C31.1828 239.197 31.2554 238.448 32.7684 238.778C35.0593 239.276 38.8227 236.801 38.8231 234.794C38.8231 233.715 39.5439 232.963 40.5779 232.963C43.0149 232.963 45.0996 226.438 43.1737 224.839C42.4307 224.223 41.8231 222.9 41.8231 221.9C41.823 220.899 41.3729 219.803 40.8231 219.463C40.2731 219.123 39.8231 217.945 39.8231 216.845C39.8231 215.745 39.4205 215.093 38.9295 215.397C38.4384 215.7 37.0855 214.04 35.9237 211.706C34.7617 209.372 33.2645 206.563 32.5965 205.463C31.9285 204.363 30.3573 201.785 29.1033 199.734C26.2513 195.07 26.2154 191.993 28.9774 189.028C30.8989 186.965 30.957 186.618 29.5194 185.813C28.6324 185.316 28.1605 184.245 28.4735 183.431C28.8615 182.419 27.9015 181.476 25.4315 180.444C23.4467 179.615 21.786 178.38 21.741 177.7C21.499 174.063 20.5431 170.143 19.2762 167.585C18.4912 166.003 18.1172 163.64 18.4442 162.335C18.8492 160.724 18.6035 159.943 17.6805 159.9C16.9341 159.865 17.347 159.425 18.5975 158.923C21.2044 157.876 20.8038 153.423 17.911 151.294C13.1591 147.798 12.87 147.403 13.4549 145.213C13.7859 143.975 14.834 142.963 15.785 142.963C16.735 142.963 18.3281 142.063 19.3231 140.963C20.3181 139.863 21.5542 138.963 22.0682 138.963C22.5823 138.963 23.847 137.951 24.8787 136.713C26.4927 134.779 26.7609 134.71 26.7899 136.223C26.8079 137.191 25.9229 138.753 24.8231 139.695C22.2852 141.868 22.305 142.594 24.9237 143.279C26.0795 143.582 26.7278 144.308 26.3651 144.896C26.0023 145.483 25.92 145.963 26.1815 145.963C26.4445 145.963 27.4328 146.261 28.3778 146.623C29.5896 147.087 29.9501 146.866 29.6024 145.873C29.0314 144.244 32.5938 138.703 33.7518 139.419C34.1787 139.683 35.3646 139.287 36.3875 138.54C38.4045 137.065 37.003 133.964 34.3192 133.963C32.9872 133.963 30.2179 125.51 30.7147 122.963C30.8767 122.138 30.9536 119.741 30.8856 117.637C30.7766 114.238 31.1058 113.683 33.8338 112.653C35.9678 111.847 36.8578 110.879 36.7528 109.478C36.4928 106.022 36.7888 104.824 37.7537 105.42C38.2657 105.737 38.9407 105.581 39.2547 105.073C39.5679 104.566 40.6568 104.368 41.6746 104.635C44.2356 105.304 47.2646 102.201 45.7879 100.421C44.9809 99.4493 44.9929 98.5137 45.8309 96.9487C46.4608 95.7707 46.7305 94.1671 46.4305 93.3852C46.0505 92.3923 46.6314 91.9633 48.3543 91.9633C49.712 91.9632 50.8228 91.5132 50.8231 90.9633C50.8231 90.4135 50.3871 89.9636 49.8543 89.9633C49.3224 89.9633 49.1449 89.2882 49.4608 88.4633C49.7917 87.6015 49.481 86.9636 48.7303 86.9633C47.7133 86.9633 47.6899 86.6961 48.6229 85.7631C49.2829 85.1031 49.8231 83.8148 49.8231 82.9008C49.8233 81.6241 51.1422 81.0827 55.5067 80.5698C58.6325 80.2028 61.7825 79.411 62.5067 78.81C64.2735 77.3441 64.1799 74.9637 62.3543 74.9633C61.4603 74.9633 61.1108 75.5493 61.4608 76.4633C61.8237 77.4082 61.4499 77.9633 60.45 77.9633C58.464 77.9633 58.8759 72.1768 60.9559 70.8598C64.4336 68.656 58.1944 70.1802 53.6815 72.6362C50.1078 74.581 48.4698 75.0103 47.6688 74.2094C46.9258 73.4665 45.7561 73.4182 44.0643 74.061C39.8403 75.667 37.8231 74.3507 37.8231 69.9907C37.8233 65.514 41.1635 63.0775 53.0731 58.8667C60.4397 56.2628 60.5863 56.0654 58.1824 51.9956C56.1924 48.6276 56.994 44.361 59.7821 43.476C62.4579 42.6272 68.8174 43.9249 68.8377 45.3237C68.8797 48.4517 70.4558 49.1528 74.6307 47.9028C79.0287 46.5848 80.5395 44.5322 78.7215 42.3422C77.8406 41.2803 78.116 40.538 79.9549 39.018C81.9907 37.3362 82.4786 37.2654 83.4324 38.5122C85.3604 41.0312 100.442 37.019 99.3865 34.269C98.521 32.0121 103.808 29.185 104.979 31.2778C106.381 33.7828 109.101 33.326 112.231 30.059C115.014 27.1544 115.014 27.1541 112.856 24.9965C109.082 21.2226 112.1 14.3884 117.416 14.6713C123.005 14.9683 123.68 15.1663 123.238 16.3803C123.021 16.9763 123.233 18.0729 123.708 18.8178C124.754 20.4597 129.376 17.8723 130.306 15.1245C130.615 14.2105 133.671 11.332 137.096 8.72701C140.516 6.12608 143.361 3.99002 143.424 3.97701ZM208.763 322.963C209.345 322.963 209.823 323.413 209.823 323.963C209.823 324.513 209.625 324.963 209.382 324.963C209.139 324.963 208.663 324.513 208.323 323.963C207.983 323.413 208.182 322.964 208.763 322.963ZM116.823 315.345C116.823 314.52 117.273 314.123 117.823 314.463C118.373 314.803 118.823 315.757 118.823 316.582C118.823 317.406 118.373 317.803 117.823 317.463C117.273 317.123 116.823 316.17 116.823 315.345ZM202.323 313.963C202.598 313.963 202.823 314.188 202.823 314.463C202.823 314.738 202.598 314.963 202.323 314.963C202.048 314.963 201.823 314.738 201.823 314.463C201.823 314.188 202.048 313.963 202.323 313.963ZM74.7635 305.963C75.3455 305.963 75.8231 306.413 75.8231 306.963C75.823 307.513 75.6246 307.963 75.3817 307.963C75.1386 307.963 74.6629 307.513 74.3231 306.963C73.9831 306.413 74.1818 305.964 74.7635 305.963ZM71.8231 304.963C72.373 304.963 72.8231 305.413 72.8231 305.963C72.823 306.513 72.3729 306.963 71.8231 306.963C71.2731 306.963 70.8232 306.513 70.8231 305.963C70.8231 305.413 71.2731 304.963 71.8231 304.963ZM131.823 306.07C131.823 304.426 129.038 304.086 127.17 305.5C125.465 306.792 125.573 306.902 128.573 306.931C130.36 306.949 131.823 306.561 131.823 306.07ZM86.8231 303.963C87.5559 303.963 87.856 304.263 87.4901 304.63C87.1231 304.996 86.5231 304.996 86.1561 304.63C85.7901 304.263 86.0901 303.963 86.8231 303.963ZM77.2401 304.042C78.294 303.999 78.8836 304.235 78.5516 304.567C78.2196 304.899 77.3566 304.935 76.6356 304.646C75.838 304.327 76.0752 304.09 77.2401 304.042ZM78.8231 300.963C79.373 300.963 79.8231 301.413 79.8231 301.963C79.823 302.513 79.3729 302.963 78.8231 302.963C78.2731 302.963 77.8232 302.513 77.8231 301.963C77.8231 301.413 78.2731 300.963 78.8231 300.963ZM70.3231 299.963C71.148 299.963 71.8231 300.624 71.8231 301.432C71.8231 302.326 71.2371 302.675 70.3231 302.325C69.4981 302.008 68.8231 301.347 68.8231 300.856C68.8233 300.365 69.4982 299.963 70.3231 299.963ZM69.8231 291.963C70.3727 291.963 70.8226 292.161 70.8231 292.404C70.8231 292.647 70.3731 293.123 69.8231 293.463C69.2731 293.803 68.8231 293.604 68.8231 293.022C68.8232 292.44 69.2731 291.963 69.8231 291.963ZM270.323 285.963C271.148 285.963 271.823 286.133 271.823 286.341C271.823 286.548 271.148 287.279 270.323 287.963C269.094 288.983 268.823 288.914 268.823 287.585C268.823 286.693 269.498 285.963 270.323 285.963ZM275.323 284.963C275.598 284.963 275.823 285.188 275.823 285.463C275.823 285.738 275.598 285.963 275.323 285.963C275.048 285.963 274.823 285.738 274.823 285.463C274.823 285.188 275.048 284.963 275.323 284.963ZM273.515 281.322C274.055 279.913 274.222 279.924 275.064 281.429C276.122 283.319 275.489 284.493 273.932 283.531C273.371 283.182 273.183 282.189 273.515 281.322ZM269.981 280.963C269.981 279.588 270.208 279.026 270.485 279.713C270.763 280.401 270.763 281.526 270.485 282.213C270.208 282.901 269.981 282.338 269.981 280.963ZM272.323 279.963C272.598 279.963 272.823 280.188 272.823 280.463C272.823 280.738 272.598 280.963 272.323 280.963C272.048 280.963 271.823 280.738 271.823 280.463C271.823 280.188 272.048 279.963 272.323 279.963ZM266.479 278.508C266.109 277.545 266.407 277.251 267.374 277.622C269.054 278.267 269.168 278.632 267.928 279.398C267.435 279.703 266.783 279.302 266.479 278.508ZM273.323 277.963C273.598 277.963 273.823 278.188 273.823 278.463C273.823 278.738 273.598 278.963 273.323 278.963C273.048 278.963 272.823 278.738 272.823 278.463C272.823 278.188 273.048 277.963 273.323 277.963ZM312.823 274.963C312.823 274.23 313.123 273.93 313.49 274.296C313.856 274.663 313.856 275.263 313.49 275.63C313.123 275.996 312.823 275.696 312.823 274.963ZM306.823 264.522C306.823 262.765 307.423 262.507 308.28 263.894C308.597 264.406 308.398 265.108 307.839 265.454C307.28 265.798 306.823 265.379 306.823 264.522ZM39.241 257.57C36.868 256.659 36.5506 256.812 37.2156 258.545C37.5496 259.415 37.8231 260.315 37.8231 260.545C37.8235 260.775 38.4984 260.963 39.3231 260.963C41.3139 260.963 41.251 258.341 39.241 257.57ZM294.721 251.963C296.379 251.963 302.87 258.076 302.261 259.064C300.769 261.477 295.519 258.26 294.343 254.213C293.964 252.911 294.123 251.964 294.721 251.963ZM274.323 255.963C274.048 255.963 273.823 256.188 273.823 256.463C273.823 256.738 274.048 256.963 274.323 256.963C274.598 256.963 274.823 256.738 274.823 256.463C274.823 256.188 274.598 255.963 274.323 255.963ZM268.323 252.963C268.048 252.963 267.823 253.188 267.823 253.463C267.823 253.738 268.048 253.963 268.323 253.963C268.598 253.963 268.823 253.738 268.823 253.463C268.823 253.188 268.598 252.963 268.323 252.963ZM266.646 249.296C266.257 247.287 264.26 246.448 263.356 247.911C262.476 249.334 263.598 250.963 265.455 250.963C266.331 250.963 266.833 250.26 266.646 249.296ZM269.323 249.963C269.048 249.963 268.823 250.188 268.823 250.463C268.823 250.738 269.048 250.963 269.323 250.963C269.598 250.963 269.823 250.738 269.823 250.463C269.823 250.188 269.598 249.963 269.323 249.963ZM24.3231 232.963C24.598 232.963 24.8231 233.188 24.8231 233.463C24.823 233.738 24.5979 233.963 24.3231 233.963C24.0481 233.963 23.8232 233.738 23.8231 233.463C23.8231 233.188 24.0481 232.963 24.3231 232.963ZM26.3231 232.963C26.598 232.963 26.8231 233.188 26.8231 233.463C26.823 233.738 26.5979 233.963 26.3231 233.963C26.0481 233.963 25.8232 233.738 25.8231 233.463C25.8231 233.188 26.0481 232.963 26.3231 232.963ZM30.3231 182.963C30.0481 182.963 29.8231 183.188 29.8231 183.463C29.8232 183.738 30.0481 183.963 30.3231 183.963C30.5979 183.963 30.823 183.738 30.8231 183.463C30.8231 183.188 30.598 182.963 30.3231 182.963ZM25.8231 182.963C26.5559 182.963 26.856 183.263 26.4901 183.63C26.1231 183.996 25.5231 183.996 25.1561 183.63C24.7901 183.263 25.0901 182.963 25.8231 182.963ZM24.5418 168.045C24.7068 165.852 23.3077 164.369 22.4237 165.799C22.1289 166.277 22.4496 167.439 23.1375 168.378C24.2905 169.956 24.3998 169.93 24.5418 168.045ZM26.3231 165.963C26.0481 165.963 25.8231 166.188 25.8231 166.463C25.8232 166.738 26.0481 166.963 26.3231 166.963C26.5979 166.963 26.823 166.738 26.8231 166.463C26.8231 166.188 26.598 165.963 26.3231 165.963ZM278.023 154.164C281.374 150.813 285.386 154.145 284.39 159.453C283.619 163.564 281.534 164.032 278.766 160.713C276.583 158.097 276.33 155.857 278.023 154.164ZM0.823065 156.963C1.55594 156.963 1.85603 157.263 1.49006 157.63C1.12312 157.996 0.523086 157.996 0.156073 157.63C-0.209927 157.263 0.0900652 156.963 0.823065 156.963ZM286.917 147.963C287.415 147.963 287.823 148.863 287.823 149.963C287.823 151.063 287.65 151.962 287.44 151.963C287.229 151.963 286.821 151.063 286.533 149.963C286.246 148.863 286.418 147.963 286.917 147.963ZM285.323 145.963C285.598 145.963 285.823 146.188 285.823 146.463C285.823 146.738 285.598 146.963 285.323 146.963C285.048 146.963 284.823 146.738 284.823 146.463C284.823 146.188 285.048 145.963 285.323 145.963ZM293.205 142.963C293.48 142.963 293.983 143.413 294.323 143.963C294.663 144.513 294.716 144.963 294.441 144.963C294.166 144.963 293.663 144.513 293.323 143.963C292.983 143.413 292.93 142.963 293.205 142.963ZM18.6795 133.08C18.8755 133.016 18.7986 133.583 18.5076 134.341C18.2168 135.099 18.5072 136.25 19.1512 136.898C20.0502 137.802 19.7528 137.866 17.8738 137.174C14.8158 136.047 14.1344 134.282 16.5184 133.664C17.5105 133.407 18.4825 133.144 18.6795 133.08ZM27.4901 131.63C28.6061 130.513 29.4901 130.881 29.4901 132.463C29.49 133.288 28.8899 133.963 28.1561 133.963C26.7371 133.963 26.3861 132.734 27.4901 131.63ZM293.763 131.963C294.345 131.963 294.823 132.413 294.823 132.963C294.823 133.513 294.625 133.963 294.382 133.963C294.139 133.963 293.663 133.513 293.323 132.963C292.983 132.413 293.182 131.964 293.763 131.963ZM296.323 132.963C296.598 132.963 296.823 133.188 296.823 133.463C296.823 133.738 296.598 133.963 296.323 133.963C296.048 133.963 295.823 133.738 295.823 133.463C295.823 133.188 296.048 132.963 296.323 132.963ZM20.8231 128.963C21.373 128.963 21.8231 129.638 21.8231 130.463C21.823 131.288 21.3729 131.963 20.8231 131.963C20.2731 131.963 19.8231 131.288 19.8231 130.463C19.8231 129.638 20.2731 128.963 20.8231 128.963ZM302.823 129.091C306.081 127.786 307.823 127.729 307.823 128.928C307.823 130.677 303.932 132.124 302.06 131.07C300.503 130.194 300.582 129.989 302.823 129.091ZM14.3885 125.861C17.5155 124.636 18.4666 124.918 16.4256 126.463C15.3817 127.253 14.062 127.611 13.492 127.258C12.8941 126.889 13.2737 126.298 14.3885 125.861ZM290.882 124.963C291.4 124.963 291.823 125.413 291.823 125.963C291.823 126.513 291.12 126.963 290.263 126.963C289.407 126.963 288.983 126.513 289.323 125.963C289.663 125.413 290.364 124.963 290.882 124.963ZM253.323 104.963C253.048 104.963 252.823 105.188 252.823 105.463C252.823 105.738 253.048 105.963 253.323 105.963C253.598 105.963 253.823 105.738 253.823 105.463C253.823 105.188 253.598 104.963 253.323 104.963ZM38.3231 101.963C38.598 101.963 38.8231 102.188 38.8231 102.463C38.823 102.738 38.5979 102.963 38.3231 102.963C38.0481 102.963 37.8232 102.738 37.8231 102.463C37.8231 102.188 38.0481 101.963 38.3231 101.963ZM43.3231 100.963C43.598 100.963 43.8231 101.188 43.8231 101.463C43.823 101.738 43.5979 101.963 43.3231 101.963C43.0481 101.963 42.8232 101.738 42.8231 101.463C42.8231 101.188 43.0481 100.963 43.3231 100.963ZM32.0731 95.9458C33.86 94.8529 35.9221 94.1854 36.6551 94.4614C37.3872 94.7374 38.7372 94.9995 39.6551 95.0424C40.6539 95.0895 40.8314 95.3207 40.0975 95.6176C39.4238 95.8904 38.6452 95.9673 38.367 95.7885C38.089 95.6095 37.152 96.4753 36.286 97.7133C35.258 99.1803 33.6844 99.9633 31.7654 99.9633C27.9139 99.9632 28.0332 98.4167 32.0731 95.9458ZM260.323 98.9633C260.598 98.9634 260.823 99.1884 260.823 99.4633C260.823 99.7382 260.598 99.9632 260.323 99.9633C260.048 99.9633 259.823 99.7383 259.823 99.4633C259.823 99.1883 260.048 98.9633 260.323 98.9633ZM42.3231 97.9633C42.598 97.9634 42.8231 98.1884 42.8231 98.4633C42.823 98.7382 42.5979 98.9632 42.3231 98.9633C42.0481 98.9633 41.8232 98.7383 41.8231 98.4633C41.8231 98.1883 42.0481 97.9633 42.3231 97.9633ZM54.6434 89.7915C54.2964 87.4396 52.372 86.2652 51.411 87.8198C50.504 89.2878 51.8519 91.9633 53.4998 91.9633C54.4317 91.9633 54.8462 91.1762 54.6434 89.7915ZM239.323 74.9633C239.598 74.9634 239.823 75.1884 239.823 75.4633C239.823 75.7382 239.598 75.9632 239.323 75.9633C239.048 75.9633 238.823 75.7383 238.823 75.4633C238.823 75.1883 239.048 74.9633 239.323 74.9633ZM273.823 72.9594C273.823 72.4464 274.498 72.2376 275.323 72.4946C276.148 72.7526 277.573 73.2036 278.49 73.4965C279.664 73.8715 279.843 74.3424 279.097 75.0883C277.917 76.2677 273.824 74.6152 273.823 72.9594ZM69.8074 71.2133C69.8294 69.4163 68.1488 69.6726 67.4178 71.5766C67.0247 72.6002 66.0719 73.0001 64.8113 72.6704C63.7187 72.3845 62.8236 72.5091 62.8231 72.9477C62.8231 73.3867 64.0183 74.0465 65.4783 74.4135C68.145 75.0822 69.7744 73.878 69.8074 71.2133ZM244.382 68.9633C244.139 68.9636 243.663 69.4135 243.323 69.9633C242.983 70.5132 243.182 70.9631 243.763 70.9633C244.345 70.9633 244.823 70.5133 244.823 69.9633C244.823 69.4133 244.625 68.9633 244.382 68.9633ZM241.323 67.9633C241.048 67.9633 240.823 68.1883 240.823 68.4633C240.823 68.7383 241.048 68.9633 241.323 68.9633C241.598 68.9632 241.823 68.7382 241.823 68.4633C241.823 68.1884 241.598 67.9634 241.323 67.9633ZM144.24 46.0424C143.075 46.0904 142.838 46.327 143.636 46.646C144.357 46.935 145.22 46.8988 145.552 46.5669C145.884 46.2349 145.294 45.9995 144.24 46.0424ZM181.823 43.9633C181.09 43.9633 180.79 44.2633 181.156 44.6303C181.523 44.9962 182.123 44.9963 182.49 44.6303C182.856 44.2634 182.556 43.9634 181.823 43.9633ZM147.345 34.3335C146.209 33.8976 145.532 34.3585 145.147 35.8335C144.84 37.0054 143.967 37.9633 143.206 37.9633C142.446 37.9633 141.823 38.4133 141.823 38.9633C141.823 40.4821 144.417 40.1582 145.823 38.4633C146.508 37.6384 148.111 36.9635 149.386 36.9633C150.661 36.9633 151.983 36.5133 152.323 35.9633C152.663 35.4133 152.051 34.9633 150.964 34.9633C149.876 34.9633 148.247 34.6804 147.345 34.3335ZM138.947 36.6958C137.959 35.7159 137.845 35.8314 138.387 37.2563C138.763 38.2423 139.322 38.7967 139.63 38.4887C139.938 38.1817 139.631 37.3747 138.947 36.6958ZM160.323 29.9633C160.598 29.9634 160.823 30.1884 160.823 30.4633C160.823 30.7382 160.598 30.9632 160.323 30.9633C160.048 30.9633 159.823 30.7382 159.823 30.4633C159.823 30.1883 160.048 29.9633 160.323 29.9633ZM205.823 28.9633C206.556 28.9634 206.856 29.2634 206.49 29.6303C206.123 29.9963 205.523 29.9961 205.156 29.6303C204.79 29.2633 205.09 28.9633 205.823 28.9633ZM210.823 24.9633C211.373 24.9634 211.823 25.161 211.823 25.4038C211.823 25.6468 211.373 26.1233 210.823 26.4633C210.273 26.8033 209.823 26.6039 209.823 26.0219C209.823 25.44 210.273 24.9633 210.823 24.9633ZM176.323 24.9633C176.598 24.9634 176.823 25.1884 176.823 25.4633C176.823 25.7382 176.598 25.9632 176.323 25.9633C176.048 25.9633 175.823 25.7382 175.823 25.4633C175.823 25.1883 176.048 24.9633 176.323 24.9633ZM172.823 18.9633C173.556 18.9634 173.856 19.2634 173.49 19.6303C173.123 19.9963 172.523 19.9961 172.156 19.6303C171.79 19.2633 172.09 18.9633 172.823 18.9633ZM173.823 15.9633C173.823 15.2303 174.123 14.9303 174.49 15.2963C174.856 15.6634 174.856 16.2634 174.49 16.6303C174.123 16.9963 173.823 16.6962 173.823 15.9633ZM208.823 13.9633C209.556 13.9634 209.856 14.2634 209.49 14.6303C209.123 14.9963 208.523 14.9962 208.156 14.6303C207.79 14.2633 208.09 13.9633 208.823 13.9633ZM177.323 12.9633C177.598 12.9634 177.823 13.1884 177.823 13.4633C177.823 13.7382 177.598 13.9632 177.323 13.9633C177.048 13.9633 176.823 13.7382 176.823 13.4633C176.823 13.1883 177.048 12.9633 177.323 12.9633ZM166.323 10.9633C166.598 10.9634 166.823 11.1884 166.823 11.4633C166.823 11.7382 166.598 11.9632 166.323 11.9633C166.048 11.9633 165.823 11.7382 165.823 11.4633C165.823 11.1883 166.048 10.9633 166.323 10.9633ZM175.823 10.9633C175.823 10.2303 176.123 9.93035 176.49 10.2963C176.856 10.6634 176.856 11.2634 176.49 11.6303C176.123 11.9963 175.823 11.6962 175.823 10.9633ZM171.323 9.96334C171.598 9.96343 171.823 10.1884 171.823 10.4633C171.823 10.7382 171.598 10.9632 171.323 10.9633C171.048 10.9633 170.823 10.7382 170.823 10.4633C170.823 10.1883 171.048 9.96334 171.323 9.96334ZM132.382 6.96334C132.625 6.96334 132.823 7.41334 132.823 7.96334C132.823 8.51325 132.345 8.96334 131.763 8.96334C131.182 8.96314 130.983 8.51318 131.323 7.96334C131.663 7.41353 132.139 6.96364 132.382 6.96334ZM122.823 7.96334C123.556 7.96339 123.856 8.26336 123.49 8.63033C123.123 8.99625 122.523 8.99614 122.156 8.63033C121.79 8.26333 122.09 7.96334 122.823 7.96334ZM167.204 2.311C170.133 -0.207938 172.823 -0.770742 172.823 1.13424C172.823 2.86018 169.742 5.96305 168.028 5.96334C167.212 5.96334 166.002 6.70389 165.34 7.60885C164.278 9.06077 164.156 8.98412 164.305 6.95846C164.398 5.69446 165.703 3.603 167.204 2.311Z" fill="#F8F8F8"/>
</g>
<path id="stroke0_3291_6_ref" d="M109.331 57.0385C109.331 86.3095 85.6017 110.038 56.3306 110.038C27.0595 110.038 3.33057 86.3095 3.33057 57.0385C3.33057 27.7674 27.0595 4.03845 56.3306 4.03845C85.6017 4.03845 109.331 27.7674 109.331 57.0385Z"/>
</defs>
</svg>
