<svg width="554" height="110" viewBox="0 0 554 110" fill="none" xmlns="http://www.w3.org/2000/svg">
<path d="M170.225 76.576C167.953 76.576 165.841 76.16 163.889 75.328C161.969 74.496 160.305 73.344 158.897 71.872C157.521 70.368 156.513 68.624 155.873 66.64L161.297 64.288C162.161 66.336 163.409 67.952 165.041 69.136C166.673 70.288 168.513 70.864 170.561 70.864C171.713 70.864 172.705 70.688 173.537 70.336C174.401 69.952 175.057 69.44 175.505 68.8C175.985 68.16 176.225 67.392 176.225 66.496C176.225 65.44 175.905 64.576 175.265 63.904C174.657 63.2 173.729 62.656 172.481 62.272L165.617 60.064C162.833 59.2 160.737 57.904 159.329 56.176C157.921 54.448 157.217 52.416 157.217 50.08C157.217 48.032 157.713 46.224 158.705 44.656C159.729 43.088 161.137 41.872 162.929 41.008C164.753 40.112 166.833 39.664 169.169 39.664C171.313 39.664 173.281 40.048 175.073 40.816C176.865 41.552 178.401 42.592 179.681 43.936C180.993 45.248 181.969 46.8 182.609 48.592L177.233 50.992C176.529 49.2 175.473 47.824 174.065 46.864C172.657 45.872 171.025 45.376 169.169 45.376C168.081 45.376 167.121 45.568 166.289 45.952C165.457 46.304 164.801 46.816 164.321 47.488C163.873 48.128 163.649 48.896 163.649 49.792C163.649 50.784 163.969 51.664 164.609 52.432C165.249 53.168 166.225 53.744 167.537 54.16L174.113 56.224C176.961 57.152 179.089 58.432 180.497 60.064C181.937 61.696 182.657 63.712 182.657 66.112C182.657 68.16 182.129 69.968 181.073 71.536C180.017 73.104 178.561 74.336 176.705 75.232C174.849 76.128 172.689 76.576 170.225 76.576ZM187.095 76V40.24H200.439C202.871 40.24 205.015 40.688 206.871 41.584C208.759 42.448 210.231 43.728 211.287 45.424C212.343 47.088 212.871 49.12 212.871 51.52C212.871 53.888 212.327 55.92 211.239 57.616C210.183 59.28 208.727 60.56 206.871 61.456C205.015 62.352 202.871 62.8 200.439 62.8H193.623V76H187.095ZM193.623 57.04H200.535C201.719 57.04 202.743 56.816 203.607 56.368C204.471 55.888 205.143 55.232 205.623 54.4C206.103 53.568 206.343 52.608 206.343 51.52C206.343 50.4 206.103 49.44 205.623 48.64C205.143 47.808 204.471 47.168 203.607 46.72C202.743 46.24 201.719 46 200.535 46H193.623V57.04ZM234.396 76.576C231.772 76.576 229.324 76.112 227.052 75.184C224.78 74.256 222.796 72.96 221.1 71.296C219.404 69.632 218.076 67.68 217.116 65.44C216.188 63.168 215.724 60.72 215.724 58.096C215.724 55.44 216.188 52.992 217.116 50.752C218.044 48.512 219.356 46.56 221.052 44.896C222.748 43.232 224.732 41.952 227.004 41.056C229.276 40.128 231.74 39.664 234.396 39.664C237.052 39.664 239.516 40.128 241.788 41.056C244.06 41.984 246.044 43.28 247.74 44.944C249.436 46.576 250.748 48.512 251.676 50.752C252.636 52.992 253.116 55.44 253.116 58.096C253.116 60.72 252.636 63.168 251.676 65.44C250.716 67.68 249.388 69.632 247.692 71.296C245.996 72.96 244.012 74.256 241.74 75.184C239.5 76.112 237.052 76.576 234.396 76.576ZM234.396 70.624C236.156 70.624 237.772 70.32 239.244 69.712C240.716 69.072 241.996 68.192 243.084 67.072C244.204 65.952 245.052 64.624 245.628 63.088C246.236 61.552 246.54 59.888 246.54 58.096C246.54 56.304 246.236 54.656 245.628 53.152C245.052 51.616 244.204 50.288 243.084 49.168C241.996 48.016 240.716 47.136 239.244 46.528C237.772 45.92 236.156 45.616 234.396 45.616C232.668 45.616 231.068 45.92 229.596 46.528C228.124 47.136 226.828 48.016 225.708 49.168C224.62 50.288 223.772 51.616 223.164 53.152C222.556 54.656 222.252 56.304 222.252 58.096C222.252 59.888 222.556 61.552 223.164 63.088C223.772 64.624 224.62 65.952 225.708 67.072C226.828 68.192 228.124 69.072 229.596 69.712C231.068 70.32 232.668 70.624 234.396 70.624ZM257.48 76V40.24H270.776C273.208 40.24 275.352 40.688 277.208 41.584C279.096 42.448 280.568 43.728 281.624 45.424C282.68 47.088 283.208 49.12 283.208 51.52C283.208 53.984 282.616 56.08 281.432 57.808C280.28 59.536 278.712 60.816 276.728 61.648L284.936 76H277.544L268.76 60.304L272.984 62.8H264.008V76H257.48ZM264.008 57.04H270.872C272.056 57.04 273.08 56.816 273.944 56.368C274.808 55.888 275.48 55.232 275.96 54.4C276.44 53.568 276.68 52.608 276.68 51.52C276.68 50.4 276.44 49.44 275.96 48.64C275.48 47.808 274.808 47.168 273.944 46.72C273.08 46.24 272.056 46 270.872 46H264.008V57.04ZM293.173 76V46H283.909V40.24H308.869V46H299.749V76H293.173ZM324.181 76.576C321.909 76.576 319.797 76.16 317.845 75.328C315.925 74.496 314.261 73.344 312.853 71.872C311.477 70.368 310.469 68.624 309.829 66.64L315.253 64.288C316.117 66.336 317.365 67.952 318.997 69.136C320.629 70.288 322.469 70.864 324.517 70.864C325.669 70.864 326.661 70.688 327.493 70.336C328.357 69.952 329.013 69.44 329.461 68.8C329.941 68.16 330.181 67.392 330.181 66.496C330.181 65.44 329.861 64.576 329.221 63.904C328.613 63.2 327.685 62.656 326.437 62.272L319.573 60.064C316.789 59.2 314.693 57.904 313.285 56.176C311.877 54.448 311.173 52.416 311.173 50.08C311.173 48.032 311.669 46.224 312.661 44.656C313.685 43.088 315.093 41.872 316.885 41.008C318.709 40.112 320.789 39.664 323.125 39.664C325.269 39.664 327.237 40.048 329.029 40.816C330.821 41.552 332.357 42.592 333.637 43.936C334.949 45.248 335.925 46.8 336.565 48.592L331.189 50.992C330.485 49.2 329.429 47.824 328.021 46.864C326.613 45.872 324.981 45.376 323.125 45.376C322.037 45.376 321.077 45.568 320.245 45.952C319.413 46.304 318.757 46.816 318.277 47.488C317.829 48.128 317.605 48.896 317.605 49.792C317.605 50.784 317.925 51.664 318.565 52.432C319.205 53.168 320.181 53.744 321.493 54.16L328.069 56.224C330.917 57.152 333.045 58.432 334.453 60.064C335.893 61.696 336.613 63.712 336.613 66.112C336.613 68.16 336.085 69.968 335.029 71.536C333.973 73.104 332.517 74.336 330.661 75.232C328.805 76.128 326.645 76.576 324.181 76.576ZM348.142 76V40.24H371.998V46H354.67V55.888H369.838V61.648H354.67V76H348.142ZM374.827 76V40.24H398.587V46H381.355V55.168H397.627V60.928H381.355V70.24H398.587V76H374.827ZM414.702 76.576C412.43 76.576 410.318 76.16 408.366 75.328C406.446 74.496 404.782 73.344 403.374 71.872C401.998 70.368 400.99 68.624 400.35 66.64L405.774 64.288C406.638 66.336 407.886 67.952 409.518 69.136C411.15 70.288 412.99 70.864 415.038 70.864C416.19 70.864 417.182 70.688 418.014 70.336C418.878 69.952 419.534 69.44 419.982 68.8C420.462 68.16 420.702 67.392 420.702 66.496C420.702 65.44 420.382 64.576 419.742 63.904C419.134 63.2 418.206 62.656 416.958 62.272L410.094 60.064C407.31 59.2 405.214 57.904 403.806 56.176C402.398 54.448 401.694 52.416 401.694 50.08C401.694 48.032 402.19 46.224 403.182 44.656C404.206 43.088 405.614 41.872 407.406 41.008C409.23 40.112 411.31 39.664 413.646 39.664C415.79 39.664 417.758 40.048 419.55 40.816C421.342 41.552 422.878 42.592 424.158 43.936C425.47 45.248 426.446 46.8 427.086 48.592L421.71 50.992C421.006 49.2 419.95 47.824 418.542 46.864C417.134 45.872 415.502 45.376 413.646 45.376C412.558 45.376 411.598 45.568 410.766 45.952C409.934 46.304 409.278 46.816 408.798 47.488C408.35 48.128 408.126 48.896 408.126 49.792C408.126 50.784 408.446 51.664 409.086 52.432C409.726 53.168 410.702 53.744 412.014 54.16L418.59 56.224C421.438 57.152 423.566 58.432 424.974 60.064C426.414 61.696 427.134 63.712 427.134 66.112C427.134 68.16 426.606 69.968 425.55 71.536C424.494 73.104 423.038 74.336 421.182 75.232C419.326 76.128 417.166 76.576 414.702 76.576ZM437.908 76V46H428.644V40.24H453.604V46H444.484V76H437.908ZM456.148 76V40.24H462.676V76H456.148ZM477.666 76L465.186 40.24H472.29L482.082 69.856H480.69L490.482 40.24H497.586L485.154 76H477.666ZM495.059 76L507.395 40.24H515.843L528.179 76H521.075L518.531 68.32H504.707L502.115 76H495.059ZM506.579 62.56H516.659L510.707 44.752H512.531L506.579 62.56ZM530.718 76V40.24H537.246V70.24H552.558V76H530.718Z" fill="#1D1D1F"/>
<path d="M161.745 91.36H170.033V90.368H160.097V88.8H171.937V92.928H161.745V91.36ZM160.673 91.36H162.609C162.502 91.8613 162.385 92.384 162.257 92.928C162.139 93.472 162.017 93.9947 161.889 94.496C161.771 94.9973 161.654 95.4453 161.537 95.84L159.617 95.616C159.745 95.232 159.873 94.8 160.001 94.32C160.129 93.8293 160.251 93.328 160.369 92.816C160.497 92.304 160.598 91.8187 160.673 91.36ZM161.361 93.856H171.425V95.456H160.881L161.361 93.856ZM170.929 93.856H172.865C172.865 93.856 172.859 93.9413 172.849 94.112C172.849 94.2827 172.838 94.4267 172.817 94.544C172.731 95.6107 172.635 96.4267 172.529 96.992C172.422 97.5573 172.262 97.9467 172.049 98.16C171.878 98.352 171.691 98.4853 171.489 98.56C171.297 98.6453 171.073 98.6987 170.817 98.72C170.593 98.7413 170.299 98.7573 169.937 98.768C169.574 98.7787 169.19 98.7733 168.785 98.752C168.774 98.4747 168.715 98.176 168.609 97.856C168.513 97.5253 168.39 97.2427 168.241 97.008C168.582 97.04 168.902 97.0613 169.201 97.072C169.51 97.0827 169.739 97.0827 169.889 97.072C170.017 97.072 170.123 97.0667 170.209 97.056C170.294 97.0347 170.369 96.992 170.433 96.928C170.55 96.8213 170.646 96.5547 170.721 96.128C170.795 95.6907 170.865 95.0133 170.929 94.096V93.856ZM165.025 89.168H166.897V99.44H165.025V89.168ZM164.641 94.432L166.129 95.088C165.766 95.536 165.35 95.968 164.881 96.384C164.411 96.8 163.905 97.1893 163.361 97.552C162.817 97.9147 162.257 98.24 161.681 98.528C161.105 98.816 160.523 99.0613 159.937 99.264C159.851 99.1147 159.739 98.944 159.601 98.752C159.462 98.5707 159.313 98.3893 159.153 98.208C159.003 98.0267 158.865 97.8773 158.737 97.76C159.302 97.6 159.867 97.4027 160.433 97.168C160.998 96.9333 161.542 96.672 162.065 96.384C162.587 96.096 163.067 95.7867 163.505 95.456C163.953 95.1253 164.331 94.784 164.641 94.432ZM160.721 85.648H165.761V87.12H160.721V85.648ZM167.089 85.648H173.297V87.12H167.089V85.648ZM160.801 84.272L162.593 84.768C162.379 85.2907 162.118 85.8133 161.809 86.336C161.51 86.848 161.19 87.3333 160.849 87.792C160.518 88.24 160.182 88.6347 159.841 88.976C159.734 88.8693 159.585 88.752 159.393 88.624C159.201 88.496 159.003 88.3733 158.801 88.256C158.609 88.128 158.438 88.0213 158.289 87.936C158.811 87.4987 159.291 86.9547 159.729 86.304C160.177 85.6427 160.534 84.9653 160.801 84.272ZM167.329 84.272L169.137 84.736C168.838 85.536 168.443 86.2987 167.953 87.024C167.462 87.7493 166.955 88.3573 166.433 88.848C166.326 88.7413 166.171 88.6187 165.969 88.48C165.777 88.3413 165.579 88.208 165.377 88.08C165.185 87.952 165.014 87.8507 164.865 87.776C165.387 87.36 165.862 86.8427 166.289 86.224C166.726 85.6053 167.073 84.9547 167.329 84.272ZM161.329 86.8L162.849 86.16C163.062 86.4693 163.275 86.8213 163.489 87.216C163.702 87.6 163.857 87.9307 163.953 88.208L162.321 88.944C162.246 88.656 162.107 88.3093 161.905 87.904C161.713 87.4987 161.521 87.1307 161.329 86.8ZM168.273 86.8L169.841 86.224C170.097 86.5227 170.358 86.8587 170.625 87.232C170.891 87.6053 171.089 87.936 171.217 88.224L169.553 88.864C169.446 88.576 169.27 88.24 169.025 87.856C168.779 87.472 168.529 87.12 168.273 86.8ZM186.001 98V96.64L189.265 93.152C189.905 92.4693 190.406 91.92 190.769 91.504C191.142 91.0773 191.409 90.704 191.569 90.384C191.739 90.064 191.825 89.728 191.825 89.376C191.825 88.8 191.649 88.3573 191.297 88.048C190.945 87.728 190.491 87.568 189.937 87.568C189.361 87.568 188.865 87.7333 188.449 88.064C188.033 88.384 187.745 88.8533 187.585 89.472L185.921 88.992C186.049 88.3627 186.305 87.8187 186.689 87.36C187.073 86.8907 187.542 86.528 188.097 86.272C188.662 86.016 189.27 85.888 189.921 85.888C190.678 85.888 191.339 86.032 191.905 86.32C192.47 86.5973 192.907 86.9867 193.217 87.488C193.537 87.9893 193.697 88.5707 193.697 89.232C193.697 89.6693 193.611 90.096 193.441 90.512C193.281 90.9173 193.03 91.3493 192.689 91.808C192.347 92.256 191.91 92.7627 191.377 93.328L188.497 96.4H193.921V98H186.001ZM207.739 98L211.819 92.72L212.139 92.928C211.99 93.088 211.824 93.216 211.643 93.312C211.472 93.408 211.286 93.4773 211.083 93.52C210.891 93.5627 210.683 93.584 210.459 93.584C209.744 93.584 209.104 93.424 208.539 93.104C207.974 92.7733 207.526 92.3253 207.195 91.76C206.875 91.184 206.715 90.5333 206.715 89.808C206.715 89.0507 206.891 88.3787 207.243 87.792C207.595 87.2053 208.075 86.7413 208.683 86.4C209.291 86.0587 209.984 85.888 210.763 85.888C211.552 85.888 212.246 86.0587 212.843 86.4C213.451 86.7413 213.926 87.2107 214.267 87.808C214.619 88.3947 214.795 89.0667 214.795 89.824C214.795 90.2293 214.752 90.6293 214.667 91.024C214.582 91.4187 214.432 91.8293 214.219 92.256C214.006 92.672 213.707 93.1307 213.323 93.632L209.995 98H207.739ZM210.763 92C211.179 92 211.547 91.904 211.867 91.712C212.187 91.52 212.443 91.2587 212.635 90.928C212.827 90.5973 212.923 90.2187 212.923 89.792C212.923 89.3547 212.827 88.9707 212.635 88.64C212.443 88.2987 212.182 88.0373 211.851 87.856C211.531 87.664 211.168 87.568 210.763 87.568C210.358 87.568 209.99 87.664 209.659 87.856C209.339 88.0373 209.083 88.2987 208.891 88.64C208.699 88.9707 208.603 89.3547 208.603 89.792C208.603 90.2187 208.694 90.5973 208.875 90.928C209.067 91.2587 209.328 91.52 209.659 91.712C209.99 91.904 210.358 92 210.763 92ZM233.252 90.464V93.248H236.068V90.464H233.252ZM231.444 88.784H238.004V94.912H231.444V88.784ZM227.908 84.944H241.652V99.424H239.556V86.912H229.908V99.424H227.908V84.944ZM229.044 96.768H240.74V98.56H229.044V96.768ZM267.316 87.152C267.252 87.248 267.156 87.3973 267.028 87.6C266.911 87.8027 266.82 87.9893 266.756 88.16C266.532 88.6613 266.255 89.2213 265.924 89.84C265.604 90.4587 265.236 91.0827 264.82 91.712C264.415 92.3307 263.983 92.912 263.524 93.456C262.927 94.128 262.266 94.7947 261.54 95.456C260.826 96.1067 260.068 96.7093 259.268 97.264C258.479 97.808 257.668 98.2773 256.836 98.672L255.188 96.944C256.052 96.6133 256.89 96.1973 257.7 95.696C258.511 95.1947 259.263 94.6507 259.956 94.064C260.65 93.4773 261.247 92.9067 261.748 92.352C262.1 91.9467 262.431 91.5147 262.74 91.056C263.06 90.5973 263.343 90.144 263.588 89.696C263.834 89.2373 264.015 88.816 264.132 88.432C264.026 88.432 263.834 88.432 263.556 88.432C263.279 88.432 262.954 88.432 262.58 88.432C262.218 88.432 261.834 88.432 261.428 88.432C261.023 88.432 260.634 88.432 260.26 88.432C259.898 88.432 259.578 88.432 259.3 88.432C259.023 88.432 258.826 88.432 258.708 88.432C258.484 88.432 258.25 88.4427 258.004 88.464C257.759 88.4747 257.524 88.4907 257.3 88.512C257.087 88.5227 256.922 88.5333 256.804 88.544V86.272C256.964 86.2827 257.162 86.2987 257.396 86.32C257.631 86.3413 257.866 86.3573 258.1 86.368C258.346 86.3787 258.548 86.384 258.708 86.384C258.847 86.384 259.066 86.384 259.364 86.384C259.663 86.384 260.004 86.384 260.388 86.384C260.772 86.384 261.167 86.384 261.572 86.384C261.988 86.384 262.383 86.384 262.756 86.384C263.14 86.384 263.471 86.384 263.748 86.384C264.026 86.384 264.228 86.384 264.356 86.384C264.708 86.384 265.028 86.3627 265.316 86.32C265.615 86.2773 265.844 86.2293 266.004 86.176L267.316 87.152ZM263.732 92.128C264.148 92.4587 264.591 92.8427 265.06 93.28C265.53 93.7173 265.994 94.1707 266.452 94.64C266.911 95.1093 267.332 95.5627 267.716 96C268.111 96.4267 268.442 96.8 268.708 97.12L266.884 98.704C266.49 98.16 266.036 97.5947 265.524 97.008C265.023 96.4213 264.49 95.84 263.924 95.264C263.37 94.6773 262.804 94.1227 262.228 93.6L263.732 92.128ZM293.572 86C293.572 86.2453 293.658 86.4533 293.828 86.624C293.999 86.784 294.207 86.864 294.452 86.864C294.687 86.864 294.89 86.784 295.06 86.624C295.231 86.4533 295.316 86.2453 295.316 86C295.316 85.7653 295.231 85.5627 295.06 85.392C294.89 85.2213 294.687 85.136 294.452 85.136C294.207 85.136 293.999 85.2213 293.828 85.392C293.658 85.5627 293.572 85.7653 293.572 86ZM292.596 86C292.596 85.6587 292.676 85.3493 292.836 85.072C293.007 84.7947 293.231 84.5707 293.508 84.4C293.796 84.2293 294.111 84.144 294.452 84.144C294.794 84.144 295.103 84.2293 295.38 84.4C295.658 84.5707 295.876 84.7947 296.036 85.072C296.207 85.3493 296.292 85.6587 296.292 86C296.292 86.3413 296.207 86.656 296.036 86.944C295.876 87.2213 295.658 87.4453 295.38 87.616C295.103 87.776 294.794 87.856 294.452 87.856C294.111 87.856 293.796 87.776 293.508 87.616C293.231 87.4453 293.007 87.2213 292.836 86.944C292.676 86.656 292.596 86.3413 292.596 86ZM290.388 85.376C290.378 85.4507 290.362 85.5733 290.34 85.744C290.319 85.9147 290.298 86.096 290.276 86.288C290.255 86.4693 290.244 86.6293 290.244 86.768C290.244 87.088 290.244 87.44 290.244 87.824C290.244 88.208 290.244 88.592 290.244 88.976C290.244 89.3493 290.244 89.6907 290.244 90C290.244 90.2133 290.244 90.512 290.244 90.896C290.244 91.28 290.244 91.712 290.244 92.192C290.244 92.672 290.244 93.1733 290.244 93.696C290.244 94.208 290.244 94.7093 290.244 95.2C290.244 95.68 290.244 96.1173 290.244 96.512C290.244 96.896 290.244 97.2 290.244 97.424C290.244 97.8827 290.106 98.2453 289.828 98.512C289.562 98.7893 289.146 98.928 288.58 98.928C288.292 98.928 287.999 98.9227 287.7 98.912C287.402 98.9013 287.108 98.8853 286.82 98.864C286.532 98.8427 286.25 98.816 285.972 98.784L285.78 96.8C286.122 96.864 286.452 96.912 286.772 96.944C287.103 96.976 287.364 96.992 287.556 96.992C287.77 96.992 287.919 96.9493 288.004 96.864C288.09 96.768 288.138 96.6187 288.148 96.416C288.148 96.32 288.148 96.112 288.148 95.792C288.159 95.472 288.164 95.0933 288.164 94.656C288.164 94.2187 288.164 93.7547 288.164 93.264C288.164 92.7733 288.164 92.304 288.164 91.856C288.164 91.408 288.164 91.0187 288.164 90.688C288.164 90.3573 288.164 90.128 288.164 90C288.164 89.808 288.164 89.52 288.164 89.136C288.164 88.7413 288.164 88.3253 288.164 87.888C288.164 87.4507 288.164 87.0773 288.164 86.768C288.164 86.5547 288.148 86.304 288.116 86.016C288.084 85.7173 288.052 85.504 288.02 85.376H290.388ZM282.548 87.92C282.794 87.952 283.05 87.984 283.316 88.016C283.583 88.0373 283.844 88.048 284.1 88.048C284.228 88.048 284.484 88.048 284.868 88.048C285.263 88.048 285.732 88.048 286.276 88.048C286.82 88.048 287.402 88.048 288.02 88.048C288.65 88.048 289.279 88.048 289.908 88.048C290.548 88.048 291.14 88.048 291.684 88.048C292.239 88.048 292.719 88.048 293.124 88.048C293.53 88.048 293.812 88.048 293.972 88.048C294.196 88.048 294.458 88.0373 294.756 88.016C295.066 87.9947 295.332 87.968 295.556 87.936V90.032C295.311 90.0107 295.044 90 294.756 90C294.468 89.9893 294.212 89.984 293.988 89.984C293.828 89.984 293.546 89.984 293.14 89.984C292.746 89.984 292.271 89.984 291.716 89.984C291.172 89.984 290.586 89.984 289.956 89.984C289.327 89.984 288.698 89.984 288.068 89.984C287.439 89.984 286.852 89.984 286.308 89.984C285.764 89.984 285.295 89.984 284.9 89.984C284.516 89.984 284.25 89.984 284.1 89.984C283.866 89.984 283.604 89.9893 283.316 90C283.039 90.0107 282.783 90.0267 282.548 90.048V87.92ZM286.628 92.256C286.447 92.6187 286.228 93.008 285.972 93.424C285.716 93.84 285.439 94.256 285.14 94.672C284.852 95.088 284.57 95.4773 284.292 95.84C284.015 96.192 283.764 96.4853 283.54 96.72L281.812 95.536C282.079 95.2907 282.351 95.0027 282.628 94.672C282.916 94.3307 283.194 93.9733 283.46 93.6C283.738 93.2267 283.988 92.8533 284.212 92.48C284.447 92.1067 284.65 91.7493 284.82 91.408L286.628 92.256ZM293.508 91.36C293.711 91.616 293.935 91.92 294.18 92.272C294.436 92.624 294.692 93.0027 294.948 93.408C295.204 93.8027 295.444 94.192 295.668 94.576C295.892 94.9493 296.084 95.28 296.244 95.568L294.356 96.592C294.186 96.2507 293.988 95.8827 293.764 95.488C293.551 95.0933 293.327 94.6987 293.092 94.304C292.858 93.9093 292.623 93.5413 292.388 93.2C292.164 92.848 291.956 92.5493 291.764 92.304L293.508 91.36ZM309.844 90.592C310.036 90.6027 310.282 90.6187 310.58 90.64C310.879 90.6507 311.188 90.6613 311.508 90.672C311.839 90.6827 312.143 90.688 312.42 90.688C312.687 90.688 313.018 90.688 313.412 90.688C313.807 90.688 314.234 90.688 314.692 90.688C315.162 90.688 315.642 90.688 316.132 90.688C316.634 90.688 317.13 90.688 317.62 90.688C318.111 90.688 318.575 90.688 319.012 90.688C319.45 90.688 319.839 90.688 320.18 90.688C320.532 90.688 320.81 90.688 321.012 90.688C321.386 90.688 321.738 90.6773 322.068 90.656C322.399 90.624 322.671 90.6027 322.884 90.592V93.104C322.703 93.0933 322.431 93.0773 322.068 93.056C321.706 93.0347 321.354 93.024 321.012 93.024C320.81 93.024 320.532 93.024 320.18 93.024C319.828 93.024 319.434 93.024 318.996 93.024C318.559 93.024 318.095 93.024 317.604 93.024C317.124 93.024 316.634 93.024 316.132 93.024C315.631 93.024 315.146 93.024 314.676 93.024C314.218 93.024 313.791 93.024 313.396 93.024C313.012 93.024 312.687 93.024 312.42 93.024C311.962 93.024 311.492 93.0347 311.012 93.056C310.532 93.0667 310.143 93.0827 309.844 93.104V90.592ZM342.828 85.536C342.935 85.728 343.063 86.0107 343.212 86.384C343.372 86.7467 343.532 87.1467 343.692 87.584C343.863 88.0107 344.023 88.4267 344.172 88.832C344.321 89.2267 344.433 89.5573 344.508 89.824L342.492 90.528C342.428 90.272 342.321 89.952 342.172 89.568C342.033 89.1733 341.884 88.768 341.724 88.352C341.564 87.9253 341.404 87.52 341.244 87.136C341.084 86.752 340.945 86.4373 340.828 86.192L342.828 85.536ZM350.14 86.816C350.044 87.008 349.959 87.216 349.884 87.44C349.82 87.664 349.767 87.872 349.724 88.064C349.575 88.64 349.372 89.2853 349.116 90C348.871 90.7147 348.572 91.4293 348.22 92.144C347.879 92.848 347.484 93.4933 347.036 94.08C346.481 94.816 345.857 95.488 345.164 96.096C344.481 96.6933 343.767 97.216 343.02 97.664C342.273 98.112 341.516 98.48 340.748 98.768L338.956 96.976C339.692 96.7627 340.439 96.464 341.196 96.08C341.964 95.696 342.7 95.232 343.404 94.688C344.119 94.144 344.743 93.5307 345.276 92.848C345.681 92.336 346.049 91.712 346.38 90.976C346.721 90.24 347.009 89.456 347.244 88.624C347.489 87.7813 347.655 86.9493 347.74 86.128L350.14 86.816ZM338.38 86.528C338.497 86.7733 338.641 87.0933 338.812 87.488C338.993 87.8827 339.175 88.2987 339.356 88.736C339.537 89.1733 339.703 89.5947 339.852 90C340.012 90.3947 340.14 90.7307 340.236 91.008L338.172 91.76C338.108 91.5467 338.017 91.2853 337.9 90.976C337.793 90.6667 337.665 90.3307 337.516 89.968C337.377 89.6053 337.233 89.248 337.084 88.896C336.935 88.544 336.796 88.224 336.668 87.936C336.54 87.648 336.428 87.4133 336.332 87.232L338.38 86.528ZM376.684 87.344C376.609 87.4933 376.54 87.6747 376.476 87.888C376.423 88.0907 376.375 88.2827 376.332 88.464C376.247 88.848 376.135 89.2853 375.996 89.776C375.857 90.2667 375.692 90.7733 375.5 91.296C375.308 91.8187 375.079 92.336 374.812 92.848C374.556 93.36 374.263 93.84 373.932 94.288C373.452 94.9173 372.892 95.5147 372.252 96.08C371.612 96.6347 370.897 97.136 370.108 97.584C369.319 98.0213 368.449 98.3947 367.5 98.704L365.756 96.8C366.812 96.544 367.724 96.2293 368.492 95.856C369.271 95.472 369.948 95.0453 370.524 94.576C371.1 94.096 371.601 93.584 372.028 93.04C372.38 92.592 372.679 92.1067 372.924 91.584C373.18 91.0613 373.388 90.5333 373.548 90C373.719 89.4667 373.836 88.976 373.9 88.528C373.74 88.528 373.473 88.528 373.1 88.528C372.737 88.528 372.305 88.528 371.804 88.528C371.313 88.528 370.796 88.528 370.252 88.528C369.719 88.528 369.201 88.528 368.7 88.528C368.199 88.528 367.745 88.528 367.34 88.528C366.945 88.528 366.647 88.528 366.444 88.528C366.081 88.528 365.724 88.5333 365.372 88.544C365.031 88.5547 364.753 88.5707 364.54 88.592V86.336C364.711 86.3467 364.908 86.3627 365.132 86.384C365.356 86.4053 365.591 86.4267 365.836 86.448C366.081 86.4587 366.289 86.464 366.46 86.464C366.62 86.464 366.86 86.464 367.18 86.464C367.5 86.464 367.868 86.464 368.284 86.464C368.7 86.464 369.132 86.464 369.58 86.464C370.039 86.464 370.492 86.464 370.94 86.464C371.388 86.464 371.809 86.464 372.204 86.464C372.599 86.464 372.94 86.464 373.228 86.464C373.527 86.464 373.735 86.464 373.852 86.464C374.012 86.464 374.209 86.4587 374.444 86.448C374.679 86.4267 374.897 86.3893 375.1 86.336L376.684 87.344ZM392.812 89.328C392.993 89.36 393.207 89.3813 393.452 89.392C393.697 89.4027 393.905 89.408 394.076 89.408H401.404C401.596 89.408 401.804 89.4027 402.028 89.392C402.252 89.3813 402.46 89.36 402.652 89.328V91.344C402.449 91.3227 402.236 91.3067 402.012 91.296C401.788 91.2853 401.585 91.28 401.404 91.28H394.076C393.905 91.28 393.697 91.2853 393.452 91.296C393.207 91.3067 392.993 91.3227 392.812 91.344V89.328ZM396.572 97.52V90.432H398.668V97.52H396.572ZM391.996 96.336C392.199 96.3573 392.417 96.3787 392.652 96.4C392.887 96.4213 393.105 96.432 393.308 96.432H402.156C402.38 96.432 402.593 96.4213 402.796 96.4C403.009 96.368 403.201 96.3467 403.372 96.336V98.432C403.201 98.4 402.988 98.3787 402.732 98.368C402.487 98.3573 402.295 98.352 402.156 98.352H393.308C393.116 98.352 392.903 98.3573 392.668 98.368C392.433 98.3787 392.209 98.4 391.996 98.432V96.336ZM430.204 87.152C430.14 87.248 430.044 87.3973 429.916 87.6C429.799 87.8027 429.708 87.9893 429.644 88.16C429.42 88.6613 429.143 89.2213 428.812 89.84C428.492 90.4587 428.124 91.0827 427.708 91.712C427.303 92.3307 426.871 92.912 426.412 93.456C425.815 94.128 425.153 94.7947 424.428 95.456C423.713 96.1067 422.956 96.7093 422.156 97.264C421.367 97.808 420.556 98.2773 419.724 98.672L418.076 96.944C418.94 96.6133 419.777 96.1973 420.588 95.696C421.399 95.1947 422.151 94.6507 422.844 94.064C423.537 93.4773 424.135 92.9067 424.636 92.352C424.988 91.9467 425.319 91.5147 425.628 91.056C425.948 90.5973 426.231 90.144 426.476 89.696C426.721 89.2373 426.903 88.816 427.02 88.432C426.913 88.432 426.721 88.432 426.444 88.432C426.167 88.432 425.841 88.432 425.468 88.432C425.105 88.432 424.721 88.432 424.316 88.432C423.911 88.432 423.521 88.432 423.148 88.432C422.785 88.432 422.465 88.432 422.188 88.432C421.911 88.432 421.713 88.432 421.596 88.432C421.372 88.432 421.137 88.4427 420.892 88.464C420.647 88.4747 420.412 88.4907 420.188 88.512C419.975 88.5227 419.809 88.5333 419.692 88.544V86.272C419.852 86.2827 420.049 86.2987 420.284 86.32C420.519 86.3413 420.753 86.3573 420.988 86.368C421.233 86.3787 421.436 86.384 421.596 86.384C421.735 86.384 421.953 86.384 422.252 86.384C422.551 86.384 422.892 86.384 423.276 86.384C423.66 86.384 424.055 86.384 424.46 86.384C424.876 86.384 425.271 86.384 425.644 86.384C426.028 86.384 426.359 86.384 426.636 86.384C426.913 86.384 427.116 86.384 427.244 86.384C427.596 86.384 427.916 86.3627 428.204 86.32C428.503 86.2773 428.732 86.2293 428.892 86.176L430.204 87.152ZM426.62 92.128C427.036 92.4587 427.479 92.8427 427.948 93.28C428.417 93.7173 428.881 94.1707 429.34 94.64C429.799 95.1093 430.22 95.5627 430.604 96C430.999 96.4267 431.329 96.8 431.596 97.12L429.772 98.704C429.377 98.16 428.924 97.5947 428.412 97.008C427.911 96.4213 427.377 95.84 426.812 95.264C426.257 94.6773 425.692 94.1227 425.116 93.6L426.62 92.128ZM447.276 85.728C447.543 85.7707 447.831 85.8027 448.14 85.824C448.449 85.8347 448.732 85.84 448.988 85.84C449.191 85.84 449.511 85.84 449.948 85.84C450.385 85.84 450.876 85.84 451.42 85.84C451.964 85.84 452.508 85.84 453.052 85.84C453.596 85.84 454.076 85.84 454.492 85.84C454.919 85.84 455.228 85.84 455.42 85.84C455.697 85.84 455.985 85.8347 456.284 85.824C456.583 85.8027 456.871 85.7707 457.148 85.728V87.792C456.871 87.7707 456.583 87.7547 456.284 87.744C455.985 87.7333 455.697 87.728 455.42 87.728C455.228 87.728 454.919 87.728 454.492 87.728C454.076 87.728 453.596 87.728 453.052 87.728C452.508 87.728 451.964 87.728 451.42 87.728C450.876 87.728 450.385 87.728 449.948 87.728C449.521 87.728 449.207 87.728 449.004 87.728C448.727 87.728 448.428 87.7333 448.108 87.744C447.799 87.7547 447.521 87.7707 447.276 87.792V85.728ZM445.42 89.824C445.655 89.8453 445.905 89.8667 446.172 89.888C446.449 89.9093 446.711 89.92 446.956 89.92C447.095 89.92 447.372 89.92 447.788 89.92C448.204 89.92 448.705 89.92 449.292 89.92C449.879 89.92 450.508 89.92 451.18 89.92C451.863 89.92 452.54 89.92 453.212 89.92C453.895 89.92 454.529 89.92 455.116 89.92C455.703 89.92 456.199 89.92 456.604 89.92C457.02 89.92 457.297 89.92 457.436 89.92C457.607 89.92 457.836 89.9147 458.124 89.904C458.423 89.8827 458.679 89.856 458.892 89.824V91.904C458.7 91.8827 458.465 91.872 458.188 91.872C457.911 91.8613 457.66 91.856 457.436 91.856C457.297 91.856 457.02 91.856 456.604 91.856C456.199 91.856 455.703 91.856 455.116 91.856C454.529 91.856 453.895 91.856 453.212 91.856C452.54 91.856 451.863 91.856 451.18 91.856C450.508 91.856 449.879 91.856 449.292 91.856C448.705 91.856 448.204 91.856 447.788 91.856C447.372 91.856 447.095 91.856 446.956 91.856C446.721 91.856 446.46 91.8613 446.172 91.872C445.895 91.8827 445.644 91.8987 445.42 91.92V89.824ZM453.612 90.928C453.612 91.9733 453.521 92.912 453.34 93.744C453.159 94.5653 452.897 95.3067 452.556 95.968C452.364 96.3307 452.108 96.704 451.788 97.088C451.468 97.472 451.1 97.8347 450.684 98.176C450.268 98.5173 449.82 98.8053 449.34 99.04L447.468 97.68C448.033 97.456 448.577 97.136 449.1 96.72C449.623 96.304 450.044 95.8613 450.364 95.392C450.769 94.7733 451.041 94.0907 451.18 93.344C451.319 92.5973 451.388 91.7973 451.388 90.944L453.612 90.928ZM472.019 93.44C472.712 93.2907 473.416 93.088 474.131 92.832C474.856 92.5653 475.534 92.2827 476.163 91.984C476.792 91.6747 477.32 91.3973 477.747 91.152C478.27 90.832 478.782 90.4747 479.283 90.08C479.795 89.6747 480.264 89.2693 480.691 88.864C481.118 88.4587 481.464 88.08 481.731 87.728L483.315 89.28C483.006 89.632 482.595 90.0213 482.083 90.448C481.582 90.864 481.038 91.2853 480.451 91.712C479.864 92.128 479.278 92.5067 478.691 92.848C478.328 93.072 477.912 93.3013 477.443 93.536C476.974 93.76 476.478 93.984 475.955 94.208C475.443 94.4213 474.926 94.624 474.403 94.816C473.891 95.008 473.411 95.1787 472.963 95.328L472.019 93.44ZM477.555 92.4L479.731 91.984V97.68C479.731 97.8613 479.731 98.0693 479.731 98.304C479.742 98.5387 479.758 98.752 479.779 98.944C479.8 99.1467 479.822 99.3013 479.843 99.408H477.475C477.496 99.3013 477.507 99.1467 477.507 98.944C477.518 98.752 477.528 98.5387 477.539 98.304C477.55 98.0693 477.555 97.8613 477.555 97.68V92.4ZM509.987 85.232C510.126 85.424 510.27 85.6533 510.419 85.92C510.579 86.1867 510.734 86.4533 510.883 86.72C511.032 86.9867 511.155 87.2213 511.251 87.424L509.971 87.984C509.8 87.6533 509.603 87.28 509.379 86.864C509.155 86.4373 508.936 86.0693 508.723 85.76L509.987 85.232ZM511.875 84.512C512.014 84.7147 512.163 84.9547 512.323 85.232C512.494 85.4987 512.654 85.7653 512.803 86.032C512.952 86.288 513.075 86.5067 513.171 86.688L511.891 87.232C511.731 86.9013 511.528 86.528 511.283 86.112C511.048 85.696 510.824 85.3387 510.611 85.04L511.875 84.512ZM500.579 93.024C500.76 92.576 500.931 92.1067 501.091 91.616C501.262 91.1147 501.411 90.6027 501.539 90.08C501.667 89.5467 501.779 89.0187 501.875 88.496C501.982 87.9733 502.056 87.456 502.099 86.944L504.435 87.424C504.392 87.5733 504.344 87.7493 504.291 87.952C504.238 88.1547 504.19 88.352 504.147 88.544C504.104 88.736 504.072 88.896 504.051 89.024C503.998 89.3013 503.923 89.6373 503.827 90.032C503.731 90.4267 503.619 90.848 503.491 91.296C503.363 91.7333 503.23 92.176 503.091 92.624C502.963 93.0613 502.83 93.4667 502.691 93.84C502.499 94.352 502.27 94.8853 502.003 95.44C501.747 95.9947 501.47 96.528 501.171 97.04C500.883 97.552 500.6 98.0107 500.323 98.416L498.083 97.472C498.595 96.8107 499.07 96.08 499.507 95.28C499.955 94.48 500.312 93.728 500.579 93.024ZM508.483 92.688C508.323 92.2613 508.147 91.808 507.955 91.328C507.763 90.848 507.56 90.368 507.347 89.888C507.134 89.408 506.926 88.9547 506.723 88.528C506.52 88.1013 506.334 87.7333 506.163 87.424L508.291 86.736C508.451 87.0453 508.638 87.4187 508.851 87.856C509.064 88.2933 509.278 88.7573 509.491 89.248C509.704 89.728 509.912 90.208 510.115 90.688C510.318 91.168 510.499 91.6 510.659 91.984C510.798 92.336 510.947 92.752 511.107 93.232C511.278 93.712 511.448 94.2133 511.619 94.736C511.8 95.248 511.966 95.7493 512.115 96.24C512.275 96.7307 512.408 97.1733 512.515 97.568L510.147 98.336C510.008 97.7067 509.848 97.0667 509.667 96.416C509.486 95.7653 509.294 95.1253 509.091 94.496C508.899 93.8667 508.696 93.264 508.483 92.688ZM532.755 97.648C532.787 97.488 532.814 97.3067 532.835 97.104C532.867 96.8907 532.883 96.6773 532.883 96.464C532.883 96.3467 532.883 96.112 532.883 95.76C532.883 95.408 532.883 94.9813 532.883 94.48C532.883 93.9787 532.883 93.44 532.883 92.864C532.883 92.2773 532.883 91.6853 532.883 91.088C532.883 90.4907 532.883 89.9307 532.883 89.408C532.883 88.8747 532.883 88.4107 532.883 88.016C532.883 87.6107 532.883 87.3173 532.883 87.136C532.883 86.7733 532.862 86.4587 532.819 86.192C532.787 85.9253 532.766 85.7813 532.755 85.76H535.139C535.128 85.7813 535.107 85.9307 535.075 86.208C535.043 86.4747 535.027 86.7893 535.027 87.152C535.027 87.3333 535.027 87.6053 535.027 87.968C535.027 88.32 535.027 88.7307 535.027 89.2C535.027 89.6587 535.027 90.1493 535.027 90.672C535.027 91.1947 535.027 91.712 535.027 92.224C535.027 92.7253 535.027 93.2053 535.027 93.664C535.027 94.112 535.027 94.496 535.027 94.816C535.027 95.136 535.027 95.3707 535.027 95.52C535.464 95.328 535.918 95.0667 536.387 94.736C536.856 94.4053 537.315 94.0213 537.763 93.584C538.222 93.136 538.627 92.656 538.979 92.144L540.211 93.904C539.774 94.48 539.24 95.0453 538.611 95.6C537.992 96.1547 537.352 96.6613 536.691 97.12C536.03 97.5787 535.395 97.9627 534.787 98.272C534.616 98.368 534.478 98.4533 534.371 98.528C534.264 98.6133 534.174 98.688 534.099 98.752L532.755 97.648ZM525.347 97.408C526.051 96.9173 526.627 96.3253 527.075 95.632C527.523 94.9387 527.854 94.256 528.067 93.584C528.184 93.232 528.27 92.8 528.323 92.288C528.387 91.7653 528.435 91.2107 528.467 90.624C528.499 90.0267 528.515 89.44 528.515 88.864C528.526 88.2773 528.531 87.7387 528.531 87.248C528.531 86.928 528.515 86.656 528.483 86.432C528.462 86.1973 528.43 85.9787 528.387 85.776H530.739C530.728 85.7973 530.712 85.888 530.691 86.048C530.68 86.1973 530.664 86.3787 530.643 86.592C530.632 86.7947 530.627 87.008 530.627 87.232C530.627 87.7013 530.622 88.2507 530.611 88.88C530.6 89.4987 530.579 90.1333 530.547 90.784C530.515 91.4347 530.467 92.0533 530.403 92.64C530.339 93.216 530.254 93.7067 530.147 94.112C529.902 95.0187 529.534 95.8613 529.043 96.64C528.563 97.408 527.982 98.096 527.299 98.704L525.347 97.408Z" fill="#00BE8A"/>
<path d="M139.192 45.264C138.056 45.264 137.184 45.056 136.576 44.64C135.984 44.224 135.688 43.392 135.688 42.144V35.784H133.48V33.456H135.688V29.4H138.376V33.456H141.568V35.784H138.376V41.448C138.376 41.992 138.504 42.36 138.76 42.552C139.032 42.744 139.416 42.84 139.912 42.84C140.216 42.84 140.52 42.792 140.824 42.696C141.144 42.6 141.392 42.504 141.568 42.408V44.88C141.28 44.992 140.92 45.08 140.488 45.144C140.056 45.224 139.624 45.264 139.192 45.264ZM143.219 45V27.888H145.931V34.824C146.187 34.376 146.571 33.992 147.083 33.672C147.595 33.336 148.211 33.168 148.931 33.168C150.131 33.168 151.107 33.552 151.859 34.32C152.627 35.088 153.011 36.216 153.011 37.704V45H150.299V38.352C150.299 37.44 150.115 36.76 149.747 36.312C149.379 35.848 148.883 35.616 148.259 35.616C147.571 35.616 147.011 35.856 146.579 36.336C146.147 36.8 145.931 37.496 145.931 38.424V45H143.219Z" fill="#00BE8A"/>
<path d="M78.0725 98V95.558C78.0725 92.006 78.9852 88.5527 80.8105 85.198C82.6852 81.8433 85.7932 78.094 90.1345 73.95C91.6638 72.47 93.1192 70.99 94.5005 69.51C95.8818 67.9807 97.0165 66.5007 97.9045 65.07C98.7925 63.59 99.2612 62.184 99.3105 60.852C99.3598 58.2867 98.7678 56.3873 97.5345 55.154C96.3505 53.9207 94.6485 53.304 92.4285 53.304C90.3072 53.304 88.7285 54.0687 87.6925 55.598C86.6565 57.1273 86.1385 59.2733 86.1385 62.036H78.2945C78.2945 56.9053 79.6018 52.9093 82.2165 50.048C84.8312 47.1867 88.2352 45.756 92.4285 45.756C95.2898 45.756 97.8305 46.348 100.05 47.532C102.32 48.716 104.096 50.4427 105.378 52.712C106.661 54.9813 107.253 57.7687 107.154 61.074C107.105 63.3927 106.562 65.5387 105.526 67.512C104.49 69.4853 103.109 71.4093 101.382 73.284C99.7052 75.1093 97.7812 77.058 95.6105 79.13C93.3412 81.35 91.3185 83.4713 89.5425 85.494C87.8158 87.5167 86.8045 89.268 86.5085 90.748H106.266V98H78.0725ZM122.267 98.74C119.701 98.74 117.235 98.0493 114.867 96.668C112.548 95.2867 110.673 93.5353 109.243 91.414L115.163 86.9C116.051 88.2813 117.062 89.3913 118.197 90.23C119.381 91.0193 120.737 91.414 122.267 91.414C125.621 91.414 128.088 89.8847 129.667 86.826C131.245 83.718 132.084 79.1547 132.183 73.136C131.344 74.3693 130.16 75.356 128.631 76.096C127.101 76.7867 125.547 77.132 123.969 77.132C121.206 77.132 118.715 76.5153 116.495 75.282C114.324 73.9993 112.597 72.2233 111.315 69.954C110.081 67.6353 109.465 64.8973 109.465 61.74C109.465 58.5333 110.057 55.7213 111.241 53.304C112.425 50.8373 114.102 48.9133 116.273 47.532C118.443 46.1013 120.959 45.386 123.821 45.386C125.991 45.386 128.039 45.756 129.963 46.496C131.936 47.1867 133.663 48.4447 135.143 50.27C136.672 52.046 137.856 54.5867 138.695 57.892C139.583 61.1973 139.977 65.44 139.879 70.62C139.681 80.3387 138.078 87.4673 135.069 92.006C132.109 96.4953 127.841 98.74 122.267 98.74ZM124.043 70.028C126.361 70.028 128.162 69.2633 129.445 67.734C130.727 66.1553 131.319 64.1327 131.221 61.666C131.122 58.854 130.456 56.708 129.223 55.228C128.039 53.6987 126.411 52.934 124.339 52.934C122.217 52.934 120.54 53.748 119.307 55.376C118.123 57.004 117.531 59.1253 117.531 61.74C117.531 64.2067 118.123 66.2047 119.307 67.734C120.54 69.2633 122.119 70.028 124.043 70.028Z" fill="#00BE8A"/>
<path d="M79.7285 12.872H87.1045V14.536H79.7285V12.872ZM76.8645 16.472H91.1845V18.232H76.8645V16.472ZM83.0245 15.432H84.9925V20.376C84.9925 20.8667 84.9232 21.2507 84.7845 21.528C84.6458 21.8053 84.3845 22.0133 84.0005 22.152C83.6165 22.2907 83.1685 22.376 82.6565 22.408C82.1445 22.44 81.5472 22.456 80.8645 22.456C80.8005 22.1787 80.6885 21.8587 80.5285 21.496C80.3792 21.144 80.2298 20.84 80.0805 20.584C80.4218 20.5947 80.7685 20.6053 81.1205 20.616C81.4725 20.6267 81.7818 20.632 82.0485 20.632C82.3258 20.632 82.5178 20.6267 82.6245 20.616C82.7845 20.616 82.8912 20.5947 82.9445 20.552C82.9978 20.5093 83.0245 20.4347 83.0245 20.328V15.432ZM86.4965 12.872H86.9605L87.3765 12.776L88.5765 13.704C88.2245 14.0987 87.8138 14.4933 87.3445 14.888C86.8752 15.2827 86.3845 15.656 85.8725 16.008C85.3605 16.3493 84.8432 16.648 84.3205 16.904C84.2032 16.7333 84.0378 16.5413 83.8245 16.328C83.6218 16.104 83.4512 15.9227 83.3125 15.784C83.7285 15.5707 84.1392 15.3147 84.5445 15.016C84.9605 14.7173 85.3392 14.4133 85.6805 14.104C86.0218 13.784 86.2938 13.496 86.4965 13.24V12.872ZM77.0725 9.944H91.0085V13.864H89.1205V11.64H78.8645V13.864H77.0725V9.944ZM88.1445 7.512L90.2245 8.12C89.8618 8.65333 89.4832 9.176 89.0885 9.688C88.6938 10.2 88.3365 10.632 88.0165 10.984L86.4325 10.408C86.6458 10.1307 86.8538 9.82667 87.0565 9.496C87.2698 9.16533 87.4725 8.82933 87.6645 8.488C87.8565 8.136 88.0165 7.81067 88.1445 7.512ZM78.1445 8.296L79.7765 7.56C80.0645 7.88 80.3472 8.23733 80.6245 8.632C80.9018 9.016 81.1045 9.36267 81.2325 9.672L79.5045 10.488C79.3872 10.1893 79.1952 9.83733 78.9285 9.432C78.6725 9.016 78.4112 8.63733 78.1445 8.296ZM82.1605 7.944L83.8565 7.32C84.1125 7.66133 84.3578 8.05067 84.5925 8.488C84.8378 8.92533 85.0138 9.30933 85.1205 9.64L83.3125 10.344C83.2272 10.024 83.0725 9.64 82.8485 9.192C82.6352 8.73333 82.4058 8.31733 82.1605 7.944ZM110.464 9.64H119.344V11.4H110.464V9.64ZM113.92 7.4H115.808V10.424H113.92V7.4ZM112.32 11.544L114.048 12.264C113.696 12.9573 113.275 13.6293 112.784 14.28C112.294 14.92 111.787 15.4587 111.264 15.896C111.126 15.7147 110.923 15.5067 110.656 15.272C110.39 15.0267 110.155 14.824 109.952 14.664C110.432 14.2907 110.88 13.8213 111.296 13.256C111.723 12.68 112.064 12.1093 112.32 11.544ZM115.648 12.328L117.136 11.48C117.456 11.8213 117.776 12.1893 118.096 12.584C118.427 12.9787 118.726 13.3733 118.992 13.768C119.27 14.152 119.483 14.5093 119.632 14.84L118.016 15.768C117.888 15.448 117.696 15.0907 117.44 14.696C117.184 14.3013 116.896 13.896 116.576 13.48C116.267 13.0533 115.958 12.6693 115.648 12.328ZM113.504 14.536C113.856 15.4747 114.32 16.3547 114.896 17.176C115.483 17.9867 116.176 18.7013 116.976 19.32C117.776 19.928 118.678 20.408 119.68 20.76C119.542 20.8987 119.382 21.0693 119.2 21.272C119.03 21.4747 118.864 21.6827 118.704 21.896C118.555 22.1093 118.432 22.3013 118.336 22.472C117.28 22.0347 116.342 21.4533 115.52 20.728C114.699 19.992 113.984 19.144 113.376 18.184C112.768 17.2133 112.256 16.152 111.84 15L113.504 14.536ZM115.824 14.44L117.76 14.824C117.398 15.976 116.907 17.048 116.288 18.04C115.68 19.032 114.918 19.9067 114 20.664C113.083 21.4107 111.979 22.0187 110.688 22.488C110.624 22.3387 110.534 22.168 110.416 21.976C110.299 21.784 110.176 21.5973 110.048 21.416C109.931 21.2347 109.819 21.08 109.712 20.952C110.875 20.568 111.867 20.0507 112.688 19.4C113.51 18.7493 114.176 18.0027 114.688 17.16C115.211 16.3067 115.59 15.4 115.824 14.44ZM104.72 10.712H110.272V12.488H104.72V10.712ZM106.752 7.4H108.528V22.424H106.752V7.4ZM106.736 11.944L107.824 12.312C107.707 12.952 107.558 13.6133 107.376 14.296C107.206 14.9787 107.008 15.6507 106.784 16.312C106.56 16.9627 106.315 17.576 106.048 18.152C105.792 18.7173 105.515 19.2027 105.216 19.608C105.131 19.352 104.998 19.0587 104.816 18.728C104.646 18.3973 104.486 18.1147 104.336 17.88C104.603 17.528 104.854 17.1173 105.088 16.648C105.334 16.1787 105.563 15.6827 105.776 15.16C105.99 14.6267 106.176 14.088 106.336 13.544C106.496 12.9893 106.63 12.456 106.736 11.944ZM108.464 13.208C108.56 13.3253 108.704 13.528 108.896 13.816C109.088 14.0933 109.296 14.3973 109.52 14.728C109.744 15.0587 109.947 15.368 110.128 15.656C110.32 15.944 110.454 16.1467 110.528 16.264L109.488 17.688C109.392 17.4427 109.264 17.1547 109.104 16.824C108.944 16.4933 108.768 16.152 108.576 15.8C108.395 15.4373 108.219 15.1013 108.048 14.792C107.878 14.4827 107.734 14.2267 107.616 14.024L108.464 13.208ZM136.944 13.816H147.328V15.64H136.944V13.816ZM137.744 9.704H146.56V11.544H137.744V9.704ZM141.088 7.4H143.072V15.144H141.088V7.4ZM136.96 19.848C137.675 19.816 138.502 19.7787 139.44 19.736C140.39 19.6933 141.392 19.64 142.448 19.576C143.515 19.512 144.576 19.4533 145.632 19.4L145.616 21.144C144.624 21.2187 143.622 21.2987 142.608 21.384C141.606 21.4693 140.64 21.544 139.712 21.608C138.795 21.672 137.958 21.736 137.2 21.8L136.96 19.848ZM143.088 17.64L144.736 16.76C145.142 17.2293 145.536 17.7413 145.92 18.296C146.315 18.8507 146.672 19.4 146.992 19.944C147.312 20.488 147.552 20.9893 147.712 21.448L145.888 22.44C145.75 22.0027 145.531 21.5067 145.232 20.952C144.934 20.3973 144.598 19.832 144.224 19.256C143.851 18.6693 143.472 18.1307 143.088 17.64ZM139.84 15.112L141.984 15.672C141.75 16.28 141.494 16.904 141.216 17.544C140.95 18.184 140.678 18.792 140.4 19.368C140.134 19.944 139.878 20.456 139.632 20.904L137.92 20.344C138.091 19.992 138.267 19.6027 138.448 19.176C138.63 18.7387 138.806 18.2853 138.976 17.816C139.158 17.3467 139.318 16.8827 139.456 16.424C139.606 15.9547 139.734 15.5173 139.84 15.112ZM133.376 8.888L134.432 7.464C134.784 7.592 135.152 7.74667 135.536 7.928C135.92 8.10933 136.288 8.30133 136.64 8.504C136.992 8.70667 137.28 8.904 137.504 9.096L136.384 10.664C136.171 10.472 135.894 10.2693 135.552 10.056C135.222 9.832 134.864 9.61867 134.48 9.416C134.096 9.20267 133.728 9.02667 133.376 8.888ZM132.464 13.24L133.456 11.784C133.798 11.9013 134.166 12.0453 134.56 12.216C134.955 12.3867 135.328 12.568 135.68 12.76C136.043 12.9413 136.336 13.1173 136.56 13.288L135.504 14.904C135.291 14.7227 135.008 14.5307 134.656 14.328C134.315 14.1253 133.952 13.928 133.568 13.736C133.184 13.544 132.816 13.3787 132.464 13.24ZM132.896 20.984C133.174 20.5787 133.472 20.0987 133.792 19.544C134.123 18.9893 134.454 18.4027 134.784 17.784C135.126 17.1653 135.446 16.5467 135.744 15.928L137.184 17.16C136.928 17.7147 136.651 18.2853 136.352 18.872C136.064 19.448 135.766 20.0187 135.456 20.584C135.158 21.1493 134.859 21.6933 134.56 22.216L132.896 20.984ZM166.656 7.784H168.864C168.843 8.232 168.806 8.808 168.752 9.512C168.699 10.216 168.598 11 168.448 11.864C168.31 12.7173 168.096 13.6133 167.808 14.552C167.52 15.4907 167.126 16.4293 166.624 17.368C166.134 18.296 165.504 19.1867 164.736 20.04C163.979 20.8827 163.056 21.6347 161.968 22.296C161.798 22.0507 161.563 21.7893 161.264 21.512C160.976 21.2347 160.672 20.984 160.352 20.76C161.419 20.1627 162.315 19.48 163.04 18.712C163.766 17.944 164.358 17.1387 164.816 16.296C165.275 15.4427 165.627 14.5893 165.872 13.736C166.118 12.872 166.294 12.056 166.4 11.288C166.507 10.52 166.571 9.832 166.592 9.224C166.614 8.616 166.635 8.136 166.656 7.784ZM168.784 8.216C168.795 8.41867 168.816 8.73867 168.848 9.176C168.88 9.61333 168.944 10.136 169.04 10.744C169.136 11.352 169.28 12.0133 169.472 12.728C169.675 13.432 169.942 14.1573 170.272 14.904C170.603 15.6507 171.014 16.3813 171.504 17.096C171.995 17.8107 172.587 18.472 173.28 19.08C173.984 19.688 174.806 20.216 175.744 20.664C175.435 20.888 175.147 21.1493 174.88 21.448C174.624 21.7467 174.416 22.0293 174.256 22.296C173.275 21.8053 172.416 21.224 171.68 20.552C170.955 19.8693 170.331 19.1333 169.808 18.344C169.296 17.544 168.87 16.7333 168.528 15.912C168.187 15.0907 167.91 14.2853 167.696 13.496C167.494 12.696 167.339 11.9547 167.232 11.272C167.126 10.5893 167.051 9.99733 167.008 9.496C166.976 8.99467 166.95 8.632 166.928 8.408L168.784 8.216ZM191.376 17.048H200.448V18.2H191.376V17.048ZM191.376 15.048H201.568V20.184H191.376V18.904H199.664V16.344H191.376V15.048ZM194.912 15.768H196.752V20.232C196.752 20.5307 196.822 20.7227 196.96 20.808C197.11 20.8827 197.424 20.92 197.904 20.92C198 20.92 198.144 20.92 198.336 20.92C198.539 20.92 198.763 20.92 199.008 20.92C199.264 20.92 199.515 20.92 199.76 20.92C200.016 20.92 200.251 20.92 200.464 20.92C200.678 20.92 200.843 20.92 200.96 20.92C201.227 20.92 201.43 20.8827 201.568 20.808C201.707 20.7333 201.808 20.5787 201.872 20.344C201.936 20.1093 201.984 19.768 202.016 19.32C202.208 19.448 202.459 19.5707 202.768 19.688C203.088 19.8053 203.371 19.8853 203.616 19.928C203.542 20.568 203.419 21.064 203.248 21.416C203.078 21.7787 202.822 22.0293 202.48 22.168C202.15 22.3173 201.691 22.392 201.104 22.392C201.008 22.392 200.843 22.392 200.608 22.392C200.384 22.392 200.128 22.392 199.84 22.392C199.563 22.392 199.28 22.392 198.992 22.392C198.704 22.392 198.448 22.392 198.224 22.392C198 22.392 197.835 22.392 197.728 22.392C197.003 22.392 196.432 22.328 196.016 22.2C195.611 22.072 195.323 21.8533 195.152 21.544C194.992 21.2347 194.912 20.8027 194.912 20.248V15.768ZM190.416 15.048H192.256V20.904H190.416V15.048ZM190.048 7.976H201.92V9.4H190.048V7.976ZM191.28 11.816H194.448V12.856H191.28V11.816ZM190.976 13.4H194.448V14.456H190.976V13.4ZM197.488 13.4H201.008V14.456H197.488V13.4ZM197.488 11.816H200.624V12.856H197.488V11.816ZM195.008 8.552H196.896V14.616H195.008V8.552ZM188.944 9.992H203.072V13.272H201.296V11.272H190.656V13.272H188.944V9.992ZM216.624 14.408H231.392V16.344H216.624V14.408ZM223.008 11.864H225.024V20.2C225.024 20.744 224.95 21.1653 224.8 21.464C224.662 21.7627 224.395 21.9867 224 22.136C223.616 22.2853 223.147 22.3813 222.592 22.424C222.038 22.4667 221.392 22.4827 220.656 22.472C220.624 22.28 220.56 22.0613 220.464 21.816C220.368 21.5813 220.267 21.3413 220.16 21.096C220.054 20.8613 219.947 20.6587 219.84 20.488C220.214 20.4987 220.582 20.5093 220.944 20.52C221.318 20.5307 221.648 20.536 221.936 20.536C222.235 20.536 222.443 20.536 222.56 20.536C222.731 20.536 222.848 20.5093 222.912 20.456C222.976 20.4027 223.008 20.3067 223.008 20.168V11.864ZM218.304 8.392H228.384V10.28H218.304V8.392ZM227.744 8.392H228.256L228.704 8.28L230.16 9.384C229.67 9.90667 229.104 10.4293 228.464 10.952C227.835 11.4747 227.179 11.976 226.496 12.456C225.814 12.9253 225.147 13.3307 224.496 13.672C224.4 13.5333 224.278 13.3787 224.128 13.208C223.979 13.0373 223.824 12.872 223.664 12.712C223.504 12.5413 223.36 12.3973 223.232 12.28C223.808 11.992 224.39 11.6453 224.976 11.24C225.574 10.8347 226.118 10.4187 226.608 9.992C227.099 9.56533 227.478 9.176 227.744 8.824V8.392ZM247.728 12.872H255.104V14.536H247.728V12.872ZM244.864 16.472H259.184V18.232H244.864V16.472ZM251.024 15.432H252.992V20.376C252.992 20.8667 252.923 21.2507 252.784 21.528C252.646 21.8053 252.384 22.0133 252 22.152C251.616 22.2907 251.168 22.376 250.656 22.408C250.144 22.44 249.547 22.456 248.864 22.456C248.8 22.1787 248.688 21.8587 248.528 21.496C248.379 21.144 248.23 20.84 248.08 20.584C248.422 20.5947 248.768 20.6053 249.12 20.616C249.472 20.6267 249.782 20.632 250.048 20.632C250.326 20.632 250.518 20.6267 250.624 20.616C250.784 20.616 250.891 20.5947 250.944 20.552C250.998 20.5093 251.024 20.4347 251.024 20.328V15.432ZM254.496 12.872H254.96L255.376 12.776L256.576 13.704C256.224 14.0987 255.814 14.4933 255.344 14.888C254.875 15.2827 254.384 15.656 253.872 16.008C253.36 16.3493 252.843 16.648 252.32 16.904C252.203 16.7333 252.038 16.5413 251.824 16.328C251.622 16.104 251.451 15.9227 251.312 15.784C251.728 15.5707 252.139 15.3147 252.544 15.016C252.96 14.7173 253.339 14.4133 253.68 14.104C254.022 13.784 254.294 13.496 254.496 13.24V12.872ZM245.072 9.944H259.008V13.864H257.12V11.64H246.864V13.864H245.072V9.944ZM256.144 7.512L258.224 8.12C257.862 8.65333 257.483 9.176 257.088 9.688C256.694 10.2 256.336 10.632 256.016 10.984L254.432 10.408C254.646 10.1307 254.854 9.82667 255.056 9.496C255.27 9.16533 255.472 8.82933 255.664 8.488C255.856 8.136 256.016 7.81067 256.144 7.512ZM246.144 8.296L247.776 7.56C248.064 7.88 248.347 8.23733 248.624 8.632C248.902 9.016 249.104 9.36267 249.232 9.672L247.504 10.488C247.387 10.1893 247.195 9.83733 246.928 9.432C246.672 9.016 246.411 8.63733 246.144 8.296ZM250.16 7.944L251.856 7.32C252.112 7.66133 252.358 8.05067 252.592 8.488C252.838 8.92533 253.014 9.30933 253.12 9.64L251.312 10.344C251.227 10.024 251.072 9.64 250.848 9.192C250.635 8.73333 250.406 8.31733 250.16 7.944ZM275.488 12.248H284.432V13.336H275.488V12.248ZM276.256 10.6H283.76V11.64H276.256V10.6ZM279.056 9.928H280.8V12.888H279.056V9.928ZM278.88 16.616H280.56V19.784H278.88V16.616ZM280.64 16.312C280.918 16.6427 281.275 16.9627 281.712 17.272C282.15 17.5707 282.63 17.832 283.152 18.056C283.686 18.28 284.23 18.4613 284.784 18.6C284.624 18.7387 284.448 18.9307 284.256 19.176C284.064 19.4107 283.91 19.6187 283.792 19.8C283.216 19.6187 282.651 19.3787 282.096 19.08C281.552 18.7707 281.051 18.4187 280.592 18.024C280.134 17.6187 279.744 17.2027 279.424 16.776L280.64 16.312ZM279.888 15.656L281.328 16.168C280.923 16.6373 280.432 17.08 279.856 17.496C279.291 17.912 278.688 18.2853 278.048 18.616C277.408 18.9467 276.774 19.2293 276.144 19.464C276.08 19.3573 275.984 19.2293 275.856 19.08C275.728 18.92 275.6 18.7653 275.472 18.616C275.344 18.4667 275.227 18.344 275.12 18.248C275.728 18.0667 276.331 17.848 276.928 17.592C277.536 17.3253 278.096 17.032 278.608 16.712C279.131 16.3813 279.558 16.0293 279.888 15.656ZM283.376 16.088L284.528 16.824C284.187 17.1013 283.819 17.3573 283.424 17.592C283.04 17.8267 282.688 18.0293 282.368 18.2L281.424 17.544C281.627 17.416 281.851 17.2667 282.096 17.096C282.342 16.9253 282.576 16.7547 282.8 16.584C283.024 16.4027 283.216 16.2373 283.376 16.088ZM277.904 14.792V15.592H282.032V14.792H277.904ZM276.304 13.816H283.712V16.568H276.304V13.816ZM273.136 8.024H286.848V22.44H284.976V9.736H274.944V22.44H273.136V8.024ZM274.288 20.136H285.984V21.864H274.288V20.136ZM302.464 8.376H313.632V22.216H311.568V10.312H304.432V22.248H302.464V8.376ZM303.808 13.752H312.416V15.64H303.808V13.752ZM303.808 19.256H312.432V21.192H303.808V19.256ZM328.944 10.52H343.088V12.472H328.944V10.52ZM332.224 17.768H339.664V19.72H332.224V17.768ZM334.976 7.416H337.008V22.44H334.976V7.416ZM334.4 11.224L336.16 11.784C335.702 12.936 335.147 14.0347 334.496 15.08C333.846 16.1253 333.115 17.0747 332.304 17.928C331.504 18.7707 330.64 19.4907 329.712 20.088C329.606 19.928 329.467 19.752 329.296 19.56C329.126 19.3573 328.955 19.16 328.784 18.968C328.624 18.7653 328.464 18.6053 328.304 18.488C328.966 18.1253 329.6 17.6827 330.208 17.16C330.816 16.6373 331.382 16.056 331.904 15.416C332.438 14.776 332.912 14.104 333.328 13.4C333.755 12.6853 334.112 11.96 334.4 11.224ZM337.6 11.272C337.984 12.2107 338.486 13.1333 339.104 14.04C339.734 14.936 340.448 15.752 341.248 16.488C342.048 17.224 342.891 17.8267 343.776 18.296C343.616 18.424 343.44 18.5893 343.248 18.792C343.067 18.9947 342.891 19.208 342.72 19.432C342.55 19.6453 342.406 19.8427 342.288 20.024C341.36 19.448 340.491 18.744 339.68 17.912C338.88 17.0693 338.16 16.1307 337.52 15.096C336.88 14.0613 336.326 12.9787 335.856 11.848L337.6 11.272ZM359.376 17.048H368.448V18.2H359.376V17.048ZM359.376 15.048H369.568V20.184H359.376V18.904H367.664V16.344H359.376V15.048ZM362.912 15.768H364.752V20.232C364.752 20.5307 364.822 20.7227 364.96 20.808C365.11 20.8827 365.424 20.92 365.904 20.92C366 20.92 366.144 20.92 366.336 20.92C366.539 20.92 366.763 20.92 367.008 20.92C367.264 20.92 367.515 20.92 367.76 20.92C368.016 20.92 368.251 20.92 368.464 20.92C368.678 20.92 368.843 20.92 368.96 20.92C369.227 20.92 369.43 20.8827 369.568 20.808C369.707 20.7333 369.808 20.5787 369.872 20.344C369.936 20.1093 369.984 19.768 370.016 19.32C370.208 19.448 370.459 19.5707 370.768 19.688C371.088 19.8053 371.371 19.8853 371.616 19.928C371.542 20.568 371.419 21.064 371.248 21.416C371.078 21.7787 370.822 22.0293 370.48 22.168C370.15 22.3173 369.691 22.392 369.104 22.392C369.008 22.392 368.843 22.392 368.608 22.392C368.384 22.392 368.128 22.392 367.84 22.392C367.563 22.392 367.28 22.392 366.992 22.392C366.704 22.392 366.448 22.392 366.224 22.392C366 22.392 365.835 22.392 365.728 22.392C365.003 22.392 364.432 22.328 364.016 22.2C363.611 22.072 363.323 21.8533 363.152 21.544C362.992 21.2347 362.912 20.8027 362.912 20.248V15.768ZM358.416 15.048H360.256V20.904H358.416V15.048ZM358.048 7.976H369.92V9.4H358.048V7.976ZM359.28 11.816H362.448V12.856H359.28V11.816ZM358.976 13.4H362.448V14.456H358.976V13.4ZM365.488 13.4H369.008V14.456H365.488V13.4ZM365.488 11.816H368.624V12.856H365.488V11.816ZM363.008 8.552H364.896V14.616H363.008V8.552ZM356.944 9.992H371.072V13.272H369.296V11.272H358.656V13.272H356.944V9.992ZM384.624 14.408H399.392V16.344H384.624V14.408ZM391.008 11.864H393.024V20.2C393.024 20.744 392.95 21.1653 392.8 21.464C392.662 21.7627 392.395 21.9867 392 22.136C391.616 22.2853 391.147 22.3813 390.592 22.424C390.038 22.4667 389.392 22.4827 388.656 22.472C388.624 22.28 388.56 22.0613 388.464 21.816C388.368 21.5813 388.267 21.3413 388.16 21.096C388.054 20.8613 387.947 20.6587 387.84 20.488C388.214 20.4987 388.582 20.5093 388.944 20.52C389.318 20.5307 389.648 20.536 389.936 20.536C390.235 20.536 390.443 20.536 390.56 20.536C390.731 20.536 390.848 20.5093 390.912 20.456C390.976 20.4027 391.008 20.3067 391.008 20.168V11.864ZM386.304 8.392H396.384V10.28H386.304V8.392ZM395.744 8.392H396.256L396.704 8.28L398.16 9.384C397.67 9.90667 397.104 10.4293 396.464 10.952C395.835 11.4747 395.179 11.976 394.496 12.456C393.814 12.9253 393.147 13.3307 392.496 13.672C392.4 13.5333 392.278 13.3787 392.128 13.208C391.979 13.0373 391.824 12.872 391.664 12.712C391.504 12.5413 391.36 12.3973 391.232 12.28C391.808 11.992 392.39 11.6453 392.976 11.24C393.574 10.8347 394.118 10.4187 394.608 9.992C395.099 9.56533 395.478 9.176 395.744 8.824V8.392ZM412.72 17.096H427.296V18.712H412.72V17.096ZM413.104 8.472H426.896V10.056H413.104V8.472ZM421.936 16.088H423.824V20.584C423.824 21.0427 423.76 21.3947 423.632 21.64C423.515 21.8853 423.291 22.072 422.96 22.2C422.63 22.3173 422.224 22.3867 421.744 22.408C421.264 22.44 420.699 22.456 420.048 22.456C420.006 22.1893 419.926 21.9013 419.808 21.592C419.702 21.2827 419.584 21.0107 419.456 20.776C419.744 20.776 420.032 20.7813 420.32 20.792C420.619 20.8027 420.88 20.808 421.104 20.808C421.339 20.808 421.499 20.808 421.584 20.808C421.723 20.7973 421.814 20.776 421.856 20.744C421.91 20.7013 421.936 20.6267 421.936 20.52V16.088ZM418.992 7.416H420.88V15.56H418.992V7.416ZM415.008 19.512L416.448 18.504C416.736 18.696 417.03 18.92 417.328 19.176C417.638 19.432 417.926 19.688 418.192 19.944C418.47 20.1893 418.688 20.424 418.848 20.648L417.296 21.784C417.158 21.56 416.96 21.3147 416.704 21.048C416.448 20.7813 416.171 20.5147 415.872 20.248C415.584 19.9707 415.296 19.7253 415.008 19.512ZM416.064 14.12V14.936H423.936V14.12H416.064ZM416.064 12.072V12.888H423.936V12.072H416.064ZM414.256 10.776H425.824V16.248H414.256V10.776ZM442.224 10.44H446.224V11.8H442.224V10.44ZM449.616 10.44H453.648V11.8H449.616V10.44ZM452.88 8.04H454.832V20.104C454.832 20.6587 454.763 21.0853 454.624 21.384C454.486 21.6933 454.246 21.9227 453.904 22.072C453.552 22.232 453.104 22.328 452.56 22.36C452.016 22.4027 451.355 22.424 450.576 22.424C450.555 22.2427 450.507 22.0293 450.432 21.784C450.358 21.5493 450.272 21.3093 450.176 21.064C450.091 20.8293 449.995 20.6267 449.888 20.456C450.23 20.4773 450.576 20.4933 450.928 20.504C451.28 20.504 451.59 20.504 451.856 20.504C452.134 20.504 452.326 20.504 452.432 20.504C452.603 20.504 452.72 20.472 452.784 20.408C452.848 20.344 452.88 20.2373 452.88 20.088V8.04ZM442.368 8.04H447.408V14.264H442.368V12.712H445.616V9.592H442.368V8.04ZM453.92 8.04V9.592H450.336V12.76H453.92V14.296H448.512V8.04H453.92ZM441.28 8.04H443.184V22.44H441.28V8.04ZM471.728 12.872H479.104V14.536H471.728V12.872ZM468.864 16.472H483.184V18.232H468.864V16.472ZM475.024 15.432H476.992V20.376C476.992 20.8667 476.923 21.2507 476.784 21.528C476.646 21.8053 476.384 22.0133 476 22.152C475.616 22.2907 475.168 22.376 474.656 22.408C474.144 22.44 473.547 22.456 472.864 22.456C472.8 22.1787 472.688 21.8587 472.528 21.496C472.379 21.144 472.23 20.84 472.08 20.584C472.422 20.5947 472.768 20.6053 473.12 20.616C473.472 20.6267 473.782 20.632 474.048 20.632C474.326 20.632 474.518 20.6267 474.624 20.616C474.784 20.616 474.891 20.5947 474.944 20.552C474.998 20.5093 475.024 20.4347 475.024 20.328V15.432ZM478.496 12.872H478.96L479.376 12.776L480.576 13.704C480.224 14.0987 479.814 14.4933 479.344 14.888C478.875 15.2827 478.384 15.656 477.872 16.008C477.36 16.3493 476.843 16.648 476.32 16.904C476.203 16.7333 476.038 16.5413 475.824 16.328C475.622 16.104 475.451 15.9227 475.312 15.784C475.728 15.5707 476.139 15.3147 476.544 15.016C476.96 14.7173 477.339 14.4133 477.68 14.104C478.022 13.784 478.294 13.496 478.496 13.24V12.872ZM469.072 9.944H483.008V13.864H481.12V11.64H470.864V13.864H469.072V9.944ZM480.144 7.512L482.224 8.12C481.862 8.65333 481.483 9.176 481.088 9.688C480.694 10.2 480.336 10.632 480.016 10.984L478.432 10.408C478.646 10.1307 478.854 9.82667 479.056 9.496C479.27 9.16533 479.472 8.82933 479.664 8.488C479.856 8.136 480.016 7.81067 480.144 7.512ZM470.144 8.296L471.776 7.56C472.064 7.88 472.347 8.23733 472.624 8.632C472.902 9.016 473.104 9.36267 473.232 9.672L471.504 10.488C471.387 10.1893 471.195 9.83733 470.928 9.432C470.672 9.016 470.411 8.63733 470.144 8.296ZM474.16 7.944L475.856 7.32C476.112 7.66133 476.358 8.05067 476.592 8.488C476.838 8.92533 477.014 9.30933 477.12 9.64L475.312 10.344C475.227 10.024 475.072 9.64 474.848 9.192C474.635 8.73333 474.406 8.31733 474.16 7.944ZM502.464 9.64H511.344V11.4H502.464V9.64ZM505.92 7.4H507.808V10.424H505.92V7.4ZM504.32 11.544L506.048 12.264C505.696 12.9573 505.275 13.6293 504.784 14.28C504.294 14.92 503.787 15.4587 503.264 15.896C503.126 15.7147 502.923 15.5067 502.656 15.272C502.39 15.0267 502.155 14.824 501.952 14.664C502.432 14.2907 502.88 13.8213 503.296 13.256C503.723 12.68 504.064 12.1093 504.32 11.544ZM507.648 12.328L509.136 11.48C509.456 11.8213 509.776 12.1893 510.096 12.584C510.427 12.9787 510.726 13.3733 510.992 13.768C511.27 14.152 511.483 14.5093 511.632 14.84L510.016 15.768C509.888 15.448 509.696 15.0907 509.44 14.696C509.184 14.3013 508.896 13.896 508.576 13.48C508.267 13.0533 507.958 12.6693 507.648 12.328ZM505.504 14.536C505.856 15.4747 506.32 16.3547 506.896 17.176C507.483 17.9867 508.176 18.7013 508.976 19.32C509.776 19.928 510.678 20.408 511.68 20.76C511.542 20.8987 511.382 21.0693 511.2 21.272C511.03 21.4747 510.864 21.6827 510.704 21.896C510.555 22.1093 510.432 22.3013 510.336 22.472C509.28 22.0347 508.342 21.4533 507.52 20.728C506.699 19.992 505.984 19.144 505.376 18.184C504.768 17.2133 504.256 16.152 503.84 15L505.504 14.536ZM507.824 14.44L509.76 14.824C509.398 15.976 508.907 17.048 508.288 18.04C507.68 19.032 506.918 19.9067 506 20.664C505.083 21.4107 503.979 22.0187 502.688 22.488C502.624 22.3387 502.534 22.168 502.416 21.976C502.299 21.784 502.176 21.5973 502.048 21.416C501.931 21.2347 501.819 21.08 501.712 20.952C502.875 20.568 503.867 20.0507 504.688 19.4C505.51 18.7493 506.176 18.0027 506.688 17.16C507.211 16.3067 507.59 15.4 507.824 14.44ZM496.72 10.712H502.272V12.488H496.72V10.712ZM498.752 7.4H500.528V22.424H498.752V7.4ZM498.736 11.944L499.824 12.312C499.707 12.952 499.558 13.6133 499.376 14.296C499.206 14.9787 499.008 15.6507 498.784 16.312C498.56 16.9627 498.315 17.576 498.048 18.152C497.792 18.7173 497.515 19.2027 497.216 19.608C497.131 19.352 496.998 19.0587 496.816 18.728C496.646 18.3973 496.486 18.1147 496.336 17.88C496.603 17.528 496.854 17.1173 497.088 16.648C497.334 16.1787 497.563 15.6827 497.776 15.16C497.99 14.6267 498.176 14.088 498.336 13.544C498.496 12.9893 498.63 12.456 498.736 11.944ZM500.464 13.208C500.56 13.3253 500.704 13.528 500.896 13.816C501.088 14.0933 501.296 14.3973 501.52 14.728C501.744 15.0587 501.947 15.368 502.128 15.656C502.32 15.944 502.454 16.1467 502.528 16.264L501.488 17.688C501.392 17.4427 501.264 17.1547 501.104 16.824C500.944 16.4933 500.768 16.152 500.576 15.8C500.395 15.4373 500.219 15.1013 500.048 14.792C499.878 14.4827 499.734 14.2267 499.616 14.024L500.464 13.208Z" fill="black"/>
<path d="M42.1409 0.999992V22.3933L19.7751 40.8693C13.5518 47.4818 17.1821 56.5901 19.7751 60.3177C-2.0071 51.7604 -3.14488 37.0177 4.2164 31.1451L42.1409 0.999992Z" fill="#00BE8A"/>
<path d="M1.14441e-05 109.891V88.4976L22.3657 70.0216C28.589 63.4091 24.9588 54.3007 22.3657 50.5731C44.148 59.1304 45.2857 73.8732 37.9245 79.7458L1.14441e-05 109.891Z" fill="#00BE8A"/>
</svg>
