<svg width="240" height="71" viewBox="0 0 240 71" fill="none" xmlns="http://www.w3.org/2000/svg">
<path d="M25.0001 6V18.6916L11.7316 29.6525C8.03962 33.5753 10.1933 38.9788 11.7316 41.1902C-1.19071 36.1136 -1.86569 27.3675 2.50138 23.8836L25.0001 6Z" fill="#00BE8A"/>
<path d="M-5.53131e-05 70.5996V57.908L13.2684 46.9472C16.9604 43.0243 14.8067 37.6208 13.2684 35.4094C26.1907 40.486 26.8657 49.2321 22.4986 52.716L-5.53131e-05 70.5996Z" fill="#00BE8A"/>
<path d="M79.76 40.24C78.8133 40.24 77.9333 40.0667 77.12 39.72C76.32 39.3733 75.6267 38.8933 75.04 38.28C74.4667 37.6533 74.0467 36.9267 73.78 36.1L76.04 35.12C76.4 35.9733 76.92 36.6467 77.6 37.14C78.28 37.62 79.0467 37.86 79.9 37.86C80.38 37.86 80.7933 37.7867 81.14 37.64C81.5 37.48 81.7733 37.2667 81.96 37C82.16 36.7333 82.26 36.4133 82.26 36.04C82.26 35.6 82.1267 35.24 81.86 34.96C81.6067 34.6667 81.22 34.44 80.7 34.28L77.84 33.36C76.68 33 75.8067 32.46 75.22 31.74C74.6333 31.02 74.34 30.1733 74.34 29.2C74.34 28.3467 74.5467 27.5933 74.96 26.94C75.3867 26.2867 75.9733 25.78 76.72 25.42C77.48 25.0467 78.3467 24.86 79.32 24.86C80.2133 24.86 81.0333 25.02 81.78 25.34C82.5267 25.6467 83.1667 26.08 83.7 26.64C84.2467 27.1867 84.6533 27.8333 84.92 28.58L82.68 29.58C82.3867 28.8333 81.9467 28.26 81.36 27.86C80.7733 27.4467 80.0933 27.24 79.32 27.24C78.8667 27.24 78.4667 27.32 78.12 27.48C77.7733 27.6267 77.5 27.84 77.3 28.12C77.1133 28.3867 77.02 28.7067 77.02 29.08C77.02 29.4933 77.1533 29.86 77.42 30.18C77.6867 30.4867 78.0933 30.7267 78.64 30.9L81.38 31.76C82.5667 32.1467 83.4533 32.68 84.04 33.36C84.64 34.04 84.94 34.88 84.94 35.88C84.94 36.7333 84.72 37.4867 84.28 38.14C83.84 38.7933 83.2333 39.3067 82.46 39.68C81.6867 40.0533 80.7867 40.24 79.76 40.24ZM86.7892 40V25.1H92.3492C93.3626 25.1 94.2559 25.2867 95.0292 25.66C95.8159 26.02 96.4292 26.5533 96.8692 27.26C97.3092 27.9533 97.5292 28.8 97.5292 29.8C97.5292 30.7867 97.3026 31.6333 96.8492 32.34C96.4092 33.0333 95.8026 33.5667 95.0292 33.94C94.2559 34.3133 93.3626 34.5 92.3492 34.5H89.5092V40H86.7892ZM89.5092 32.1H92.3892C92.8826 32.1 93.3092 32.0067 93.6692 31.82C94.0292 31.62 94.3092 31.3467 94.5092 31C94.7092 30.6533 94.8092 30.2533 94.8092 29.8C94.8092 29.3333 94.7092 28.9333 94.5092 28.6C94.3092 28.2533 94.0292 27.9867 93.6692 27.8C93.3092 27.6 92.8826 27.5 92.3892 27.5H89.5092V32.1ZM106.498 40.24C105.405 40.24 104.385 40.0467 103.438 39.66C102.491 39.2733 101.665 38.7333 100.958 38.04C100.251 37.3467 99.698 36.5333 99.298 35.6C98.9113 34.6533 98.718 33.6333 98.718 32.54C98.718 31.4333 98.9113 30.4133 99.298 29.48C99.6846 28.5467 100.231 27.7333 100.938 27.04C101.645 26.3467 102.471 25.8133 103.418 25.44C104.365 25.0533 105.391 24.86 106.498 24.86C107.605 24.86 108.631 25.0533 109.578 25.44C110.525 25.8267 111.351 26.3667 112.058 27.06C112.765 27.74 113.311 28.5467 113.698 29.48C114.098 30.4133 114.298 31.4333 114.298 32.54C114.298 33.6333 114.098 34.6533 113.698 35.6C113.298 36.5333 112.745 37.3467 112.038 38.04C111.331 38.7333 110.505 39.2733 109.558 39.66C108.625 40.0467 107.605 40.24 106.498 40.24ZM106.498 37.76C107.231 37.76 107.905 37.6333 108.518 37.38C109.131 37.1133 109.665 36.7467 110.118 36.28C110.585 35.8133 110.938 35.26 111.178 34.62C111.431 33.98 111.558 33.2867 111.558 32.54C111.558 31.7933 111.431 31.1067 111.178 30.48C110.938 29.84 110.585 29.2867 110.118 28.82C109.665 28.34 109.131 27.9733 108.518 27.72C107.905 27.4667 107.231 27.34 106.498 27.34C105.778 27.34 105.111 27.4667 104.498 27.72C103.885 27.9733 103.345 28.34 102.878 28.82C102.425 29.2867 102.071 29.84 101.818 30.48C101.565 31.1067 101.438 31.7933 101.438 32.54C101.438 33.2867 101.565 33.98 101.818 34.62C102.071 35.26 102.425 35.8133 102.878 36.28C103.345 36.7467 103.885 37.1133 104.498 37.38C105.111 37.6333 105.778 37.76 106.498 37.76ZM116.117 40V25.1H121.657C122.67 25.1 123.563 25.2867 124.337 25.66C125.123 26.02 125.737 26.5533 126.177 27.26C126.617 27.9533 126.837 28.8 126.837 29.8C126.837 30.8267 126.59 31.7 126.097 32.42C125.617 33.14 124.963 33.6733 124.137 34.02L127.557 40H124.477L120.817 33.46L122.577 34.5H118.837V40H116.117ZM118.837 32.1H121.697C122.19 32.1 122.617 32.0067 122.977 31.82C123.337 31.62 123.617 31.3467 123.817 31C124.017 30.6533 124.117 30.2533 124.117 29.8C124.117 29.3333 124.017 28.9333 123.817 28.6C123.617 28.2533 123.337 27.9867 122.977 27.8C122.617 27.6 122.19 27.5 121.697 27.5H118.837V32.1ZM130.989 40V27.5H127.129V25.1H137.529V27.5H133.729V40H130.989ZM143.908 40.24C142.962 40.24 142.082 40.0667 141.268 39.72C140.468 39.3733 139.775 38.8933 139.188 38.28C138.615 37.6533 138.195 36.9267 137.928 36.1L140.188 35.12C140.548 35.9733 141.068 36.6467 141.748 37.14C142.428 37.62 143.195 37.86 144.048 37.86C144.528 37.86 144.942 37.7867 145.288 37.64C145.648 37.48 145.922 37.2667 146.108 37C146.308 36.7333 146.408 36.4133 146.408 36.04C146.408 35.6 146.275 35.24 146.008 34.96C145.755 34.6667 145.368 34.44 144.848 34.28L141.988 33.36C140.828 33 139.955 32.46 139.368 31.74C138.782 31.02 138.488 30.1733 138.488 29.2C138.488 28.3467 138.695 27.5933 139.108 26.94C139.535 26.2867 140.122 25.78 140.868 25.42C141.628 25.0467 142.495 24.86 143.468 24.86C144.362 24.86 145.182 25.02 145.928 25.34C146.675 25.6467 147.315 26.08 147.848 26.64C148.395 27.1867 148.802 27.8333 149.068 28.58L146.828 29.58C146.535 28.8333 146.095 28.26 145.508 27.86C144.922 27.4467 144.242 27.24 143.468 27.24C143.015 27.24 142.615 27.32 142.268 27.48C141.922 27.6267 141.648 27.84 141.448 28.12C141.262 28.3867 141.168 28.7067 141.168 29.08C141.168 29.4933 141.302 29.86 141.568 30.18C141.835 30.4867 142.242 30.7267 142.788 30.9L145.528 31.76C146.715 32.1467 147.602 32.68 148.188 33.36C148.788 34.04 149.088 34.88 149.088 35.88C149.088 36.7333 148.868 37.4867 148.428 38.14C147.988 38.7933 147.382 39.3067 146.608 39.68C145.835 40.0533 144.935 40.24 143.908 40.24ZM153.892 40V25.1H163.832V27.5H156.612V31.62H162.932V34.02H156.612V40H153.892ZM165.011 40V25.1H174.911V27.5H167.731V31.32H174.511V33.72H167.731V37.6H174.911V40H165.011ZM181.626 40.24C180.679 40.24 179.799 40.0667 178.986 39.72C178.186 39.3733 177.492 38.8933 176.906 38.28C176.332 37.6533 175.912 36.9267 175.646 36.1L177.906 35.12C178.266 35.9733 178.786 36.6467 179.466 37.14C180.146 37.62 180.912 37.86 181.766 37.86C182.246 37.86 182.659 37.7867 183.006 37.64C183.366 37.48 183.639 37.2667 183.826 37C184.026 36.7333 184.126 36.4133 184.126 36.04C184.126 35.6 183.992 35.24 183.726 34.96C183.472 34.6667 183.086 34.44 182.566 34.28L179.706 33.36C178.546 33 177.672 32.46 177.086 31.74C176.499 31.02 176.206 30.1733 176.206 29.2C176.206 28.3467 176.412 27.5933 176.826 26.94C177.252 26.2867 177.839 25.78 178.586 25.42C179.346 25.0467 180.212 24.86 181.186 24.86C182.079 24.86 182.899 25.02 183.646 25.34C184.392 25.6467 185.032 26.08 185.566 26.64C186.112 27.1867 186.519 27.8333 186.786 28.58L184.546 29.58C184.252 28.8333 183.812 28.26 183.226 27.86C182.639 27.4467 181.959 27.24 181.186 27.24C180.732 27.24 180.332 27.32 179.986 27.48C179.639 27.6267 179.366 27.84 179.166 28.12C178.979 28.3867 178.886 28.7067 178.886 29.08C178.886 29.4933 179.019 29.86 179.286 30.18C179.552 30.4867 179.959 30.7267 180.506 30.9L183.246 31.76C184.432 32.1467 185.319 32.68 185.906 33.36C186.506 34.04 186.806 34.88 186.806 35.88C186.806 36.7333 186.586 37.4867 186.146 38.14C185.706 38.7933 185.099 39.3067 184.326 39.68C183.552 40.0533 182.652 40.24 181.626 40.24ZM191.295 40V27.5H187.435V25.1H197.835V27.5H194.035V40H191.295ZM198.895 40V25.1H201.615V40H198.895ZM207.861 40L202.661 25.1H205.621L209.701 37.44H209.121L213.201 25.1H216.161L210.981 40H207.861ZM215.107 40L220.247 25.1H223.767L228.907 40H225.947L224.887 36.8H219.127L218.047 40H215.107ZM219.907 34.4H224.107L221.627 26.98H222.387L219.907 34.4ZM229.966 40V25.1H232.686V37.6H239.066V40H229.966Z" fill="#1D1D1F"/>
<path d="M75.872 45.68H80.016V45.184H75.048V44.4H80.968V46.464H75.872V45.68ZM75.336 45.68H76.304C76.2507 45.9307 76.192 46.192 76.128 46.464C76.0693 46.736 76.008 46.9973 75.944 47.248C75.8853 47.4987 75.8267 47.7227 75.768 47.92L74.808 47.808C74.872 47.616 74.936 47.4 75 47.16C75.064 46.9147 75.1253 46.664 75.184 46.408C75.248 46.152 75.2987 45.9093 75.336 45.68ZM75.68 46.928H80.712V47.728H75.44L75.68 46.928ZM80.464 46.928H81.432C81.432 46.928 81.4293 46.9707 81.424 47.056C81.424 47.1413 81.4187 47.2133 81.408 47.272C81.3653 47.8053 81.3173 48.2133 81.264 48.496C81.2107 48.7787 81.1307 48.9733 81.024 49.08C80.9387 49.176 80.8453 49.2427 80.744 49.28C80.648 49.3227 80.536 49.3493 80.408 49.36C80.296 49.3707 80.1493 49.3787 79.968 49.384C79.7867 49.3893 79.5947 49.3867 79.392 49.376C79.3867 49.2373 79.3573 49.088 79.304 48.928C79.256 48.7627 79.1947 48.6213 79.12 48.504C79.2907 48.52 79.4507 48.5307 79.6 48.536C79.7547 48.5413 79.8693 48.5413 79.944 48.536C80.008 48.536 80.0613 48.5333 80.104 48.528C80.1467 48.5173 80.184 48.496 80.216 48.464C80.2747 48.4107 80.3227 48.2773 80.36 48.064C80.3973 47.8453 80.432 47.5067 80.464 47.048V46.928ZM77.512 44.584H78.448V49.72H77.512V44.584ZM77.32 47.216L78.064 47.544C77.8827 47.768 77.6747 47.984 77.44 48.192C77.2053 48.4 76.952 48.5947 76.68 48.776C76.408 48.9573 76.128 49.12 75.84 49.264C75.552 49.408 75.2613 49.5307 74.968 49.632C74.9253 49.5573 74.8693 49.472 74.8 49.376C74.7307 49.2853 74.656 49.1947 74.576 49.104C74.5013 49.0133 74.432 48.9387 74.368 48.88C74.6507 48.8 74.9333 48.7013 75.216 48.584C75.4987 48.4667 75.7707 48.336 76.032 48.192C76.2933 48.048 76.5333 47.8933 76.752 47.728C76.976 47.5627 77.1653 47.392 77.32 47.216ZM75.36 42.824H77.88V43.56H75.36V42.824ZM78.544 42.824H81.648V43.56H78.544V42.824ZM75.4 42.136L76.296 42.384C76.1893 42.6453 76.0587 42.9067 75.904 43.168C75.7547 43.424 75.5947 43.6667 75.424 43.896C75.2587 44.12 75.0907 44.3173 74.92 44.488C74.8667 44.4347 74.792 44.376 74.696 44.312C74.6 44.248 74.5013 44.1867 74.4 44.128C74.304 44.064 74.2187 44.0107 74.144 43.968C74.4053 43.7493 74.6453 43.4773 74.864 43.152C75.088 42.8213 75.2667 42.4827 75.4 42.136ZM78.664 42.136L79.568 42.368C79.4187 42.768 79.2213 43.1493 78.976 43.512C78.7307 43.8747 78.4773 44.1787 78.216 44.424C78.1627 44.3707 78.0853 44.3093 77.984 44.24C77.888 44.1707 77.7893 44.104 77.688 44.04C77.592 43.976 77.5067 43.9253 77.432 43.888C77.6933 43.68 77.9307 43.4213 78.144 43.112C78.3627 42.8027 78.536 42.4773 78.664 42.136ZM75.664 43.4L76.424 43.08C76.5307 43.2347 76.6373 43.4107 76.744 43.608C76.8507 43.8 76.928 43.9653 76.976 44.104L76.16 44.472C76.1227 44.328 76.0533 44.1547 75.952 43.952C75.856 43.7493 75.76 43.5653 75.664 43.4ZM79.136 43.4L79.92 43.112C80.048 43.2613 80.1787 43.4293 80.312 43.616C80.4453 43.8027 80.544 43.968 80.608 44.112L79.776 44.432C79.7227 44.288 79.6347 44.12 79.512 43.928C79.3893 43.736 79.264 43.56 79.136 43.4ZM86.16 49V48.32L87.792 46.576C88.112 46.2347 88.3627 45.96 88.544 45.752C88.7307 45.5387 88.864 45.352 88.944 45.192C89.0293 45.032 89.072 44.864 89.072 44.688C89.072 44.4 88.984 44.1787 88.808 44.024C88.632 43.864 88.4053 43.784 88.128 43.784C87.84 43.784 87.592 43.8667 87.384 44.032C87.176 44.192 87.032 44.4267 86.952 44.736L86.12 44.496C86.184 44.1813 86.312 43.9093 86.504 43.68C86.696 43.4453 86.9307 43.264 87.208 43.136C87.4907 43.008 87.7947 42.944 88.12 42.944C88.4987 42.944 88.8293 43.016 89.112 43.16C89.3947 43.2987 89.6133 43.4933 89.768 43.744C89.928 43.9947 90.008 44.2853 90.008 44.616C90.008 44.8347 89.9653 45.048 89.88 45.256C89.8 45.4587 89.6747 45.6747 89.504 45.904C89.3333 46.128 89.1147 46.3813 88.848 46.664L87.408 48.2H90.12V49H86.16ZM95.1893 49L97.2293 46.36L97.3893 46.464C97.3146 46.544 97.2319 46.608 97.1413 46.656C97.0559 46.704 96.9626 46.7387 96.8613 46.76C96.7653 46.7813 96.6613 46.792 96.5493 46.792C96.1919 46.792 95.8719 46.712 95.5893 46.552C95.3066 46.3867 95.0826 46.1627 94.9173 45.88C94.7573 45.592 94.6773 45.2667 94.6773 44.904C94.6773 44.5253 94.7653 44.1893 94.9413 43.896C95.1173 43.6027 95.3573 43.3707 95.6613 43.2C95.9653 43.0293 96.3119 42.944 96.7013 42.944C97.0959 42.944 97.4426 43.0293 97.7413 43.2C98.0453 43.3707 98.2826 43.6053 98.4533 43.904C98.6293 44.1973 98.7173 44.5333 98.7173 44.912C98.7173 45.1147 98.6959 45.3147 98.6533 45.512C98.6106 45.7093 98.5359 45.9147 98.4293 46.128C98.3226 46.336 98.1733 46.5653 97.9813 46.816L96.3173 49H95.1893ZM96.7013 46C96.9093 46 97.0933 45.952 97.2533 45.856C97.4133 45.76 97.5413 45.6293 97.6373 45.464C97.7333 45.2987 97.7813 45.1093 97.7813 44.896C97.7813 44.6773 97.7333 44.4853 97.6373 44.32C97.5413 44.1493 97.4106 44.0187 97.2453 43.928C97.0853 43.832 96.9039 43.784 96.7013 43.784C96.4986 43.784 96.3146 43.832 96.1493 43.928C95.9893 44.0187 95.8613 44.1493 95.7653 44.32C95.6693 44.4853 95.6213 44.6773 95.6213 44.896C95.6213 45.1093 95.6666 45.2987 95.7573 45.464C95.8533 45.6293 95.9839 45.76 96.1493 45.856C96.3146 45.952 96.4986 46 96.7013 46ZM106.106 45.232V46.624H107.514V45.232H106.106ZM105.202 44.392H108.482V47.456H105.202V44.392ZM103.434 42.472H110.306V49.712H109.258V43.456H104.434V49.712H103.434V42.472ZM104.002 48.384H109.85V49.28H104.002V48.384ZM121.298 43.576C121.266 43.624 121.218 43.6987 121.154 43.8C121.095 43.9013 121.05 43.9947 121.018 44.08C120.906 44.3307 120.767 44.6107 120.602 44.92C120.442 45.2293 120.258 45.5413 120.05 45.856C119.847 46.1653 119.631 46.456 119.402 46.728C119.103 47.064 118.773 47.3973 118.41 47.728C118.053 48.0533 117.674 48.3547 117.274 48.632C116.879 48.904 116.474 49.1387 116.058 49.336L115.234 48.472C115.666 48.3067 116.085 48.0987 116.49 47.848C116.895 47.5973 117.271 47.3253 117.618 47.032C117.965 46.7387 118.263 46.4533 118.514 46.176C118.69 45.9733 118.855 45.7573 119.01 45.528C119.17 45.2987 119.311 45.072 119.434 44.848C119.557 44.6187 119.647 44.408 119.706 44.216C119.653 44.216 119.557 44.216 119.418 44.216C119.279 44.216 119.117 44.216 118.93 44.216C118.749 44.216 118.557 44.216 118.354 44.216C118.151 44.216 117.957 44.216 117.77 44.216C117.589 44.216 117.429 44.216 117.29 44.216C117.151 44.216 117.053 44.216 116.994 44.216C116.882 44.216 116.765 44.2213 116.642 44.232C116.519 44.2373 116.402 44.2453 116.29 44.256C116.183 44.2613 116.101 44.2667 116.042 44.272V43.136C116.122 43.1413 116.221 43.1493 116.338 43.16C116.455 43.1707 116.573 43.1787 116.69 43.184C116.813 43.1893 116.914 43.192 116.994 43.192C117.063 43.192 117.173 43.192 117.322 43.192C117.471 43.192 117.642 43.192 117.834 43.192C118.026 43.192 118.223 43.192 118.426 43.192C118.634 43.192 118.831 43.192 119.018 43.192C119.21 43.192 119.375 43.192 119.514 43.192C119.653 43.192 119.754 43.192 119.818 43.192C119.994 43.192 120.154 43.1813 120.298 43.16C120.447 43.1387 120.562 43.1147 120.642 43.088L121.298 43.576ZM119.506 46.064C119.714 46.2293 119.935 46.4213 120.17 46.64C120.405 46.8587 120.637 47.0853 120.866 47.32C121.095 47.5547 121.306 47.7813 121.498 48C121.695 48.2133 121.861 48.4 121.994 48.56L121.082 49.352C120.885 49.08 120.658 48.7973 120.402 48.504C120.151 48.2107 119.885 47.92 119.602 47.632C119.325 47.3387 119.042 47.0613 118.754 46.8L119.506 46.064ZM132.586 43C132.586 43.1227 132.629 43.2267 132.714 43.312C132.799 43.392 132.903 43.432 133.026 43.432C133.143 43.432 133.245 43.392 133.33 43.312C133.415 43.2267 133.458 43.1227 133.458 43C133.458 42.8827 133.415 42.7813 133.33 42.696C133.245 42.6107 133.143 42.568 133.026 42.568C132.903 42.568 132.799 42.6107 132.714 42.696C132.629 42.7813 132.586 42.8827 132.586 43ZM132.098 43C132.098 42.8293 132.138 42.6747 132.218 42.536C132.303 42.3973 132.415 42.2853 132.554 42.2C132.698 42.1147 132.855 42.072 133.026 42.072C133.197 42.072 133.351 42.1147 133.49 42.2C133.629 42.2853 133.738 42.3973 133.818 42.536C133.903 42.6747 133.946 42.8293 133.946 43C133.946 43.1707 133.903 43.328 133.818 43.472C133.738 43.6107 133.629 43.7227 133.49 43.808C133.351 43.888 133.197 43.928 133.026 43.928C132.855 43.928 132.698 43.888 132.554 43.808C132.415 43.7227 132.303 43.6107 132.218 43.472C132.138 43.328 132.098 43.1707 132.098 43ZM130.994 42.688C130.989 42.7253 130.981 42.7867 130.97 42.872C130.959 42.9573 130.949 43.048 130.938 43.144C130.927 43.2347 130.922 43.3147 130.922 43.384C130.922 43.544 130.922 43.72 130.922 43.912C130.922 44.104 130.922 44.296 130.922 44.488C130.922 44.6747 130.922 44.8453 130.922 45C130.922 45.1067 130.922 45.256 130.922 45.448C130.922 45.64 130.922 45.856 130.922 46.096C130.922 46.336 130.922 46.5867 130.922 46.848C130.922 47.104 130.922 47.3547 130.922 47.6C130.922 47.84 130.922 48.0587 130.922 48.256C130.922 48.448 130.922 48.6 130.922 48.712C130.922 48.9413 130.853 49.1227 130.714 49.256C130.581 49.3947 130.373 49.464 130.09 49.464C129.946 49.464 129.799 49.4613 129.65 49.456C129.501 49.4507 129.354 49.4427 129.21 49.432C129.066 49.4213 128.925 49.408 128.786 49.392L128.69 48.4C128.861 48.432 129.026 48.456 129.186 48.472C129.351 48.488 129.482 48.496 129.578 48.496C129.685 48.496 129.759 48.4747 129.802 48.432C129.845 48.384 129.869 48.3093 129.874 48.208C129.874 48.16 129.874 48.056 129.874 47.896C129.879 47.736 129.882 47.5467 129.882 47.328C129.882 47.1093 129.882 46.8773 129.882 46.632C129.882 46.3867 129.882 46.152 129.882 45.928C129.882 45.704 129.882 45.5093 129.882 45.344C129.882 45.1787 129.882 45.064 129.882 45C129.882 44.904 129.882 44.76 129.882 44.568C129.882 44.3707 129.882 44.1627 129.882 43.944C129.882 43.7253 129.882 43.5387 129.882 43.384C129.882 43.2773 129.874 43.152 129.858 43.008C129.842 42.8587 129.826 42.752 129.81 42.688H130.994ZM127.074 43.96C127.197 43.976 127.325 43.992 127.458 44.008C127.591 44.0187 127.722 44.024 127.85 44.024C127.914 44.024 128.042 44.024 128.234 44.024C128.431 44.024 128.666 44.024 128.938 44.024C129.21 44.024 129.501 44.024 129.81 44.024C130.125 44.024 130.439 44.024 130.754 44.024C131.074 44.024 131.37 44.024 131.642 44.024C131.919 44.024 132.159 44.024 132.362 44.024C132.565 44.024 132.706 44.024 132.786 44.024C132.898 44.024 133.029 44.0187 133.178 44.008C133.333 43.9973 133.466 43.984 133.578 43.968V45.016C133.455 45.0053 133.322 45 133.178 45C133.034 44.9947 132.906 44.992 132.794 44.992C132.714 44.992 132.573 44.992 132.37 44.992C132.173 44.992 131.935 44.992 131.658 44.992C131.386 44.992 131.093 44.992 130.778 44.992C130.463 44.992 130.149 44.992 129.834 44.992C129.519 44.992 129.226 44.992 128.954 44.992C128.682 44.992 128.447 44.992 128.25 44.992C128.058 44.992 127.925 44.992 127.85 44.992C127.733 44.992 127.602 44.9947 127.458 45C127.319 45.0053 127.191 45.0133 127.074 45.024V43.96ZM129.114 46.128C129.023 46.3093 128.914 46.504 128.786 46.712C128.658 46.92 128.519 47.128 128.37 47.336C128.226 47.544 128.085 47.7387 127.946 47.92C127.807 48.096 127.682 48.2427 127.57 48.36L126.706 47.768C126.839 47.6453 126.975 47.5013 127.114 47.336C127.258 47.1653 127.397 46.9867 127.53 46.8C127.669 46.6133 127.794 46.4267 127.906 46.24C128.023 46.0533 128.125 45.8747 128.21 45.704L129.114 46.128ZM132.554 45.68C132.655 45.808 132.767 45.96 132.89 46.136C133.018 46.312 133.146 46.5013 133.274 46.704C133.402 46.9013 133.522 47.096 133.634 47.288C133.746 47.4747 133.842 47.64 133.922 47.784L132.978 48.296C132.893 48.1253 132.794 47.9413 132.682 47.744C132.575 47.5467 132.463 47.3493 132.346 47.152C132.229 46.9547 132.111 46.7707 131.994 46.6C131.882 46.424 131.778 46.2747 131.682 46.152L132.554 45.68ZM138.882 45.296C138.978 45.3013 139.101 45.3093 139.25 45.32C139.399 45.3253 139.554 45.3307 139.714 45.336C139.879 45.3413 140.031 45.344 140.17 45.344C140.303 45.344 140.469 45.344 140.666 45.344C140.863 45.344 141.077 45.344 141.306 45.344C141.541 45.344 141.781 45.344 142.026 45.344C142.277 45.344 142.525 45.344 142.77 45.344C143.015 45.344 143.247 45.344 143.466 45.344C143.685 45.344 143.879 45.344 144.05 45.344C144.226 45.344 144.365 45.344 144.466 45.344C144.653 45.344 144.829 45.3387 144.994 45.328C145.159 45.312 145.295 45.3013 145.402 45.296V46.552C145.311 46.5467 145.175 46.5387 144.994 46.528C144.813 46.5173 144.637 46.512 144.466 46.512C144.365 46.512 144.226 46.512 144.05 46.512C143.874 46.512 143.677 46.512 143.458 46.512C143.239 46.512 143.007 46.512 142.762 46.512C142.522 46.512 142.277 46.512 142.026 46.512C141.775 46.512 141.533 46.512 141.298 46.512C141.069 46.512 140.855 46.512 140.658 46.512C140.466 46.512 140.303 46.512 140.17 46.512C139.941 46.512 139.706 46.5173 139.466 46.528C139.226 46.5333 139.031 46.5413 138.882 46.552V45.296ZM153.534 42.768C153.587 42.864 153.651 43.0053 153.726 43.192C153.806 43.3733 153.886 43.5733 153.966 43.792C154.051 44.0053 154.131 44.2133 154.206 44.416C154.28 44.6133 154.336 44.7787 154.374 44.912L153.366 45.264C153.334 45.136 153.28 44.976 153.206 44.784C153.136 44.5867 153.062 44.384 152.982 44.176C152.902 43.9627 152.822 43.76 152.742 43.568C152.662 43.376 152.592 43.2187 152.534 43.096L153.534 42.768ZM157.19 43.408C157.142 43.504 157.099 43.608 157.062 43.72C157.03 43.832 157.003 43.936 156.982 44.032C156.907 44.32 156.806 44.6427 156.678 45C156.555 45.3573 156.406 45.7147 156.23 46.072C156.059 46.424 155.862 46.7467 155.638 47.04C155.36 47.408 155.048 47.744 154.702 48.048C154.36 48.3467 154.003 48.608 153.63 48.832C153.256 49.056 152.878 49.24 152.494 49.384L151.598 48.488C151.966 48.3813 152.339 48.232 152.718 48.04C153.102 47.848 153.47 47.616 153.822 47.344C154.179 47.072 154.491 46.7653 154.758 46.424C154.96 46.168 155.144 45.856 155.31 45.488C155.48 45.12 155.624 44.728 155.742 44.312C155.864 43.8907 155.947 43.4747 155.99 43.064L157.19 43.408ZM151.31 43.264C151.368 43.3867 151.44 43.5467 151.526 43.744C151.616 43.9413 151.707 44.1493 151.798 44.368C151.888 44.5867 151.971 44.7973 152.046 45C152.126 45.1973 152.19 45.3653 152.238 45.504L151.206 45.88C151.174 45.7733 151.128 45.6427 151.07 45.488C151.016 45.3333 150.952 45.1653 150.878 44.984C150.808 44.8027 150.736 44.624 150.662 44.448C150.587 44.272 150.518 44.112 150.454 43.968C150.39 43.824 150.334 43.7067 150.286 43.616L151.31 43.264ZM168.622 43.672C168.584 43.7467 168.55 43.8373 168.518 43.944C168.491 44.0453 168.467 44.1413 168.446 44.232C168.403 44.424 168.347 44.6427 168.278 44.888C168.208 45.1333 168.126 45.3867 168.03 45.648C167.934 45.9093 167.819 46.168 167.686 46.424C167.558 46.68 167.411 46.92 167.246 47.144C167.006 47.4587 166.726 47.7573 166.406 48.04C166.086 48.3173 165.728 48.568 165.334 48.792C164.939 49.0107 164.504 49.1973 164.03 49.352L163.158 48.4C163.686 48.272 164.142 48.1147 164.526 47.928C164.915 47.736 165.254 47.5227 165.542 47.288C165.83 47.048 166.08 46.792 166.294 46.52C166.47 46.296 166.619 46.0533 166.742 45.792C166.87 45.5307 166.974 45.2667 167.054 45C167.139 44.7333 167.198 44.488 167.23 44.264C167.15 44.264 167.016 44.264 166.83 44.264C166.648 44.264 166.432 44.264 166.182 44.264C165.936 44.264 165.678 44.264 165.406 44.264C165.139 44.264 164.88 44.264 164.63 44.264C164.379 44.264 164.152 44.264 163.95 44.264C163.752 44.264 163.603 44.264 163.502 44.264C163.32 44.264 163.142 44.2667 162.966 44.272C162.795 44.2773 162.656 44.2853 162.55 44.296V43.168C162.635 43.1733 162.734 43.1813 162.846 43.192C162.958 43.2027 163.075 43.2133 163.198 43.224C163.32 43.2293 163.424 43.232 163.51 43.232C163.59 43.232 163.71 43.232 163.87 43.232C164.03 43.232 164.214 43.232 164.422 43.232C164.63 43.232 164.846 43.232 165.07 43.232C165.299 43.232 165.526 43.232 165.75 43.232C165.974 43.232 166.184 43.232 166.382 43.232C166.579 43.232 166.75 43.232 166.894 43.232C167.043 43.232 167.147 43.232 167.206 43.232C167.286 43.232 167.384 43.2293 167.502 43.224C167.619 43.2133 167.728 43.1947 167.83 43.168L168.622 43.672ZM174.846 44.664C174.936 44.68 175.043 44.6907 175.166 44.696C175.288 44.7013 175.392 44.704 175.478 44.704H179.142C179.238 44.704 179.342 44.7013 179.454 44.696C179.566 44.6907 179.67 44.68 179.766 44.664V45.672C179.664 45.6613 179.558 45.6533 179.446 45.648C179.334 45.6427 179.232 45.64 179.142 45.64H175.478C175.392 45.64 175.288 45.6427 175.166 45.648C175.043 45.6533 174.936 45.6613 174.846 45.672V44.664ZM176.726 48.76V45.216H177.774V48.76H176.726ZM174.438 48.168C174.539 48.1787 174.648 48.1893 174.766 48.2C174.883 48.2107 174.992 48.216 175.094 48.216H179.518C179.63 48.216 179.736 48.2107 179.838 48.2C179.944 48.184 180.04 48.1733 180.126 48.168V49.216C180.04 49.2 179.934 49.1893 179.806 49.184C179.683 49.1787 179.587 49.176 179.518 49.176H175.094C174.998 49.176 174.891 49.1787 174.774 49.184C174.656 49.1893 174.544 49.2 174.438 49.216V48.168ZM191.702 43.576C191.67 43.624 191.622 43.6987 191.558 43.8C191.499 43.9013 191.454 43.9947 191.422 44.08C191.31 44.3307 191.171 44.6107 191.006 44.92C190.846 45.2293 190.662 45.5413 190.454 45.856C190.251 46.1653 190.035 46.456 189.806 46.728C189.507 47.064 189.176 47.3973 188.814 47.728C188.456 48.0533 188.078 48.3547 187.678 48.632C187.283 48.904 186.878 49.1387 186.462 49.336L185.638 48.472C186.07 48.3067 186.488 48.0987 186.894 47.848C187.299 47.5973 187.675 47.3253 188.022 47.032C188.368 46.7387 188.667 46.4533 188.918 46.176C189.094 45.9733 189.259 45.7573 189.414 45.528C189.574 45.2987 189.715 45.072 189.838 44.848C189.96 44.6187 190.051 44.408 190.11 44.216C190.056 44.216 189.96 44.216 189.822 44.216C189.683 44.216 189.52 44.216 189.334 44.216C189.152 44.216 188.96 44.216 188.758 44.216C188.555 44.216 188.36 44.216 188.174 44.216C187.992 44.216 187.832 44.216 187.694 44.216C187.555 44.216 187.456 44.216 187.398 44.216C187.286 44.216 187.168 44.2213 187.046 44.232C186.923 44.2373 186.806 44.2453 186.694 44.256C186.587 44.2613 186.504 44.2667 186.446 44.272V43.136C186.526 43.1413 186.624 43.1493 186.742 43.16C186.859 43.1707 186.976 43.1787 187.094 43.184C187.216 43.1893 187.318 43.192 187.398 43.192C187.467 43.192 187.576 43.192 187.726 43.192C187.875 43.192 188.046 43.192 188.238 43.192C188.43 43.192 188.627 43.192 188.83 43.192C189.038 43.192 189.235 43.192 189.422 43.192C189.614 43.192 189.779 43.192 189.918 43.192C190.056 43.192 190.158 43.192 190.222 43.192C190.398 43.192 190.558 43.1813 190.702 43.16C190.851 43.1387 190.966 43.1147 191.046 43.088L191.702 43.576ZM189.91 46.064C190.118 46.2293 190.339 46.4213 190.574 46.64C190.808 46.8587 191.04 47.0853 191.27 47.32C191.499 47.5547 191.71 47.7813 191.902 48C192.099 48.2133 192.264 48.4 192.398 48.56L191.486 49.352C191.288 49.08 191.062 48.7973 190.806 48.504C190.555 48.2107 190.288 47.92 190.006 47.632C189.728 47.3387 189.446 47.0613 189.158 46.8L189.91 46.064ZM198.398 42.864C198.531 42.8853 198.675 42.9013 198.83 42.912C198.984 42.9173 199.126 42.92 199.254 42.92C199.355 42.92 199.515 42.92 199.734 42.92C199.952 42.92 200.198 42.92 200.47 42.92C200.742 42.92 201.014 42.92 201.286 42.92C201.558 42.92 201.798 42.92 202.006 42.92C202.219 42.92 202.374 42.92 202.47 42.92C202.608 42.92 202.752 42.9173 202.902 42.912C203.051 42.9013 203.195 42.8853 203.334 42.864V43.896C203.195 43.8853 203.051 43.8773 202.902 43.872C202.752 43.8667 202.608 43.864 202.47 43.864C202.374 43.864 202.219 43.864 202.006 43.864C201.798 43.864 201.558 43.864 201.286 43.864C201.014 43.864 200.742 43.864 200.47 43.864C200.198 43.864 199.952 43.864 199.734 43.864C199.52 43.864 199.363 43.864 199.262 43.864C199.123 43.864 198.974 43.8667 198.814 43.872C198.659 43.8773 198.52 43.8853 198.398 43.896V42.864ZM197.47 44.912C197.587 44.9227 197.712 44.9333 197.846 44.944C197.984 44.9547 198.115 44.96 198.238 44.96C198.307 44.96 198.446 44.96 198.654 44.96C198.862 44.96 199.112 44.96 199.406 44.96C199.699 44.96 200.014 44.96 200.35 44.96C200.691 44.96 201.03 44.96 201.366 44.96C201.707 44.96 202.024 44.96 202.318 44.96C202.611 44.96 202.859 44.96 203.062 44.96C203.27 44.96 203.408 44.96 203.478 44.96C203.563 44.96 203.678 44.9573 203.822 44.952C203.971 44.9413 204.099 44.928 204.206 44.912V45.952C204.11 45.9413 203.992 45.936 203.854 45.936C203.715 45.9307 203.59 45.928 203.478 45.928C203.408 45.928 203.27 45.928 203.062 45.928C202.859 45.928 202.611 45.928 202.318 45.928C202.024 45.928 201.707 45.928 201.366 45.928C201.03 45.928 200.691 45.928 200.35 45.928C200.014 45.928 199.699 45.928 199.406 45.928C199.112 45.928 198.862 45.928 198.654 45.928C198.446 45.928 198.307 45.928 198.238 45.928C198.12 45.928 197.99 45.9307 197.846 45.936C197.707 45.9413 197.582 45.9493 197.47 45.96V44.912ZM201.566 45.464C201.566 45.9867 201.52 46.456 201.43 46.872C201.339 47.2827 201.208 47.6533 201.038 47.984C200.942 48.1653 200.814 48.352 200.654 48.544C200.494 48.736 200.31 48.9173 200.102 49.088C199.894 49.2587 199.67 49.4027 199.43 49.52L198.494 48.84C198.776 48.728 199.048 48.568 199.31 48.36C199.571 48.152 199.782 47.9307 199.942 47.696C200.144 47.3867 200.28 47.0453 200.35 46.672C200.419 46.2987 200.454 45.8987 200.454 45.472L201.566 45.464ZM208.929 46.72C209.276 46.6453 209.628 46.544 209.985 46.416C210.348 46.2827 210.686 46.1413 211.001 45.992C211.316 45.8373 211.58 45.6987 211.793 45.576C212.054 45.416 212.31 45.2373 212.561 45.04C212.817 44.8373 213.052 44.6347 213.265 44.432C213.478 44.2293 213.652 44.04 213.785 43.864L214.577 44.64C214.422 44.816 214.217 45.0107 213.961 45.224C213.71 45.432 213.438 45.6427 213.145 45.856C212.852 46.064 212.558 46.2533 212.265 46.424C212.084 46.536 211.876 46.6507 211.641 46.768C211.406 46.88 211.158 46.992 210.897 47.104C210.641 47.2107 210.382 47.312 210.121 47.408C209.865 47.504 209.625 47.5893 209.401 47.664L208.929 46.72ZM211.697 46.2L212.785 45.992V48.84C212.785 48.9307 212.785 49.0347 212.785 49.152C212.79 49.2693 212.798 49.376 212.809 49.472C212.82 49.5733 212.83 49.6507 212.841 49.704H211.657C211.668 49.6507 211.673 49.5733 211.673 49.472C211.678 49.376 211.684 49.2693 211.689 49.152C211.694 49.0347 211.697 48.9307 211.697 48.84V46.2ZM226.073 42.616C226.142 42.712 226.214 42.8267 226.289 42.96C226.369 43.0933 226.446 43.2267 226.521 43.36C226.596 43.4933 226.657 43.6107 226.705 43.712L226.065 43.992C225.98 43.8267 225.881 43.64 225.769 43.432C225.657 43.2187 225.548 43.0347 225.441 42.88L226.073 42.616ZM227.017 42.256C227.086 42.3573 227.161 42.4773 227.241 42.616C227.326 42.7493 227.406 42.8827 227.481 43.016C227.556 43.144 227.617 43.2533 227.665 43.344L227.025 43.616C226.945 43.4507 226.844 43.264 226.721 43.056C226.604 42.848 226.492 42.6693 226.385 42.52L227.017 42.256ZM221.369 46.512C221.46 46.288 221.545 46.0533 221.625 45.808C221.71 45.5573 221.785 45.3013 221.849 45.04C221.913 44.7733 221.969 44.5093 222.017 44.248C222.07 43.9867 222.108 43.728 222.129 43.472L223.297 43.712C223.276 43.7867 223.252 43.8747 223.225 43.976C223.198 44.0773 223.174 44.176 223.153 44.272C223.132 44.368 223.116 44.448 223.105 44.512C223.078 44.6507 223.041 44.8187 222.993 45.016C222.945 45.2133 222.889 45.424 222.825 45.648C222.761 45.8667 222.694 46.088 222.625 46.312C222.561 46.5307 222.494 46.7333 222.425 46.92C222.329 47.176 222.214 47.4427 222.081 47.72C221.953 47.9973 221.814 48.264 221.665 48.52C221.521 48.776 221.38 49.0053 221.241 49.208L220.121 48.736C220.377 48.4053 220.614 48.04 220.833 47.64C221.057 47.24 221.236 46.864 221.369 46.512ZM225.321 46.344C225.241 46.1307 225.153 45.904 225.057 45.664C224.961 45.424 224.86 45.184 224.753 44.944C224.646 44.704 224.542 44.4773 224.441 44.264C224.34 44.0507 224.246 43.8667 224.161 43.712L225.225 43.368C225.305 43.5227 225.398 43.7093 225.505 43.928C225.612 44.1467 225.718 44.3787 225.825 44.624C225.932 44.864 226.036 45.104 226.137 45.344C226.238 45.584 226.329 45.8 226.409 45.992C226.478 46.168 226.553 46.376 226.633 46.616C226.718 46.856 226.804 47.1067 226.889 47.368C226.98 47.624 227.062 47.8747 227.137 48.12C227.217 48.3653 227.284 48.5867 227.337 48.784L226.153 49.168C226.084 48.8533 226.004 48.5333 225.913 48.208C225.822 47.8827 225.726 47.5627 225.625 47.248C225.529 46.9333 225.428 46.632 225.321 46.344ZM235.617 48.824C235.633 48.744 235.646 48.6533 235.657 48.552C235.673 48.4453 235.681 48.3387 235.681 48.232C235.681 48.1733 235.681 48.056 235.681 47.88C235.681 47.704 235.681 47.4907 235.681 47.24C235.681 46.9893 235.681 46.72 235.681 46.432C235.681 46.1387 235.681 45.8427 235.681 45.544C235.681 45.2453 235.681 44.9653 235.681 44.704C235.681 44.4373 235.681 44.2053 235.681 44.008C235.681 43.8053 235.681 43.6587 235.681 43.568C235.681 43.3867 235.67 43.2293 235.649 43.096C235.633 42.9627 235.622 42.8907 235.617 42.88H236.809C236.804 42.8907 236.793 42.9653 236.777 43.104C236.761 43.2373 236.753 43.3947 236.753 43.576C236.753 43.6667 236.753 43.8027 236.753 43.984C236.753 44.16 236.753 44.3653 236.753 44.6C236.753 44.8293 236.753 45.0747 236.753 45.336C236.753 45.5973 236.753 45.856 236.753 46.112C236.753 46.3627 236.753 46.6027 236.753 46.832C236.753 47.056 236.753 47.248 236.753 47.408C236.753 47.568 236.753 47.6853 236.753 47.76C236.972 47.664 237.198 47.5333 237.433 47.368C237.668 47.2027 237.897 47.0107 238.121 46.792C238.35 46.568 238.553 46.328 238.729 46.072L239.345 46.952C239.126 47.24 238.86 47.5227 238.545 47.8C238.236 48.0773 237.916 48.3307 237.585 48.56C237.254 48.7893 236.937 48.9813 236.633 49.136C236.548 49.184 236.478 49.2267 236.425 49.264C236.372 49.3067 236.326 49.344 236.289 49.376L235.617 48.824ZM231.913 48.704C232.265 48.4587 232.553 48.1627 232.777 47.816C233.001 47.4693 233.166 47.128 233.273 46.792C233.332 46.616 233.374 46.4 233.401 46.144C233.433 45.8827 233.457 45.6053 233.473 45.312C233.489 45.0133 233.497 44.72 233.497 44.432C233.502 44.1387 233.505 43.8693 233.505 43.624C233.505 43.464 233.497 43.328 233.481 43.216C233.47 43.0987 233.454 42.9893 233.433 42.888H234.609C234.604 42.8987 234.596 42.944 234.585 43.024C234.58 43.0987 234.572 43.1893 234.561 43.296C234.556 43.3973 234.553 43.504 234.553 43.616C234.553 43.8507 234.55 44.1253 234.545 44.44C234.54 44.7493 234.529 45.0667 234.513 45.392C234.497 45.7173 234.473 46.0267 234.441 46.32C234.409 46.608 234.366 46.8533 234.313 47.056C234.19 47.5093 234.006 47.9307 233.761 48.32C233.521 48.704 233.23 49.048 232.889 49.352L231.913 48.704Z" fill="#00BE8A"/>
<path d="M65.58 26.11C65.1067 26.11 64.7433 26.0233 64.49 25.85C64.2433 25.6767 64.12 25.33 64.12 24.81V22.16H63.2V21.19H64.12V19.5H65.24V21.19H66.57V22.16H65.24V24.52C65.24 24.7467 65.2933 24.9 65.4 24.98C65.5133 25.06 65.6733 25.1 65.88 25.1C66.0067 25.1 66.1333 25.08 66.26 25.04C66.3933 25 66.4967 24.96 66.57 24.92V25.95C66.45 25.9967 66.3 26.0333 66.12 26.06C65.94 26.0933 65.76 26.11 65.58 26.11ZM67.2577 26V18.87H68.3877V21.76C68.4943 21.5733 68.6543 21.4133 68.8677 21.28C69.081 21.14 69.3377 21.07 69.6377 21.07C70.1377 21.07 70.5443 21.23 70.8577 21.55C71.1777 21.87 71.3377 22.34 71.3377 22.96V26H70.2077V23.23C70.2077 22.85 70.131 22.5667 69.9777 22.38C69.8243 22.1867 69.6177 22.09 69.3577 22.09C69.071 22.09 68.8377 22.19 68.6577 22.39C68.4777 22.5833 68.3877 22.8733 68.3877 23.26V26H67.2577Z" fill="#00BE8A"/>
<path d="M37.896 49V47.944C37.896 46.408 38.2907 44.9147 39.08 43.464C39.8907 42.0133 41.2347 40.392 43.112 38.6C43.7733 37.96 44.4027 37.32 45 36.68C45.5973 36.0187 46.088 35.3787 46.472 34.76C46.856 34.12 47.0587 33.512 47.08 32.936C47.1013 31.8267 46.8453 31.0053 46.312 30.472C45.8 29.9387 45.064 29.672 44.104 29.672C43.1867 29.672 42.504 30.0027 42.056 30.664C41.608 31.3253 41.384 32.2533 41.384 33.448H37.992C37.992 31.2293 38.5573 29.5013 39.688 28.264C40.8187 27.0267 42.2907 26.408 44.104 26.408C45.3413 26.408 46.44 26.664 47.4 27.176C48.3813 27.688 49.1493 28.4347 49.704 29.416C50.2587 30.3973 50.5147 31.6027 50.472 33.032C50.4507 34.0347 50.216 34.9627 49.768 35.816C49.32 36.6693 48.7227 37.5013 47.976 38.312C47.2507 39.1013 46.4187 39.944 45.48 40.84C44.4987 41.8 43.624 42.7173 42.856 43.592C42.1093 44.4667 41.672 45.224 41.544 45.864H50.088V49H37.896ZM57.007 49.32C55.8977 49.32 54.831 49.0213 53.807 48.424C52.8043 47.8267 51.9937 47.0693 51.375 46.152L53.935 44.2C54.319 44.7973 54.7563 45.2773 55.247 45.64C55.759 45.9813 56.3457 46.152 57.007 46.152C58.4577 46.152 59.5243 45.4907 60.207 44.168C60.8897 42.824 61.2523 40.8507 61.295 38.248C60.9323 38.7813 60.4203 39.208 59.759 39.528C59.0977 39.8267 58.4257 39.976 57.743 39.976C56.5483 39.976 55.471 39.7093 54.511 39.176C53.5723 38.6213 52.8257 37.8533 52.271 36.872C51.7377 35.8693 51.471 34.6853 51.471 33.32C51.471 31.9333 51.727 30.7173 52.239 29.672C52.751 28.6053 53.4763 27.7733 54.415 27.176C55.3537 26.5573 56.4417 26.248 57.679 26.248C58.6177 26.248 59.503 26.408 60.335 26.728C61.1883 27.0267 61.935 27.5707 62.575 28.36C63.2363 29.128 63.7483 30.2267 64.111 31.656C64.495 33.0853 64.6657 34.92 64.623 37.16C64.5377 41.3627 63.8443 44.4453 62.543 46.408C61.263 48.3493 59.4177 49.32 57.007 49.32ZM57.775 36.904C58.7777 36.904 59.5563 36.5733 60.111 35.912C60.6657 35.2293 60.9217 34.3547 60.879 33.288C60.8363 32.072 60.5483 31.144 60.015 30.504C59.503 29.8427 58.799 29.512 57.903 29.512C56.9857 29.512 56.2603 29.864 55.727 30.568C55.215 31.272 54.959 32.1893 54.959 33.32C54.959 34.3867 55.215 35.2507 55.727 35.912C56.2603 36.5733 56.943 36.904 57.775 36.904Z" fill="#00BE8A"/>
<path d="M39.864 12.936H43.552V13.768H39.864V12.936ZM38.432 14.736H45.592V15.616H38.432V14.736ZM41.512 14.216H42.496V16.688C42.496 16.9333 42.4613 17.1253 42.392 17.264C42.3227 17.4027 42.192 17.5067 42 17.576C41.808 17.6453 41.584 17.688 41.328 17.704C41.072 17.72 40.7733 17.728 40.432 17.728C40.4 17.5893 40.344 17.4293 40.264 17.248C40.1893 17.072 40.1147 16.92 40.04 16.792C40.2107 16.7973 40.384 16.8027 40.56 16.808C40.736 16.8133 40.8907 16.816 41.024 16.816C41.1627 16.816 41.2587 16.8133 41.312 16.808C41.392 16.808 41.4453 16.7973 41.472 16.776C41.4987 16.7547 41.512 16.7173 41.512 16.664V14.216ZM43.248 12.936H43.48L43.688 12.888L44.288 13.352C44.112 13.5493 43.9067 13.7467 43.672 13.944C43.4373 14.1413 43.192 14.328 42.936 14.504C42.68 14.6747 42.4213 14.824 42.16 14.952C42.1013 14.8667 42.0187 14.7707 41.912 14.664C41.8107 14.552 41.7253 14.4613 41.656 14.392C41.864 14.2853 42.0693 14.1573 42.272 14.008C42.48 13.8587 42.6693 13.7067 42.84 13.552C43.0107 13.392 43.1467 13.248 43.248 13.12V12.936ZM38.536 11.472H45.504V13.432H44.56V12.32H39.432V13.432H38.536V11.472ZM44.072 10.256L45.112 10.56C44.9307 10.8267 44.7413 11.088 44.544 11.344C44.3467 11.6 44.168 11.816 44.008 11.992L43.216 11.704C43.3227 11.5653 43.4267 11.4133 43.528 11.248C43.6347 11.0827 43.736 10.9147 43.832 10.744C43.928 10.568 44.008 10.4053 44.072 10.256ZM39.072 10.648L39.888 10.28C40.032 10.44 40.1733 10.6187 40.312 10.816C40.4507 11.008 40.552 11.1813 40.616 11.336L39.752 11.744C39.6933 11.5947 39.5973 11.4187 39.464 11.216C39.336 11.008 39.2053 10.8187 39.072 10.648ZM41.08 10.472L41.928 10.16C42.056 10.3307 42.1787 10.5253 42.296 10.744C42.4187 10.9627 42.5067 11.1547 42.56 11.32L41.656 11.672C41.6133 11.512 41.536 11.32 41.424 11.096C41.3173 10.8667 41.2027 10.6587 41.08 10.472ZM54.112 11.32H58.552V12.2H54.112V11.32ZM55.84 10.2H56.784V11.712H55.84V10.2ZM55.04 12.272L55.904 12.632C55.728 12.9787 55.5173 13.3147 55.272 13.64C55.0267 13.96 54.7733 14.2293 54.512 14.448C54.4427 14.3573 54.3413 14.2533 54.208 14.136C54.0747 14.0133 53.9573 13.912 53.856 13.832C54.096 13.6453 54.32 13.4107 54.528 13.128C54.7413 12.84 54.912 12.5547 55.04 12.272ZM56.704 12.664L57.448 12.24C57.608 12.4107 57.768 12.5947 57.928 12.792C58.0933 12.9893 58.2427 13.1867 58.376 13.384C58.5147 13.576 58.6213 13.7547 58.696 13.92L57.888 14.384C57.824 14.224 57.728 14.0453 57.6 13.848C57.472 13.6507 57.328 13.448 57.168 13.24C57.0133 13.0267 56.8587 12.8347 56.704 12.664ZM55.632 13.768C55.808 14.2373 56.04 14.6773 56.328 15.088C56.6213 15.4933 56.968 15.8507 57.368 16.16C57.768 16.464 58.2187 16.704 58.72 16.88C58.6507 16.9493 58.5707 17.0347 58.48 17.136C58.3947 17.2373 58.312 17.3413 58.232 17.448C58.1573 17.5547 58.096 17.6507 58.048 17.736C57.52 17.5173 57.0507 17.2267 56.64 16.864C56.2293 16.496 55.872 16.072 55.568 15.592C55.264 15.1067 55.008 14.576 54.8 14L55.632 13.768ZM56.792 13.72L57.76 13.912C57.5787 14.488 57.3333 15.024 57.024 15.52C56.72 16.016 56.3387 16.4533 55.88 16.832C55.4213 17.2053 54.8693 17.5093 54.224 17.744C54.192 17.6693 54.1467 17.584 54.088 17.488C54.0293 17.392 53.968 17.2987 53.904 17.208C53.8453 17.1173 53.7893 17.04 53.736 16.976C54.3173 16.784 54.8133 16.5253 55.224 16.2C55.6347 15.8747 55.968 15.5013 56.224 15.08C56.4853 14.6533 56.6747 14.2 56.792 13.72ZM51.24 11.856H54.016V12.744H51.24V11.856ZM52.256 10.2H53.144V17.712H52.256V10.2ZM52.248 12.472L52.792 12.656C52.7333 12.976 52.6587 13.3067 52.568 13.648C52.4827 13.9893 52.384 14.3253 52.272 14.656C52.16 14.9813 52.0373 15.288 51.904 15.576C51.776 15.8587 51.6373 16.1013 51.488 16.304C51.4453 16.176 51.3787 16.0293 51.288 15.864C51.2027 15.6987 51.1227 15.5573 51.048 15.44C51.1813 15.264 51.3067 15.0587 51.424 14.824C51.5467 14.5893 51.6613 14.3413 51.768 14.08C51.8747 13.8133 51.968 13.544 52.048 13.272C52.128 12.9947 52.1947 12.728 52.248 12.472ZM53.112 13.104C53.16 13.1627 53.232 13.264 53.328 13.408C53.424 13.5467 53.528 13.6987 53.64 13.864C53.752 14.0293 53.8533 14.184 53.944 14.328C54.04 14.472 54.1067 14.5733 54.144 14.632L53.624 15.344C53.576 15.2213 53.512 15.0773 53.432 14.912C53.352 14.7467 53.264 14.576 53.168 14.4C53.0773 14.2187 52.9893 14.0507 52.904 13.896C52.8187 13.7413 52.7467 13.6133 52.688 13.512L53.112 13.104ZM66.232 13.408H71.424V14.32H66.232V13.408ZM66.632 11.352H71.04V12.272H66.632V11.352ZM68.304 10.2H69.296V14.072H68.304V10.2ZM66.24 16.424C66.5973 16.408 67.0107 16.3893 67.48 16.368C67.9547 16.3467 68.456 16.32 68.984 16.288C69.5173 16.256 70.048 16.2267 70.576 16.2L70.568 17.072C70.072 17.1093 69.5707 17.1493 69.064 17.192C68.5627 17.2347 68.08 17.272 67.616 17.304C67.1573 17.336 66.7387 17.368 66.36 17.4L66.24 16.424ZM69.304 15.32L70.128 14.88C70.3307 15.1147 70.528 15.3707 70.72 15.648C70.9173 15.9253 71.096 16.2 71.256 16.472C71.416 16.744 71.536 16.9947 71.616 17.224L70.704 17.72C70.6347 17.5013 70.5253 17.2533 70.376 16.976C70.2267 16.6987 70.0587 16.416 69.872 16.128C69.6853 15.8347 69.496 15.5653 69.304 15.32ZM67.68 14.056L68.752 14.336C68.6347 14.64 68.5067 14.952 68.368 15.272C68.2347 15.592 68.0987 15.896 67.96 16.184C67.8267 16.472 67.6987 16.728 67.576 16.952L66.72 16.672C66.8053 16.496 66.8933 16.3013 66.984 16.088C67.0747 15.8693 67.1627 15.6427 67.248 15.408C67.3387 15.1733 67.4187 14.9413 67.488 14.712C67.5627 14.4773 67.6267 14.2587 67.68 14.056ZM64.448 10.944L64.976 10.232C65.152 10.296 65.336 10.3733 65.528 10.464C65.72 10.5547 65.904 10.6507 66.08 10.752C66.256 10.8533 66.4 10.952 66.512 11.048L65.952 11.832C65.8453 11.736 65.7067 11.6347 65.536 11.528C65.3707 11.416 65.192 11.3093 65 11.208C64.808 11.1013 64.624 11.0133 64.448 10.944ZM63.992 13.12L64.488 12.392C64.6587 12.4507 64.8427 12.5227 65.04 12.608C65.2373 12.6933 65.424 12.784 65.6 12.88C65.7813 12.9707 65.928 13.0587 66.04 13.144L65.512 13.952C65.4053 13.8613 65.264 13.7653 65.088 13.664C64.9173 13.5627 64.736 13.464 64.544 13.368C64.352 13.272 64.168 13.1893 63.992 13.12ZM64.208 16.992C64.3467 16.7893 64.496 16.5493 64.656 16.272C64.8213 15.9947 64.9867 15.7013 65.152 15.392C65.3227 15.0827 65.4827 14.7733 65.632 14.464L66.352 15.08C66.224 15.3573 66.0853 15.6427 65.936 15.936C65.792 16.224 65.6427 16.5093 65.488 16.792C65.3387 17.0747 65.1893 17.3467 65.04 17.608L64.208 16.992ZM79.968 10.392H81.072C81.0613 10.616 81.0427 10.904 81.016 11.256C80.9893 11.608 80.9387 12 80.864 12.432C80.7947 12.8587 80.688 13.3067 80.544 13.776C80.4 14.2453 80.2027 14.7147 79.952 15.184C79.7067 15.648 79.392 16.0933 79.008 16.52C78.6293 16.9413 78.168 17.3173 77.624 17.648C77.5387 17.5253 77.4213 17.3947 77.272 17.256C77.128 17.1173 76.976 16.992 76.816 16.88C77.3493 16.5813 77.7973 16.24 78.16 15.856C78.5227 15.472 78.8187 15.0693 79.048 14.648C79.2773 14.2213 79.4533 13.7947 79.576 13.368C79.6987 12.936 79.7867 12.528 79.84 12.144C79.8933 11.76 79.9253 11.416 79.936 11.112C79.9467 10.808 79.9573 10.568 79.968 10.392ZM81.032 10.608C81.0373 10.7093 81.048 10.8693 81.064 11.088C81.08 11.3067 81.112 11.568 81.16 11.872C81.208 12.176 81.28 12.5067 81.376 12.864C81.4773 13.216 81.6107 13.5787 81.776 13.952C81.9413 14.3253 82.1467 14.6907 82.392 15.048C82.6373 15.4053 82.9333 15.736 83.28 16.04C83.632 16.344 84.0427 16.608 84.512 16.832C84.3573 16.944 84.2133 17.0747 84.08 17.224C83.952 17.3733 83.848 17.5147 83.768 17.648C83.2773 17.4027 82.848 17.112 82.48 16.776C82.1173 16.4347 81.8053 16.0667 81.544 15.672C81.288 15.272 81.0747 14.8667 80.904 14.456C80.7333 14.0453 80.5947 13.6427 80.488 13.248C80.3867 12.848 80.3093 12.4773 80.256 12.136C80.2027 11.7947 80.1653 11.4987 80.144 11.248C80.128 10.9973 80.1147 10.816 80.104 10.704L81.032 10.608ZM91.208 15.024H95.744V15.6H91.208V15.024ZM91.208 14.024H96.304V16.592H91.208V15.952H95.352V14.672H91.208V14.024ZM92.976 14.384H93.896V16.616C93.896 16.7653 93.9307 16.8613 94 16.904C94.0747 16.9413 94.232 16.96 94.472 16.96C94.52 16.96 94.592 16.96 94.688 16.96C94.7893 16.96 94.9013 16.96 95.024 16.96C95.152 16.96 95.2773 16.96 95.4 16.96C95.528 16.96 95.6453 16.96 95.752 16.96C95.8587 16.96 95.9413 16.96 96 16.96C96.1333 16.96 96.2347 16.9413 96.304 16.904C96.3733 16.8667 96.424 16.7893 96.456 16.672C96.488 16.5547 96.512 16.384 96.528 16.16C96.624 16.224 96.7493 16.2853 96.904 16.344C97.064 16.4027 97.2053 16.4427 97.328 16.464C97.2907 16.784 97.2293 17.032 97.144 17.208C97.0587 17.3893 96.9307 17.5147 96.76 17.584C96.5947 17.6587 96.3653 17.696 96.072 17.696C96.024 17.696 95.9413 17.696 95.824 17.696C95.712 17.696 95.584 17.696 95.44 17.696C95.3013 17.696 95.16 17.696 95.016 17.696C94.872 17.696 94.744 17.696 94.632 17.696C94.52 17.696 94.4373 17.696 94.384 17.696C94.0213 17.696 93.736 17.664 93.528 17.6C93.3253 17.536 93.1813 17.4267 93.096 17.272C93.016 17.1173 92.976 16.9013 92.976 16.624V14.384ZM90.728 14.024H91.648V16.952H90.728V14.024ZM90.544 10.488H96.48V11.2H90.544V10.488ZM91.16 12.408H92.744V12.928H91.16V12.408ZM91.008 13.2H92.744V13.728H91.008V13.2ZM94.264 13.2H96.024V13.728H94.264V13.2ZM94.264 12.408H95.832V12.928H94.264V12.408ZM93.024 10.776H93.968V13.808H93.024V10.776ZM89.992 11.496H97.056V13.136H96.168V12.136H90.848V13.136H89.992V11.496ZM102.712 13.704H110.096V14.672H102.712V13.704ZM105.904 12.432H106.912V16.6C106.912 16.872 106.875 17.0827 106.8 17.232C106.731 17.3813 106.597 17.4933 106.4 17.568C106.208 17.6427 105.973 17.6907 105.696 17.712C105.419 17.7333 105.096 17.7413 104.728 17.736C104.712 17.64 104.68 17.5307 104.632 17.408C104.584 17.2907 104.533 17.1707 104.48 17.048C104.427 16.9307 104.373 16.8293 104.32 16.744C104.507 16.7493 104.691 16.7547 104.872 16.76C105.059 16.7653 105.224 16.768 105.368 16.768C105.517 16.768 105.621 16.768 105.68 16.768C105.765 16.768 105.824 16.7547 105.856 16.728C105.888 16.7013 105.904 16.6533 105.904 16.584V12.432ZM103.552 10.696H108.592V11.64H103.552V10.696ZM108.272 10.696H108.528L108.752 10.64L109.48 11.192C109.235 11.4533 108.952 11.7147 108.632 11.976C108.317 12.2373 107.989 12.488 107.648 12.728C107.307 12.9627 106.973 13.1653 106.648 13.336C106.6 13.2667 106.539 13.1893 106.464 13.104C106.389 13.0187 106.312 12.936 106.232 12.856C106.152 12.7707 106.08 12.6987 106.016 12.64C106.304 12.496 106.595 12.3227 106.888 12.12C107.187 11.9173 107.459 11.7093 107.704 11.496C107.949 11.2827 108.139 11.088 108.272 10.912V10.696ZM117.144 12.936H120.832V13.768H117.144V12.936ZM115.712 14.736H122.872V15.616H115.712V14.736ZM118.792 14.216H119.776V16.688C119.776 16.9333 119.741 17.1253 119.672 17.264C119.603 17.4027 119.472 17.5067 119.28 17.576C119.088 17.6453 118.864 17.688 118.608 17.704C118.352 17.72 118.053 17.728 117.712 17.728C117.68 17.5893 117.624 17.4293 117.544 17.248C117.469 17.072 117.395 16.92 117.32 16.792C117.491 16.7973 117.664 16.8027 117.84 16.808C118.016 16.8133 118.171 16.816 118.304 16.816C118.443 16.816 118.539 16.8133 118.592 16.808C118.672 16.808 118.725 16.7973 118.752 16.776C118.779 16.7547 118.792 16.7173 118.792 16.664V14.216ZM120.528 12.936H120.76L120.968 12.888L121.568 13.352C121.392 13.5493 121.187 13.7467 120.952 13.944C120.717 14.1413 120.472 14.328 120.216 14.504C119.96 14.6747 119.701 14.824 119.44 14.952C119.381 14.8667 119.299 14.7707 119.192 14.664C119.091 14.552 119.005 14.4613 118.936 14.392C119.144 14.2853 119.349 14.1573 119.552 14.008C119.76 13.8587 119.949 13.7067 120.12 13.552C120.291 13.392 120.427 13.248 120.528 13.12V12.936ZM115.816 11.472H122.784V13.432H121.84V12.32H116.712V13.432H115.816V11.472ZM121.352 10.256L122.392 10.56C122.211 10.8267 122.021 11.088 121.824 11.344C121.627 11.6 121.448 11.816 121.288 11.992L120.496 11.704C120.603 11.5653 120.707 11.4133 120.808 11.248C120.915 11.0827 121.016 10.9147 121.112 10.744C121.208 10.568 121.288 10.4053 121.352 10.256ZM116.352 10.648L117.168 10.28C117.312 10.44 117.453 10.6187 117.592 10.816C117.731 11.008 117.832 11.1813 117.896 11.336L117.032 11.744C116.973 11.5947 116.877 11.4187 116.744 11.216C116.616 11.008 116.485 10.8187 116.352 10.648ZM118.36 10.472L119.208 10.16C119.336 10.3307 119.459 10.5253 119.576 10.744C119.699 10.9627 119.787 11.1547 119.84 11.32L118.936 11.672C118.893 11.512 118.816 11.32 118.704 11.096C118.597 10.8667 118.483 10.6587 118.36 10.472ZM129.904 12.624H134.376V13.168H129.904V12.624ZM130.288 11.8H134.04V12.32H130.288V11.8ZM131.688 11.464H132.56V12.944H131.688V11.464ZM131.6 14.808H132.44V16.392H131.6V14.808ZM132.48 14.656C132.619 14.8213 132.797 14.9813 133.016 15.136C133.235 15.2853 133.475 15.416 133.736 15.528C134.003 15.64 134.275 15.7307 134.552 15.8C134.472 15.8693 134.384 15.9653 134.288 16.088C134.192 16.2053 134.115 16.3093 134.056 16.4C133.768 16.3093 133.485 16.1893 133.208 16.04C132.936 15.8853 132.685 15.7093 132.456 15.512C132.227 15.3093 132.032 15.1013 131.872 14.888L132.48 14.656ZM132.104 14.328L132.824 14.584C132.621 14.8187 132.376 15.04 132.088 15.248C131.805 15.456 131.504 15.6427 131.184 15.808C130.864 15.9733 130.547 16.1147 130.232 16.232C130.2 16.1787 130.152 16.1147 130.088 16.04C130.024 15.96 129.96 15.8827 129.896 15.808C129.832 15.7333 129.773 15.672 129.72 15.624C130.024 15.5333 130.325 15.424 130.624 15.296C130.928 15.1627 131.208 15.016 131.464 14.856C131.725 14.6907 131.939 14.5147 132.104 14.328ZM133.848 14.544L134.424 14.912C134.253 15.0507 134.069 15.1787 133.872 15.296C133.68 15.4133 133.504 15.5147 133.344 15.6L132.872 15.272C132.973 15.208 133.085 15.1333 133.208 15.048C133.331 14.9627 133.448 14.8773 133.56 14.792C133.672 14.7013 133.768 14.6187 133.848 14.544ZM131.112 13.896V14.296H133.176V13.896H131.112ZM130.312 13.408H134.016V14.784H130.312V13.408ZM128.728 10.512H135.584V17.72H134.648V11.368H129.632V17.72H128.728V10.512ZM129.304 16.568H135.152V17.432H129.304V16.568ZM142.272 10.688H147.856V17.608H146.824V11.656H143.256V17.624H142.272V10.688ZM142.944 13.376H147.248V14.32H142.944V13.376ZM142.944 16.128H147.256V17.096H142.944V16.128ZM154.392 11.76H161.464V12.736H154.392V11.76ZM156.032 15.384H159.752V16.36H156.032V15.384ZM157.408 10.208H158.424V17.72H157.408V10.208ZM157.12 12.112L158 12.392C157.771 12.968 157.493 13.5173 157.168 14.04C156.843 14.5627 156.477 15.0373 156.072 15.464C155.672 15.8853 155.24 16.2453 154.776 16.544C154.723 16.464 154.653 16.376 154.568 16.28C154.483 16.1787 154.397 16.08 154.312 15.984C154.232 15.8827 154.152 15.8027 154.072 15.744C154.403 15.5627 154.72 15.3413 155.024 15.08C155.328 14.8187 155.611 14.528 155.872 14.208C156.139 13.888 156.376 13.552 156.584 13.2C156.797 12.8427 156.976 12.48 157.12 12.112ZM158.72 12.136C158.912 12.6053 159.163 13.0667 159.472 13.52C159.787 13.968 160.144 14.376 160.544 14.744C160.944 15.112 161.365 15.4133 161.808 15.648C161.728 15.712 161.64 15.7947 161.544 15.896C161.453 15.9973 161.365 16.104 161.28 16.216C161.195 16.3227 161.123 16.4213 161.064 16.512C160.6 16.224 160.165 15.872 159.76 15.456C159.36 15.0347 159 14.5653 158.68 14.048C158.36 13.5307 158.083 12.9893 157.848 12.424L158.72 12.136ZM168.488 15.024H173.024V15.6H168.488V15.024ZM168.488 14.024H173.584V16.592H168.488V15.952H172.632V14.672H168.488V14.024ZM170.256 14.384H171.176V16.616C171.176 16.7653 171.211 16.8613 171.28 16.904C171.355 16.9413 171.512 16.96 171.752 16.96C171.8 16.96 171.872 16.96 171.968 16.96C172.069 16.96 172.181 16.96 172.304 16.96C172.432 16.96 172.557 16.96 172.68 16.96C172.808 16.96 172.925 16.96 173.032 16.96C173.139 16.96 173.221 16.96 173.28 16.96C173.413 16.96 173.515 16.9413 173.584 16.904C173.653 16.8667 173.704 16.7893 173.736 16.672C173.768 16.5547 173.792 16.384 173.808 16.16C173.904 16.224 174.029 16.2853 174.184 16.344C174.344 16.4027 174.485 16.4427 174.608 16.464C174.571 16.784 174.509 17.032 174.424 17.208C174.339 17.3893 174.211 17.5147 174.04 17.584C173.875 17.6587 173.645 17.696 173.352 17.696C173.304 17.696 173.221 17.696 173.104 17.696C172.992 17.696 172.864 17.696 172.72 17.696C172.581 17.696 172.44 17.696 172.296 17.696C172.152 17.696 172.024 17.696 171.912 17.696C171.8 17.696 171.717 17.696 171.664 17.696C171.301 17.696 171.016 17.664 170.808 17.6C170.605 17.536 170.461 17.4267 170.376 17.272C170.296 17.1173 170.256 16.9013 170.256 16.624V14.384ZM168.008 14.024H168.928V16.952H168.008V14.024ZM167.824 10.488H173.76V11.2H167.824V10.488ZM168.44 12.408H170.024V12.928H168.44V12.408ZM168.288 13.2H170.024V13.728H168.288V13.2ZM171.544 13.2H173.304V13.728H171.544V13.2ZM171.544 12.408H173.112V12.928H171.544V12.408ZM170.304 10.776H171.248V13.808H170.304V10.776ZM167.272 11.496H174.336V13.136H173.448V12.136H168.128V13.136H167.272V11.496ZM179.992 13.704H187.376V14.672H179.992V13.704ZM183.184 12.432H184.192V16.6C184.192 16.872 184.155 17.0827 184.08 17.232C184.011 17.3813 183.877 17.4933 183.68 17.568C183.488 17.6427 183.253 17.6907 182.976 17.712C182.699 17.7333 182.376 17.7413 182.008 17.736C181.992 17.64 181.96 17.5307 181.912 17.408C181.864 17.2907 181.813 17.1707 181.76 17.048C181.707 16.9307 181.653 16.8293 181.6 16.744C181.787 16.7493 181.971 16.7547 182.152 16.76C182.339 16.7653 182.504 16.768 182.648 16.768C182.797 16.768 182.901 16.768 182.96 16.768C183.045 16.768 183.104 16.7547 183.136 16.728C183.168 16.7013 183.184 16.6533 183.184 16.584V12.432ZM180.832 10.696H185.872V11.64H180.832V10.696ZM185.552 10.696H185.808L186.032 10.64L186.76 11.192C186.515 11.4533 186.232 11.7147 185.912 11.976C185.597 12.2373 185.269 12.488 184.928 12.728C184.587 12.9627 184.253 13.1653 183.928 13.336C183.88 13.2667 183.819 13.1893 183.744 13.104C183.669 13.0187 183.592 12.936 183.512 12.856C183.432 12.7707 183.36 12.6987 183.296 12.64C183.584 12.496 183.875 12.3227 184.168 12.12C184.467 11.9173 184.739 11.7093 184.984 11.496C185.229 11.2827 185.419 11.088 185.552 10.912V10.696ZM192.92 15.048H200.208V15.856H192.92V15.048ZM193.112 10.736H200.008V11.528H193.112V10.736ZM197.528 14.544H198.472V16.792C198.472 17.0213 198.44 17.1973 198.376 17.32C198.317 17.4427 198.205 17.536 198.04 17.6C197.875 17.6587 197.672 17.6933 197.432 17.704C197.192 17.72 196.909 17.728 196.584 17.728C196.563 17.5947 196.523 17.4507 196.464 17.296C196.411 17.1413 196.352 17.0053 196.288 16.888C196.432 16.888 196.576 16.8907 196.72 16.896C196.869 16.9013 197 16.904 197.112 16.904C197.229 16.904 197.309 16.904 197.352 16.904C197.421 16.8987 197.467 16.888 197.488 16.872C197.515 16.8507 197.528 16.8133 197.528 16.76V14.544ZM196.056 10.208H197V14.28H196.056V10.208ZM194.064 16.256L194.784 15.752C194.928 15.848 195.075 15.96 195.224 16.088C195.379 16.216 195.523 16.344 195.656 16.472C195.795 16.5947 195.904 16.712 195.984 16.824L195.208 17.392C195.139 17.28 195.04 17.1573 194.912 17.024C194.784 16.8907 194.645 16.7573 194.496 16.624C194.352 16.4853 194.208 16.3627 194.064 16.256ZM194.592 13.56V13.968H198.528V13.56H194.592ZM194.592 12.536V12.944H198.528V12.536H194.592ZM193.688 11.888H199.472V14.624H193.688V11.888ZM206.552 11.72H208.552V12.4H206.552V11.72ZM210.248 11.72H212.264V12.4H210.248V11.72ZM211.88 10.52H212.856V16.552C212.856 16.8293 212.821 17.0427 212.752 17.192C212.683 17.3467 212.563 17.4613 212.392 17.536C212.216 17.616 211.992 17.664 211.72 17.68C211.448 17.7013 211.117 17.712 210.728 17.712C210.717 17.6213 210.693 17.5147 210.656 17.392C210.619 17.2747 210.576 17.1547 210.528 17.032C210.485 16.9147 210.437 16.8133 210.384 16.728C210.555 16.7387 210.728 16.7467 210.904 16.752C211.08 16.752 211.235 16.752 211.368 16.752C211.507 16.752 211.603 16.752 211.656 16.752C211.741 16.752 211.8 16.736 211.832 16.704C211.864 16.672 211.88 16.6187 211.88 16.544V10.52ZM206.624 10.52H209.144V13.632H206.624V12.856H208.248V11.296H206.624V10.52ZM212.4 10.52V11.296H210.608V12.88H212.4V13.648H209.696V10.52H212.4ZM206.08 10.52H207.032V17.72H206.08V10.52ZM220.184 12.936H223.872V13.768H220.184V12.936ZM218.752 14.736H225.912V15.616H218.752V14.736ZM221.832 14.216H222.816V16.688C222.816 16.9333 222.781 17.1253 222.712 17.264C222.643 17.4027 222.512 17.5067 222.32 17.576C222.128 17.6453 221.904 17.688 221.648 17.704C221.392 17.72 221.093 17.728 220.752 17.728C220.72 17.5893 220.664 17.4293 220.584 17.248C220.509 17.072 220.435 16.92 220.36 16.792C220.531 16.7973 220.704 16.8027 220.88 16.808C221.056 16.8133 221.211 16.816 221.344 16.816C221.483 16.816 221.579 16.8133 221.632 16.808C221.712 16.808 221.765 16.7973 221.792 16.776C221.819 16.7547 221.832 16.7173 221.832 16.664V14.216ZM223.568 12.936H223.8L224.008 12.888L224.608 13.352C224.432 13.5493 224.227 13.7467 223.992 13.944C223.757 14.1413 223.512 14.328 223.256 14.504C223 14.6747 222.741 14.824 222.48 14.952C222.421 14.8667 222.339 14.7707 222.232 14.664C222.131 14.552 222.045 14.4613 221.976 14.392C222.184 14.2853 222.389 14.1573 222.592 14.008C222.8 13.8587 222.989 13.7067 223.16 13.552C223.331 13.392 223.467 13.248 223.568 13.12V12.936ZM218.856 11.472H225.824V13.432H224.88V12.32H219.752V13.432H218.856V11.472ZM224.392 10.256L225.432 10.56C225.251 10.8267 225.061 11.088 224.864 11.344C224.667 11.6 224.488 11.816 224.328 11.992L223.536 11.704C223.643 11.5653 223.747 11.4133 223.848 11.248C223.955 11.0827 224.056 10.9147 224.152 10.744C224.248 10.568 224.328 10.4053 224.392 10.256ZM219.392 10.648L220.208 10.28C220.352 10.44 220.493 10.6187 220.632 10.816C220.771 11.008 220.872 11.1813 220.936 11.336L220.072 11.744C220.013 11.5947 219.917 11.4187 219.784 11.216C219.656 11.008 219.525 10.8187 219.392 10.648ZM221.4 10.472L222.248 10.16C222.376 10.3307 222.499 10.5253 222.616 10.744C222.739 10.9627 222.827 11.1547 222.88 11.32L221.976 11.672C221.933 11.512 221.856 11.32 221.744 11.096C221.637 10.8667 221.523 10.6587 221.4 10.472ZM234.432 11.32H238.872V12.2H234.432V11.32ZM236.16 10.2H237.104V11.712H236.16V10.2ZM235.36 12.272L236.224 12.632C236.048 12.9787 235.837 13.3147 235.592 13.64C235.347 13.96 235.093 14.2293 234.832 14.448C234.763 14.3573 234.661 14.2533 234.528 14.136C234.395 14.0133 234.277 13.912 234.176 13.832C234.416 13.6453 234.64 13.4107 234.848 13.128C235.061 12.84 235.232 12.5547 235.36 12.272ZM237.024 12.664L237.768 12.24C237.928 12.4107 238.088 12.5947 238.248 12.792C238.413 12.9893 238.563 13.1867 238.696 13.384C238.835 13.576 238.941 13.7547 239.016 13.92L238.208 14.384C238.144 14.224 238.048 14.0453 237.92 13.848C237.792 13.6507 237.648 13.448 237.488 13.24C237.333 13.0267 237.179 12.8347 237.024 12.664ZM235.952 13.768C236.128 14.2373 236.36 14.6773 236.648 15.088C236.941 15.4933 237.288 15.8507 237.688 16.16C238.088 16.464 238.539 16.704 239.04 16.88C238.971 16.9493 238.891 17.0347 238.8 17.136C238.715 17.2373 238.632 17.3413 238.552 17.448C238.477 17.5547 238.416 17.6507 238.368 17.736C237.84 17.5173 237.371 17.2267 236.96 16.864C236.549 16.496 236.192 16.072 235.888 15.592C235.584 15.1067 235.328 14.576 235.12 14L235.952 13.768ZM237.112 13.72L238.08 13.912C237.899 14.488 237.653 15.024 237.344 15.52C237.04 16.016 236.659 16.4533 236.2 16.832C235.741 17.2053 235.189 17.5093 234.544 17.744C234.512 17.6693 234.467 17.584 234.408 17.488C234.349 17.392 234.288 17.2987 234.224 17.208C234.165 17.1173 234.109 17.04 234.056 16.976C234.637 16.784 235.133 16.5253 235.544 16.2C235.955 15.8747 236.288 15.5013 236.544 15.08C236.805 14.6533 236.995 14.2 237.112 13.72ZM231.56 11.856H234.336V12.744H231.56V11.856ZM232.576 10.2H233.464V17.712H232.576V10.2ZM232.568 12.472L233.112 12.656C233.053 12.976 232.979 13.3067 232.888 13.648C232.803 13.9893 232.704 14.3253 232.592 14.656C232.48 14.9813 232.357 15.288 232.224 15.576C232.096 15.8587 231.957 16.1013 231.808 16.304C231.765 16.176 231.699 16.0293 231.608 15.864C231.523 15.6987 231.443 15.5573 231.368 15.44C231.501 15.264 231.627 15.0587 231.744 14.824C231.867 14.5893 231.981 14.3413 232.088 14.08C232.195 13.8133 232.288 13.544 232.368 13.272C232.448 12.9947 232.515 12.728 232.568 12.472ZM233.432 13.104C233.48 13.1627 233.552 13.264 233.648 13.408C233.744 13.5467 233.848 13.6987 233.96 13.864C234.072 14.0293 234.173 14.184 234.264 14.328C234.36 14.472 234.427 14.5733 234.464 14.632L233.944 15.344C233.896 15.2213 233.832 15.0773 233.752 14.912C233.672 14.7467 233.584 14.576 233.488 14.4C233.397 14.2187 233.309 14.0507 233.224 13.896C233.139 13.7413 233.067 13.6133 233.008 13.512L233.432 13.104Z" fill="black"/>
</svg>
